<?xml version="1.0" standalone="yes"?>
<svg xmlns="http://www.w3.org/2000/svg" width="300" height="299">
<path style="fill:#5fab45; stroke:none;" d="M0 0C0 8.73029 -2.45697 21.7944 0.603395 29.9962C2.43664 34.9092 8.37967 38.4266 12 42.0038C21.0525 50.9487 30.0012 60.0012 39 69L106 136C116.881 146.881 130.397 157.482 139.363 170C149.202 183.738 155.891 201.047 163.781 216C170.113 228.001 176.523 239.956 182.778 252C185.309 256.874 189.59 263.219 188.963 268.995C187.467 282.772 162.888 269.342 157 266.398C127.949 251.873 91.9944 236.993 69 214C47.039 192.04 25.4441 163.713 0 146L0 299L300 299L300 88L299 88L264.155 133L244 154C257.809 138.963 269.034 120.949 280.333 104C290.628 88.5584 300 76.9148 300 58L299 58C289.224 81.4819 274.431 104.349 259.709 125C251.561 136.43 242.585 148.84 231 157C263.177 111.943 279.095 52.5227 294 0L260 0C256.241 29.7407 250.682 59.0439 242.849 88C236.371 111.947 227.317 136.366 224 161C220.627 161 215.36 161.956 212.43 159.972C209.337 157.878 208.952 152.336 208.207 149C206.263 140.291 203.965 131.598 201.576 123C190.647 83.6749 175.85 41.166 175 0L141 0C152.603 56.2177 179.031 105.663 203 157C190.043 147.873 180.615 132.776 171.576 120C146.942 85.1818 121.617 41.9483 112 0L100 0C113.385 57.8555 158.56 104.12 189 153C158.207 122.187 132.691 86.759 111.15 49C104.931 38.0982 98.9005 26.6463 94.2006 15C92.7436 11.3896 91.2271 2.4285 87.5702 0.603394C81.4405 -2.45587 68.8099 0 62 0L0 0z"/>
<path style="fill:#96c784; stroke:none;" d="M89 0L90 1L89 0z"/>
<path style="fill:#b0d5a2; stroke:none;" d="M90 0C92.1752 14.7289 101.005 28.9811 107.742 42C122.022 69.5985 139.721 96.1207 159.586 120C167.381 129.369 175.303 140.584 185 148C161.683 110.557 134.128 76.7613 114.247 37C110.162 28.8298 106.202 20.5876 103.053 12C101.908 8.87573 101.256 3.10242 98.4367 1.02777C96.2506 -0.580933 92.5496 0.00198364 90 0z"/>
<path style="fill:#96c784; stroke:none;" d="M99 0L100 1L99 0M112 0L113 1L112 0z"/>
<path style="fill:#b0d5a2; stroke:none;" d="M113 0C114.911 14.1832 121.867 28.0726 127.694 41C139.707 67.6468 153.905 93.7991 170.344 118C178.869 130.55 188.516 146.132 201 155C197.181 142.932 188.799 131.451 183.258 120C172.948 98.6914 163.845 76.4515 156.333 54C152.228 41.7298 148.247 29.4474 144.71 17C143.448 12.5579 143.096 5.1102 139.911 1.60339C135.834 -2.88651 118.81 0 113 0z"/>
<path style="fill:#96c784; stroke:none;" d="M140.333 0.666656L140.667 1.33334L140.333 0.666656M175.333 0.666656L175.667 1.33334L175.333 0.666656z"/>
<path style="fill:#b0d5a2; stroke:none;" d="M176 0C176.346 41.8425 192.216 83.8921 202.374 124C204.82 133.655 206.724 162.124 219.891 159.852C224.143 159.118 224.493 154.513 225.373 151C227.801 141.313 230.438 131.681 232.873 122C243.035 81.6025 255.702 41.7868 259 0L176 0z"/>
<path style="fill:#73b55c; stroke:none;" d="M259 0L259 4L260 4L259 0z"/>
<path style="fill:#96c784; stroke:none;" d="M294 0L295 1L294 0z"/>
<path style="fill:#b0d5a2; stroke:none;" d="M233 155C255.381 139.235 270.632 109.26 284 86C289.353 76.6852 297.318 65.5982 299.61 55C303.25 38.1596 300 17.2434 300 0C289.654 0.803772 286.619 29.1428 283.667 38C270.044 78.8684 253.055 116.924 233 155z"/>
<path style="fill:#73b55c; stroke:none;" d="M89 1L90 2L89 1M112.333 1.66666L112.667 2.33334L112.333 1.66666M293.333 1.66666L293.667 2.33334L293.333 1.66666M100 2L101 3L100 2M141.333 2.66666L141.667 3.33334L141.333 2.66666M175 2L175 7L176 7L175 2z"/>
<path style="fill:#96c784; stroke:none;" d="M90 3L91 4L90 3M100.333 3.66666L100.667 4.33334L100.333 3.66666M113.333 3.66666L113.667 4.33334L113.333 3.66666M293 3L294 4L293 3z"/>
<path style="fill:#73b55c; stroke:none;" d="M90.3333 4.66666L90.6667 5.33334L90.3333 4.66666z"/>
<path style="fill:#96c784; stroke:none;" d="M141 4L142 5L141 4M258 4L258 9L259 9L258 4z"/>
<path style="fill:#73b55c; stroke:none;" d="M101 5L102 6L101 5M113 5L114 6L113 5M292 5L293 6L292 5z"/>
<path style="fill:#96c784; stroke:none;" d="M91 6L92 7L91 6M101.333 6.66666L101.667 7.33334L101.333 6.66666z"/>
<path style="fill:#73b55c; stroke:none;" d="M142.333 6.66666L142.667 7.33334L142.333 6.66666z"/>
<path style="fill:#96c784; stroke:none;" d="M292.333 6.66666L292.667 7.33334L292.333 6.66666z"/>
<path style="fill:#73b55c; stroke:none;" d="M91.3333 7.66666L91.6667 8.33334L91.3333 7.66666z"/>
<path style="fill:#96c784; stroke:none;" d="M114 7L115 8L114 7M176 7L176 11L177 11L176 7z"/>
<path style="fill:#73b55c; stroke:none;" d="M102.333 8.66666L102.667 9.33334L102.333 8.66666M114.333 8.66666L114.667 9.33334L114.333 8.66666z"/>
<path style="fill:#96c784; stroke:none;" d="M142 8L143 9L142 8z"/>
<path style="fill:#73b55c; stroke:none;" d="M291.333 8.66666L291.667 9.33334L291.333 8.66666z"/>
<path style="fill:#96c784; stroke:none;" d="M92 9L93 10L92 9z"/>
<path style="fill:#73b55c; stroke:none;" d="M258 9L258 12L259 12L258 9M92 10L93 11L92 10z"/>
<path style="fill:#96c784; stroke:none;" d="M102 10L103 11L102 10M115 10L116 11L115 10z"/>
<path style="fill:#73b55c; stroke:none;" d="M143 10L144 11L143 10z"/>
<path style="fill:#96c784; stroke:none;" d="M291.333 10.6667L291.667 11.3333L291.333 10.6667M93.3333 11.6667L93.6667 12.3333L93.3333 11.6667z"/>
<path style="fill:#73b55c; stroke:none;" d="M103 11L104 12L103 11M115.333 11.6667L115.667 12.3333L115.333 11.6667z"/>
<path style="fill:#96c784; stroke:none;" d="M143.333 11.6667L143.667 12.3333L143.333 11.6667z"/>
<path style="fill:#73b55c; stroke:none;" d="M176 11L176 14L177 14L176 11z"/>
<path style="fill:#96c784; stroke:none;" d="M103.333 12.6667L103.667 13.3333L103.333 12.6667z"/>
<path style="fill:#73b55c; stroke:none;" d="M290.333 12.6667L290.667 13.3333L290.333 12.6667M93 13L94 14L93 13z"/>
<path style="fill:#96c784; stroke:none;" d="M116 13L117 14L116 13z"/>
<path style="fill:#73b55c; stroke:none;" d="M144.333 13.6667L144.667 14.3333L144.333 13.6667z"/>
<path style="fill:#96c784; stroke:none;" d="M257 13L257 16L258 16L257 13M94 14L95 15L94 14z"/>
<path style="fill:#73b55c; stroke:none;" d="M104 14L105 15L104 14M116.333 14.6667L116.667 15.3333L116.333 14.6667z"/>
<path style="fill:#96c784; stroke:none;" d="M290.333 14.6667L290.667 15.3333L290.333 14.6667z"/>
<path style="fill:#73b55c; stroke:none;" d="M94 15L95 16L94 15z"/>
<path style="fill:#96c784; stroke:none;" d="M104 15L105 16L104 15M144.333 15.6667L144.667 16.3333L144.333 15.6667M177 15L177 18L178 18L177 15M95.3333 16.6667L95.6667 17.3333L95.3333 16.6667z"/>
<path style="fill:#73b55c; stroke:none;" d="M105 16L106 17L105 16z"/>
<path style="fill:#96c784; stroke:none;" d="M117 16L118 17L117 16z"/>
<path style="fill:#73b55c; stroke:none;" d="M257 16L257 19L258 19L257 16M289.333 16.6667L289.667 17.3333L289.333 16.6667z"/>
<path style="fill:#96c784; stroke:none;" d="M105.333 17.6667L105.667 18.3333L105.333 17.6667z"/>
<path style="fill:#73b55c; stroke:none;" d="M117 17L118 18L117 17M145.333 17.6667L145.667 18.3333L145.333 17.6667M95 18L96 19L95 18M177 18L177 21L178 21L177 18z"/>
<path style="fill:#96c784; stroke:none;" d="M289 18L290 19L289 18M96 19L97 20L96 19z"/>
<path style="fill:#73b55c; stroke:none;" d="M106 19L107 20L106 19z"/>
<path style="fill:#96c784; stroke:none;" d="M118 19L119 20L118 19M145 19L146 20L145 19z"/>
<path style="fill:#73b55c; stroke:none;" d="M96 20L97 21L96 20z"/>
<path style="fill:#96c784; stroke:none;" d="M106 20L107 21L106 20z"/>
<path style="fill:#73b55c; stroke:none;" d="M118 20L119 21L118 20M146.333 20.6667L146.667 21.3333L146.333 20.6667z"/>
<path style="fill:#96c784; stroke:none;" d="M256 20L256 23L257 23L256 20z"/>
<path style="fill:#73b55c; stroke:none;" d="M288 20L289 21L288 20z"/>
<path style="fill:#96c784; stroke:none;" d="M97 21L98 22L97 21z"/>
<path style="fill:#73b55c; stroke:none;" d="M107 21L108 22L107 21z"/>
<path style="fill:#96c784; stroke:none;" d="M119 21L120 22L119 21M288.333 21.6667L288.667 22.3333L288.333 21.6667z"/>
<path style="fill:#73b55c; stroke:none;" d="M97 22L98 23L97 22z"/>
<path style="fill:#96c784; stroke:none;" d="M107 22L108 23L107 22z"/>
<path style="fill:#73b55c; stroke:none;" d="M119 22L120 23L119 22z"/>
<path style="fill:#96c784; stroke:none;" d="M146.333 22.6667L146.667 23.3333L146.333 22.6667M178 22L178 25L179 25L178 22M98 23L99 24L98 23z"/>
<path style="fill:#73b55c; stroke:none;" d="M256 23L256 26L257 26L256 23M287.333 23.6667L287.667 24.3333L287.333 23.6667M98 24L99 25L98 24M108 24L109 25L108 24z"/>
<path style="fill:#96c784; stroke:none;" d="M120 24L121 25L120 24z"/>
<path style="fill:#73b55c; stroke:none;" d="M147 24L148 25L147 24z"/>
<path style="fill:#96c784; stroke:none;" d="M99 25L100 26L99 25M108 25L109 26L108 25z"/>
<path style="fill:#73b55c; stroke:none;" d="M120 25L121 26L120 25z"/>
<path style="fill:#96c784; stroke:none;" d="M147.333 25.6667L147.667 26.3333L147.333 25.6667z"/>
<path style="fill:#73b55c; stroke:none;" d="M178 25L178 28L179 28L178 25z"/>
<path style="fill:#96c784; stroke:none;" d="M287 25L288 26L287 25z"/>
<path style="fill:#73b55c; stroke:none;" d="M99 26L100 27L99 26M109 26L110 27L109 26z"/>
<path style="fill:#96c784; stroke:none;" d="M121 26L122 27L121 26M109 27L110 28L109 27z"/>
<path style="fill:#73b55c; stroke:none;" d="M121 27L122 28L121 27M148.333 27.6667L148.667 28.3333L148.333 27.6667z"/>
<path style="fill:#96c784; stroke:none;" d="M255.333 27.6667L255.667 28.3333L255.333 27.6667z"/>
<path style="fill:#73b55c; stroke:none;" d="M286 27L287 28L286 27z"/>
<path style="fill:#96c784; stroke:none;" d="M100 28L101 29L100 28z"/>
<path style="fill:#73b55c; stroke:none;" d="M110 28L111 29L110 28z"/>
<path style="fill:#96c784; stroke:none;" d="M179 28L179 31L180 31L179 28M286.333 28.6667L286.667 29.3333L286.333 28.6667M110 29L111 30L110 29M122 29L123 30L122 29M148 29L149 30L148 29z"/>
<path style="fill:#73b55c; stroke:none;" d="M255 29L255 32L256 32L255 29z"/>
<path style="fill:#96c784; stroke:none;" d="M101 30L102 31L101 30z"/>
<path style="fill:#73b55c; stroke:none;" d="M111 30L112 31L111 30M122 30L123 31L122 30M285 30L286 31L285 30M0 31L1 32L0 31z"/>
<path style="fill:#96c784; stroke:none;" d="M111 31L112 32L111 31M123 31L124 32L123 31z"/>
<path style="fill:#73b55c; stroke:none;" d="M149 31L150 32L149 31M179.333 31.6667L179.667 32.3333L179.333 31.6667z"/>
<path style="fill:#96c784; stroke:none;" d="M285.333 31.6667L285.667 32.3333L285.333 31.6667z"/>
<path style="fill:#fefffe; stroke:none;" d="M0 32C0 38.8432 -2.07926 49.7883 1.02778 56C6.13525 66.211 20.8342 76.8342 29 85C49.5196 105.52 69.8414 126.259 90.8441 146.279C99.4328 154.466 112.018 163.378 117.424 174C121.173 181.367 112.781 191.12 105 187.553C93.1759 182.134 81.8247 167.67 73.4244 158C65.4875 148.863 56.5553 140.555 48 132C34.298 118.298 17.8173 95.9411 0 88L0 126C0 131.424 -1.30125 138.858 0.603395 143.999C2.22193 148.368 6.75499 150.934 9.91049 154.09C17.0635 161.243 23.8302 168.83 31 176C47.4104 192.41 63.2457 211.992 82 225.711C93.4379 234.077 107.661 238.996 120 246C135.526 254.813 151.357 264.484 168 270.997C172.716 272.843 181.985 277.149 186.566 273.257C191.566 269.009 186.533 259.465 184.216 255C176.049 239.261 167.239 223.83 159.248 208C152.808 195.245 146.682 180.616 138.363 169C131.232 159.044 120.648 150.648 112 142L61 91C41.6047 71.6047 22.6825 47.5097 0 32z"/>
<path style="fill:#96c784; stroke:none;" d="M1 32L2 33L1 32M102 32L103 33L102 32z"/>
<path style="fill:#73b55c; stroke:none;" d="M112 32L113 33L112 32M123 32L124 33L123 32z"/>
<path style="fill:#96c784; stroke:none;" d="M149.333 32.6667L149.667 33.3333L149.333 32.6667M254 32L254 35L255 35L254 32z"/>
<path style="fill:#b0d5a2; stroke:none;" d="M2 33L3 34L2 33z"/>
<path style="fill:#96c784; stroke:none;" d="M112 33L113 34L112 33M124 33L125 34L124 33z"/>
<path style="fill:#73b55c; stroke:none;" d="M284 33L285 34L284 33z"/>
<path style="fill:#b0d5a2; stroke:none;" d="M3 34L4 35L3 34z"/>
<path style="fill:#96c784; stroke:none;" d="M103 34L104 35L103 34z"/>
<path style="fill:#73b55c; stroke:none;" d="M113 34L114 35L113 34M124 34L125 35L124 34M150.333 34.6667L150.667 35.3333L150.333 34.6667z"/>
<path style="fill:#96c784; stroke:none;" d="M180 34L180 37L181 37L180 34M284.333 34.6667L284.667 35.3333L284.333 34.6667z"/>
<path style="fill:#b0d5a2; stroke:none;" d="M4 35L5 36L4 35z"/>
<path style="fill:#96c784; stroke:none;" d="M113 35L114 36L113 35z"/>
<path style="fill:#73b55c; stroke:none;" d="M254.333 35.6667L254.667 36.3333L254.333 35.6667z"/>
<path style="fill:#b0d5a2; stroke:none;" d="M5 36L6 37L5 36z"/>
<path style="fill:#73b55c; stroke:none;" d="M6 36L7 37L6 36M104 36L105 37L104 36M114 36L115 37L114 36z"/>
<path style="fill:#96c784; stroke:none;" d="M125 36L126 37L125 36M150 36L151 37L150 36z"/>
<path style="fill:#73b55c; stroke:none;" d="M283.333 36.6667L283.667 37.3333L283.333 36.6667M7 37L8 38L7 37z"/>
<path style="fill:#96c784; stroke:none;" d="M105 37L106 38L105 37M114 37L115 38L114 37z"/>
<path style="fill:#73b55c; stroke:none;" d="M125 37L126 38L125 37M151.333 37.6667L151.667 38.3333L151.333 37.6667M180.333 37.6667L180.667 38.3333L180.333 37.6667M8 38L9 39L8 38M105 38L106 39L105 38M115 38L116 39L115 38z"/>
<path style="fill:#96c784; stroke:none;" d="M126 38L127 39L126 38M253.333 38.6667L253.667 39.3333L253.333 38.6667M283 38L284 39L283 38z"/>
<path style="fill:#73b55c; stroke:none;" d="M9 39L10 40L9 39z"/>
<path style="fill:#96c784; stroke:none;" d="M106 39L107 40L106 39M115 39L116 40L115 39z"/>
<path style="fill:#73b55c; stroke:none;" d="M126 39L127 40L126 39z"/>
<path style="fill:#96c784; stroke:none;" d="M151 39L152 40L151 39z"/>
<path style="fill:#73b55c; stroke:none;" d="M282.333 39.6667L282.667 40.3333L282.333 39.6667M10 40L11 41L10 40M106 40L107 41L106 40M116 40L117 41L116 40z"/>
<path style="fill:#96c784; stroke:none;" d="M127 40L128 41L127 40z"/>
<path style="fill:#73b55c; stroke:none;" d="M152.333 40.6667L152.667 41.3333L152.333 40.6667z"/>
<path style="fill:#96c784; stroke:none;" d="M181.333 40.6667L181.667 41.3333L181.333 40.6667z"/>
<path style="fill:#73b55c; stroke:none;" d="M253 40L253 43L254 43L253 40z"/>
<path style="fill:#96c784; stroke:none;" d="M11 41L12 42L11 41M107 41L108 42L107 41M116 41L117 42L116 41z"/>
<path style="fill:#73b55c; stroke:none;" d="M127 41L128 42L127 41z"/>
<path style="fill:#96c784; stroke:none;" d="M282 41L283 42L282 41M12 42L13 43L12 42z"/>
<path style="fill:#73b55c; stroke:none;" d="M107 42L108 43L107 42M117 42L118 43L117 42z"/>
<path style="fill:#96c784; stroke:none;" d="M128 42L129 43L128 42M152 42L153 43L152 42z"/>
<path style="fill:#73b55c; stroke:none;" d="M181.333 42.6667L181.667 43.3333L181.333 42.6667z"/>
<path style="fill:#96c784; stroke:none;" d="M13 43L14 44L13 43M108 43L109 44L108 43M117 43L118 44L117 43z"/>
<path style="fill:#73b55c; stroke:none;" d="M128 43L129 44L128 43z"/>
<path style="fill:#96c784; stroke:none;" d="M252 43L252 46L253 46L252 43z"/>
<path style="fill:#73b55c; stroke:none;" d="M281 43L282 44L281 43z"/>
<path style="fill:#96c784; stroke:none;" d="M14 44L15 45L14 44z"/>
<path style="fill:#73b55c; stroke:none;" d="M108 44L109 45L108 44M118 44L119 45L118 44M153 44L154 45L153 44z"/>
<path style="fill:#96c784; stroke:none;" d="M281 44L282 45L281 44M15 45L16 46L15 45M109 45L110 46L109 45M118 45L119 46L118 45M129 45L130 46L129 45M153 45L154 46L153 45M182.333 45.6667L182.667 46.3333L182.333 45.6667M16 46L17 47L16 46z"/>
<path style="fill:#73b55c; stroke:none;" d="M109 46L110 47L109 46M119 46L120 47L119 46M129 46L130 47L129 46M252.333 46.6667L252.667 47.3333L252.333 46.6667M280 46L281 47L280 46z"/>
<path style="fill:#96c784; stroke:none;" d="M17 47L18 48L17 47M110 47L111 48L110 47M119 47L120 48L119 47M130 47L131 48L130 47z"/>
<path style="fill:#73b55c; stroke:none;" d="M154 47L155 48L154 47M182 47L182 50L183 50L182 47z"/>
<path style="fill:#96c784; stroke:none;" d="M280 47L281 48L280 47z"/>
<path style="fill:#b0d5a2; stroke:none;" d="M18 48L19 49L18 48z"/>
<path style="fill:#73b55c; stroke:none;" d="M120 48L121 49L120 48M130 48L131 49L130 48z"/>
<path style="fill:#96c784; stroke:none;" d="M154 48L155 49L154 48z"/>
<path style="fill:#b0d5a2; stroke:none;" d="M19 49L20 50L19 49z"/>
<path style="fill:#73b55c; stroke:none;" d="M111 49L112 50L111 49z"/>
<path style="fill:#96c784; stroke:none;" d="M120 49L121 50L120 49M131 49L132 50L131 49M251.333 49.6667L251.667 50.3333L251.333 49.6667z"/>
<path style="fill:#73b55c; stroke:none;" d="M279 49L280 50L279 49z"/>
<path style="fill:#b0d5a2; stroke:none;" d="M20 50L21 51L20 50z"/>
<path style="fill:#96c784; stroke:none;" d="M112 50L113 51L112 50z"/>
<path style="fill:#73b55c; stroke:none;" d="M121 50L122 51L121 50M131 50L132 51L131 50M155 50L156 51L155 50z"/>
<path style="fill:#96c784; stroke:none;" d="M183.333 50.6667L183.667 51.3333L183.333 50.6667M279 50L280 51L279 50z"/>
<path style="fill:#b0d5a2; stroke:none;" d="M21 51L22 52L21 51z"/>
<path style="fill:#73b55c; stroke:none;" d="M112 51L113 52L112 51z"/>
<path style="fill:#96c784; stroke:none;" d="M132 51L133 52L132 51M155 51L156 52L155 51z"/>
<path style="fill:#73b55c; stroke:none;" d="M251.333 51.6667L251.667 52.3333L251.333 51.6667z"/>
<path style="fill:#b0d5a2; stroke:none;" d="M22 52L23 53L22 52z"/>
<path style="fill:#96c784; stroke:none;" d="M113 52L114 53L113 52M122 52L123 53L122 52z"/>
<path style="fill:#73b55c; stroke:none;" d="M132 52L133 53L132 52M156.333 52.6667L156.667 53.3333L156.333 52.6667M183.333 52.6667L183.667 53.3333L183.333 52.6667M278 52L279 53L278 52z"/>
<path style="fill:#b0d5a2; stroke:none;" d="M23 53L24 54L23 53z"/>
<path style="fill:#73b55c; stroke:none;" d="M113 53L114 54L113 53M123 53L124 54L123 53z"/>
<path style="fill:#96c784; stroke:none;" d="M133 53L134 54L133 53M250.333 53.6667L250.667 54.3333L250.333 53.6667M278 53L279 54L278 53z"/>
<path style="fill:#b0d5a2; stroke:none;" d="M24 54L25 55L24 54z"/>
<path style="fill:#96c784; stroke:none;" d="M114 54L115 55L114 54M123 54L124 55L123 54z"/>
<path style="fill:#73b55c; stroke:none;" d="M133 54L134 55L133 54z"/>
<path style="fill:#96c784; stroke:none;" d="M156 54L157 55L156 54z"/>
<path style="fill:#b0d5a2; stroke:none;" d="M25 55L26 56L25 55z"/>
<path style="fill:#73b55c; stroke:none;" d="M124 55L125 56L124 55z"/>
<path style="fill:#96c784; stroke:none;" d="M134 55L135 56L134 55z"/>
<path style="fill:#73b55c; stroke:none;" d="M157.333 55.6667L157.667 56.3333L157.333 55.6667z"/>
<path style="fill:#96c784; stroke:none;" d="M184.333 55.6667L184.667 56.3333L184.333 55.6667z"/>
<path style="fill:#73b55c; stroke:none;" d="M250.333 55.6667L250.667 56.3333L250.333 55.6667M277 55L278 56L277 55z"/>
<path style="fill:#b0d5a2; stroke:none;" d="M0 56L3 59L0 56M26 56L27 57L26 56z"/>
<path style="fill:#73b55c; stroke:none;" d="M115 56L116 57L115 56z"/>
<path style="fill:#96c784; stroke:none;" d="M124 56L125 57L124 56z"/>
<path style="fill:#73b55c; stroke:none;" d="M134 56L135 57L134 56z"/>
<path style="fill:#96c784; stroke:none;" d="M277 56L278 57L277 56M299 56L300 57L299 56z"/>
<path style="fill:#5fab45; stroke:none;" d="M0 57C0 65.0699 -2.55368 78.2601 0.603395 85.7106C4.42039 94.7186 19.7174 104.58 27 111.17C43.7808 126.354 60.2827 143.071 75.2855 159.999C82.6571 168.317 91.2913 177.154 100 184.061C103.852 187.116 109.113 189.693 113.671 186.258C128.063 175.411 101.915 157.573 95 150.961C73.2191 130.133 52.3098 108.31 31 87C20.9297 76.9297 11.695 65.2368 0 57z"/>
<path style="fill:#b0d5a2; stroke:none;" d="M27 57L28 58L27 57z"/>
<path style="fill:#96c784; stroke:none;" d="M116 57L117 58L116 57z"/>
<path style="fill:#73b55c; stroke:none;" d="M125 57L126 58L125 57z"/>
<path style="fill:#96c784; stroke:none;" d="M135 57L136 58L135 57M157 57L158 58L157 57z"/>
<path style="fill:#73b55c; stroke:none;" d="M184.333 57.6667L184.667 58.3333L184.333 57.6667M276.333 57.6667L276.667 58.3333L276.333 57.6667M299 57L300 58L299 57z"/>
<path style="fill:#b0d5a2; stroke:none;" d="M28 58L29 59L28 58z"/>
<path style="fill:#73b55c; stroke:none;" d="M116 58L117 59L116 58z"/>
<path style="fill:#96c784; stroke:none;" d="M125 58L126 59L125 58z"/>
<path style="fill:#73b55c; stroke:none;" d="M135 58L136 59L135 58M158 58L159 59L158 58z"/>
<path style="fill:#96c784; stroke:none;" d="M249.333 58.6667L249.667 59.3333L249.333 58.6667M298 58L299 59L298 58M3 59L4 60L3 59z"/>
<path style="fill:#b0d5a2; stroke:none;" d="M29 59L30 60L29 59z"/>
<path style="fill:#96c784; stroke:none;" d="M117 59L118 60L117 59z"/>
<path style="fill:#73b55c; stroke:none;" d="M126 59L127 60L126 59z"/>
<path style="fill:#96c784; stroke:none;" d="M136 59L137 60L136 59M158.333 59.6667L158.667 60.3333L158.333 59.6667M185.333 59.6667L185.667 60.3333L185.333 59.6667M276 59L277 60L276 59z"/>
<path style="fill:#73b55c; stroke:none;" d="M298 59L299 60L298 59z"/>
<path style="fill:#96c784; stroke:none;" d="M4 60L5 61L4 60z"/>
<path style="fill:#b0d5a2; stroke:none;" d="M30 60L31 61L30 60z"/>
<path style="fill:#73b55c; stroke:none;" d="M117 60L118 61L117 60M136 60L137 61L136 60M249.333 60.6667L249.667 61.3333L249.333 60.6667M275 60L276 61L275 60z"/>
<path style="fill:#96c784; stroke:none;" d="M297 60L298 61L297 60M5 61L6 62L5 61z"/>
<path style="fill:#b0d5a2; stroke:none;" d="M31 61L32 62L31 61z"/>
<path style="fill:#73b55c; stroke:none;" d="M118 61L119 62L118 61z"/>
<path style="fill:#96c784; stroke:none;" d="M127 61L128 62L127 61M137 61L138 62L137 61z"/>
<path style="fill:#73b55c; stroke:none;" d="M159 61L160 62L159 61M185.333 61.6667L185.667 62.3333L185.333 61.6667z"/>
<path style="fill:#96c784; stroke:none;" d="M275.333 61.6667L275.667 62.3333L275.333 61.6667z"/>
<path style="fill:#73b55c; stroke:none;" d="M297 61L298 62L297 61M6 62L7 63L6 62z"/>
<path style="fill:#b0d5a2; stroke:none;" d="M32 62L33 63L32 62z"/>
<path style="fill:#96c784; stroke:none;" d="M119 62L120 63L119 62z"/>
<path style="fill:#73b55c; stroke:none;" d="M128 62L129 63L128 62M137 62L138 63L137 62z"/>
<path style="fill:#96c784; stroke:none;" d="M159 62L160 63L159 62M248.333 62.6667L248.667 63.3333L248.333 62.6667M296 62L297 63L296 62z"/>
<path style="fill:#73b55c; stroke:none;" d="M7 63L8 64L7 63z"/>
<path style="fill:#b0d5a2; stroke:none;" d="M33 63L34 64L33 63z"/>
<path style="fill:#73b55c; stroke:none;" d="M119 63L120 64L119 63z"/>
<path style="fill:#96c784; stroke:none;" d="M128 63L129 64L128 63M138 63L139 64L138 63z"/>
<path style="fill:#73b55c; stroke:none;" d="M274 63L275 64L274 63M296 63L297 64L296 63M8 64L9 65L8 64z"/>
<path style="fill:#b0d5a2; stroke:none;" d="M34 64L35 65L34 64z"/>
<path style="fill:#96c784; stroke:none;" d="M120 64L121 65L120 64z"/>
<path style="fill:#73b55c; stroke:none;" d="M129 64L130 65L129 64M138 64L139 65L138 64M160 64L161 65L160 64z"/>
<path style="fill:#96c784; stroke:none;" d="M186 64L187 65L186 64z"/>
<path style="fill:#73b55c; stroke:none;" d="M248.333 64.6667L248.667 65.3333L248.333 64.6667z"/>
<path style="fill:#96c784; stroke:none;" d="M274.333 64.6667L274.667 65.3333L274.333 64.6667M295 64L296 65L295 64z"/>
<path style="fill:#73b55c; stroke:none;" d="M9 65L10 66L9 65z"/>
<path style="fill:#b0d5a2; stroke:none;" d="M10 65L11 66L10 65M35 65L36 66L35 65z"/>
<path style="fill:#96c784; stroke:none;" d="M129 65L130 66L129 65M139 65L140 66L139 65M160 65L161 66L160 65z"/>
<path style="fill:#73b55c; stroke:none;" d="M186.333 65.6667L186.667 66.3333L186.333 65.6667M295 65L296 66L295 65z"/>
<path style="fill:#b0d5a2; stroke:none;" d="M11 66L12 67L11 66M36 66L37 67L36 66z"/>
<path style="fill:#73b55c; stroke:none;" d="M121 66L122 67L121 66z"/>
<path style="fill:#96c784; stroke:none;" d="M130 66L131 67L130 66z"/>
<path style="fill:#73b55c; stroke:none;" d="M139 66L140 67L139 66M273 66L274 67L273 66z"/>
<path style="fill:#96c784; stroke:none;" d="M294 66L295 67L294 66z"/>
<path style="fill:#b0d5a2; stroke:none;" d="M12 67L13 68L12 67M37 67L38 68L37 67z"/>
<path style="fill:#96c784; stroke:none;" d="M122 67L123 68L122 67z"/>
<path style="fill:#73b55c; stroke:none;" d="M131 67L132 68L131 67z"/>
<path style="fill:#96c784; stroke:none;" d="M140 67L141 68L140 67z"/>
<path style="fill:#73b55c; stroke:none;" d="M161 67L162 68L161 67z"/>
<path style="fill:#96c784; stroke:none;" d="M187 67L187 70L188 70L187 67M247 67L248 68L247 67M273 67L274 68L273 67z"/>
<path style="fill:#73b55c; stroke:none;" d="M294 67L295 68L294 67z"/>
<path style="fill:#b0d5a2; stroke:none;" d="M13 68L14 69L13 68M38 68L39 69L38 68z"/>
<path style="fill:#73b55c; stroke:none;" d="M122 68L123 69L122 68z"/>
<path style="fill:#96c784; stroke:none;" d="M131 68L132 69L131 68z"/>
<path style="fill:#73b55c; stroke:none;" d="M140 68L141 69L140 68z"/>
<path style="fill:#96c784; stroke:none;" d="M161 68L162 69L161 68z"/>
<path style="fill:#73b55c; stroke:none;" d="M247.333 68.6667L247.667 69.3333L247.333 68.6667M272.333 68.6667L272.667 69.3333L272.333 68.6667z"/>
<path style="fill:#96c784; stroke:none;" d="M293 68L294 69L293 68z"/>
<path style="fill:#b0d5a2; stroke:none;" d="M14 69L15 70L14 69M39 69L40 70L39 69z"/>
<path style="fill:#96c784; stroke:none;" d="M123 69L124 70L123 69z"/>
<path style="fill:#73b55c; stroke:none;" d="M132 69L133 70L132 69z"/>
<path style="fill:#96c784; stroke:none;" d="M141 69L142 70L141 69z"/>
<path style="fill:#73b55c; stroke:none;" d="M162 69L163 70L162 69M293 69L294 70L293 69z"/>
<path style="fill:#b0d5a2; stroke:none;" d="M15 70L16 71L15 70z"/>
<path style="fill:#96c784; stroke:none;" d="M40 70L41 71L40 70M124 70L125 71L124 70M132 70L133 71L132 70M162.333 70.6667L162.667 71.3333L162.333 70.6667z"/>
<path style="fill:#73b55c; stroke:none;" d="M187 70L188 71L187 70z"/>
<path style="fill:#96c784; stroke:none;" d="M246 70L246 73L247 73L246 70M272 70L273 71L272 70M292 70L293 71L292 70z"/>
<path style="fill:#b0d5a2; stroke:none;" d="M16 71L17 72L16 71z"/>
<path style="fill:#96c784; stroke:none;" d="M41 71L42 72L41 71z"/>
<path style="fill:#73b55c; stroke:none;" d="M124 71L125 72L124 71z"/>
<path style="fill:#96c784; stroke:none;" d="M133 71L134 72L133 71M142 71L143 72L142 71z"/>
<path style="fill:#73b55c; stroke:none;" d="M271 71L272 72L271 71M292 71L293 72L292 71z"/>
<path style="fill:#b0d5a2; stroke:none;" d="M17 72L18 73L17 72z"/>
<path style="fill:#96c784; stroke:none;" d="M42 72L43 73L42 72M125 72L126 73L125 72z"/>
<path style="fill:#73b55c; stroke:none;" d="M134 72L135 73L134 72z"/>
<path style="fill:#96c784; stroke:none;" d="M143 72L144 73L143 72z"/>
<path style="fill:#73b55c; stroke:none;" d="M163 72L164 73L163 72z"/>
<path style="fill:#96c784; stroke:none;" d="M188.333 72.6667L188.667 73.3333L188.333 72.6667M271.333 72.6667L271.667 73.3333L271.333 72.6667M291 72L292 73L291 72z"/>
<path style="fill:#73b55c; stroke:none;" d="M17 73L18 74L17 73z"/>
<path style="fill:#96c784; stroke:none;" d="M43 73L44 74L43 73z"/>
<path style="fill:#73b55c; stroke:none;" d="M125 73L126 74L125 73z"/>
<path style="fill:#96c784; stroke:none;" d="M134 73L135 74L134 73z"/>
<path style="fill:#73b55c; stroke:none;" d="M143 73L144 74L143 73z"/>
<path style="fill:#96c784; stroke:none;" d="M163 73L164 74L163 73z"/>
<path style="fill:#73b55c; stroke:none;" d="M246 73L247 74L246 73M291 73L292 74L291 73M18 74L19 75L18 74z"/>
<path style="fill:#96c784; stroke:none;" d="M44 74L45 75L44 74z"/>
<path style="fill:#73b55c; stroke:none;" d="M126 74L127 75L126 74M135 74L136 75L135 74z"/>
<path style="fill:#96c784; stroke:none;" d="M144 74L145 75L144 74z"/>
<path style="fill:#73b55c; stroke:none;" d="M188 74L189 75L188 74M270 74L271 75L270 74z"/>
<path style="fill:#96c784; stroke:none;" d="M290 74L291 75L290 74M299 74L300 75L299 74z"/>
<path style="fill:#73b55c; stroke:none;" d="M19 75L20 76L19 75z"/>
<path style="fill:#96c784; stroke:none;" d="M45 75L46 76L45 75M127 75L128 76L127 75M135 75L136 76L135 75z"/>
<path style="fill:#73b55c; stroke:none;" d="M144 75L145 76L144 75M164 75L165 76L164 75z"/>
<path style="fill:#96c784; stroke:none;" d="M245 75L246 76L245 75M270 75L271 76L270 75z"/>
<path style="fill:#73b55c; stroke:none;" d="M298 75L299 76L298 75z"/>
<path style="fill:#b0d5a2; stroke:none;" d="M299 75L252 145C267.843 133.809 280.919 113.66 292.14 98C297.056 91.1402 302.694 83.804 299 75z"/>
<path style="fill:#73b55c; stroke:none;" d="M20 76L21 77L20 76z"/>
<path style="fill:#96c784; stroke:none;" d="M46 76L47 77L46 76z"/>
<path style="fill:#73b55c; stroke:none;" d="M127 76L128 77L127 76z"/>
<path style="fill:#96c784; stroke:none;" d="M136 76L137 77L136 76M145 76L146 77L145 76M164 76L165 77L164 76M189.333 76.6667L189.667 77.3333L189.333 76.6667z"/>
<path style="fill:#73b55c; stroke:none;" d="M245.333 76.6667L245.667 77.3333L245.333 76.6667M269.333 76.6667L269.667 77.3333L269.333 76.6667z"/>
<path style="fill:#96c784; stroke:none;" d="M289 76L290 77L289 76M298 76L299 77L298 76z"/>
<path style="fill:#73b55c; stroke:none;" d="M21 77L22 78L21 77z"/>
<path style="fill:#96c784; stroke:none;" d="M47 77L48 78L47 77M128 77L129 78L128 77z"/>
<path style="fill:#73b55c; stroke:none;" d="M137 77L138 78L137 77M145 77L146 78L145 77M165 77L166 78L165 77M297 77L298 78L297 77M22 78L23 79L22 78z"/>
<path style="fill:#96c784; stroke:none;" d="M48 78L49 79L48 78M129 78L130 79L129 78M137 78L138 79L137 78M146 78L147 79L146 78M165 78L166 79L165 78z"/>
<path style="fill:#73b55c; stroke:none;" d="M189 78L190 79L189 78z"/>
<path style="fill:#96c784; stroke:none;" d="M269 78L270 79L269 78z"/>
<path style="fill:#73b55c; stroke:none;" d="M288 78L289 79L288 78M296 78L297 79L296 78M23 79L24 80L23 79z"/>
<path style="fill:#96c784; stroke:none;" d="M49 79L50 80L49 79z"/>
<path style="fill:#73b55c; stroke:none;" d="M129 79L130 80L129 79M138 79L139 80L138 79M146 79L147 80L146 79z"/>
<path style="fill:#96c784; stroke:none;" d="M244 79L245 80L244 79z"/>
<path style="fill:#73b55c; stroke:none;" d="M268 79L269 80L268 79z"/>
<path style="fill:#96c784; stroke:none;" d="M287 79L288 80L287 79M296 79L297 80L296 79M24 80L25 81L24 80M50 80L51 81L50 80M130 80L131 81L130 80M147 80L148 81L147 80z"/>
<path style="fill:#73b55c; stroke:none;" d="M166 80L167 81L166 80z"/>
<path style="fill:#96c784; stroke:none;" d="M190 80L191 81L190 80z"/>
<path style="fill:#73b55c; stroke:none;" d="M244.333 80.6667L244.667 81.3333L244.333 80.6667z"/>
<path style="fill:#96c784; stroke:none;" d="M268 80L269 81L268 80z"/>
<path style="fill:#73b55c; stroke:none;" d="M287 80L288 81L287 80M295 80L296 81L295 80M25 81L26 82L25 81z"/>
<path style="fill:#96c784; stroke:none;" d="M51 81L52 82L51 81M131 81L132 82L131 81M139 81L140 82L139 81z"/>
<path style="fill:#73b55c; stroke:none;" d="M147 81L148 82L147 81z"/>
<path style="fill:#96c784; stroke:none;" d="M166 81L167 82L166 81z"/>
<path style="fill:#73b55c; stroke:none;" d="M190.333 81.6667L190.667 82.3333L190.333 81.6667z"/>
<path style="fill:#96c784; stroke:none;" d="M286 81L287 82L286 81M295 81L296 82L295 81z"/>
<path style="fill:#73b55c; stroke:none;" d="M26 82L27 83L26 82z"/>
<path style="fill:#96c784; stroke:none;" d="M52 82L53 83L52 82z"/>
<path style="fill:#73b55c; stroke:none;" d="M131 82L132 83L131 82M140 82L141 83L140 82z"/>
<path style="fill:#96c784; stroke:none;" d="M148 82L149 83L148 82z"/>
<path style="fill:#73b55c; stroke:none;" d="M167 82L168 83L167 82z"/>
<path style="fill:#96c784; stroke:none;" d="M243.333 82.6667L243.667 83.3333L243.333 82.6667z"/>
<path style="fill:#73b55c; stroke:none;" d="M267 82L268 83L267 82M286 82L287 83L286 82z"/>
<path style="fill:#96c784; stroke:none;" d="M294 82L295 83L294 82z"/>
<path style="fill:#73b55c; stroke:none;" d="M27 83L28 84L27 83z"/>
<path style="fill:#96c784; stroke:none;" d="M53 83L54 84L53 83M132 83L133 84L132 83M140 83L141 84L140 83M149 83L150 84L149 83M167 83L168 84L167 83M191.333 83.6667L191.667 84.3333L191.333 83.6667M267 83L268 84L267 83M285 83L286 84L285 83z"/>
<path style="fill:#73b55c; stroke:none;" d="M293 83L294 84L293 83z"/>
<path style="fill:#96c784; stroke:none;" d="M28 84L29 85L28 84M54 84L55 85L54 84M133 84L134 85L133 84M141 84L142 85L141 84z"/>
<path style="fill:#73b55c; stroke:none;" d="M149 84L150 85L149 84M243.333 84.6667L243.667 85.3333L243.333 84.6667M266 84L267 85L266 84z"/>
<path style="fill:#96c784; stroke:none;" d="M293 84L294 85L293 84M29 85L30 86L29 85M55 85L56 86L55 85z"/>
<path style="fill:#73b55c; stroke:none;" d="M133 85L134 86L133 85M142 85L143 86L142 85z"/>
<path style="fill:#96c784; stroke:none;" d="M150 85L151 86L150 85z"/>
<path style="fill:#73b55c; stroke:none;" d="M168 85L169 86L168 85M191.333 85.6667L191.667 86.3333L191.333 85.6667z"/>
<path style="fill:#96c784; stroke:none;" d="M266 85L267 86L266 85M284 85L285 86L284 85z"/>
<path style="fill:#73b55c; stroke:none;" d="M292 85L293 86L292 85z"/>
<path style="fill:#96c784; stroke:none;" d="M30 86L31 87L30 86M56 86L57 87L56 86M134 86L135 87L134 86M142 86L143 87L142 86z"/>
<path style="fill:#73b55c; stroke:none;" d="M150 86L151 87L150 86z"/>
<path style="fill:#96c784; stroke:none;" d="M168 86L169 87L168 86M242.333 86.6667L242.667 87.3333L242.333 86.6667z"/>
<path style="fill:#73b55c; stroke:none;" d="M265.333 86.6667L265.667 87.3333L265.333 86.6667z"/>
<path style="fill:#96c784; stroke:none;" d="M283 86L284 87L283 86z"/>
<path style="fill:#73b55c; stroke:none;" d="M291 86L292 87L291 86z"/>
<path style="fill:#b0d5a2; stroke:none;" d="M0 87L1 88L0 87z"/>
<path style="fill:#73b55c; stroke:none;" d="M1 87L2 88L1 87z"/>
<path style="fill:#96c784; stroke:none;" d="M31 87L32 88L31 87M57 87L58 88L57 87M135 87L136 88L135 87z"/>
<path style="fill:#73b55c; stroke:none;" d="M143 87L144 88L143 87z"/>
<path style="fill:#96c784; stroke:none;" d="M151 87L152 88L151 87z"/>
<path style="fill:#73b55c; stroke:none;" d="M169 87L170 88L169 87z"/>
<path style="fill:#96c784; stroke:none;" d="M192.333 87.6667L192.667 88.3333L192.333 87.6667z"/>
<path style="fill:#73b55c; stroke:none;" d="M283 87L284 88L283 87z"/>
<path style="fill:#96c784; stroke:none;" d="M291 87L292 88L291 87M299 87L300 88L299 87M2 88L3 89L2 88M32 88L33 89L32 88M58 88L59 89L58 88z"/>
<path style="fill:#73b55c; stroke:none;" d="M135 88L136 89L135 88M144 88L145 89L144 88M151 88L152 89L151 88z"/>
<path style="fill:#96c784; stroke:none;" d="M169 88L170 89L169 88z"/>
<path style="fill:#73b55c; stroke:none;" d="M242.333 88.6667L242.667 89.3333L242.333 88.6667z"/>
<path style="fill:#96c784; stroke:none;" d="M265 88L266 89L265 88M282 88L283 89L282 88z"/>
<path style="fill:#73b55c; stroke:none;" d="M290 88L291 89L290 88z"/>
<path style="fill:#b0d5a2; stroke:none;" d="M3 89L4 90L3 89z"/>
<path style="fill:#96c784; stroke:none;" d="M33 89L34 90L33 89M59 89L60 90L59 89M136 89L137 90L136 89M144 89L145 90L144 89z"/>
<path style="fill:#73b55c; stroke:none;" d="M152 89L153 90L152 89M192 89L193 90L192 89M264 89L265 90L264 89M282 89L283 90L282 89z"/>
<path style="fill:#96c784; stroke:none;" d="M290 89L291 90L290 89z"/>
<path style="fill:#73b55c; stroke:none;" d="M298 89L299 90L298 89z"/>
<path style="fill:#b0d5a2; stroke:none;" d="M4 90L5 91L4 90z"/>
<path style="fill:#96c784; stroke:none;" d="M34 90L35 91L34 90M60 90L61 91L60 90M137 90L138 91L137 90z"/>
<path style="fill:#73b55c; stroke:none;" d="M145 90L146 91L145 90z"/>
<path style="fill:#96c784; stroke:none;" d="M153 90L154 91L153 90z"/>
<path style="fill:#73b55c; stroke:none;" d="M170 90L171 91L170 90z"/>
<path style="fill:#96c784; stroke:none;" d="M241.333 90.6667L241.667 91.3333L241.333 90.6667M264 90L265 91L264 90M281 90L282 91L281 90M289 90L290 91L289 90M297 90L298 91L297 90z"/>
<path style="fill:#b0d5a2; stroke:none;" d="M5 91L6 92L5 91z"/>
<path style="fill:#73b55c; stroke:none;" d="M6 91L7 92L6 91z"/>
<path style="fill:#96c784; stroke:none;" d="M35 91L36 92L35 91M61 91L62 92L61 91z"/>
<path style="fill:#73b55c; stroke:none;" d="M137 91L138 92L137 91z"/>
<path style="fill:#96c784; stroke:none;" d="M145 91L146 92L145 91z"/>
<path style="fill:#73b55c; stroke:none;" d="M153 91L154 92L153 91z"/>
<path style="fill:#96c784; stroke:none;" d="M170 91L171 92L170 91M193.333 91.6667L193.667 92.3333L193.333 91.6667z"/>
<path style="fill:#73b55c; stroke:none;" d="M263 91L264 92L263 91M288 91L289 92L288 91z"/>
<path style="fill:#96c784; stroke:none;" d="M296 91L297 92L296 91z"/>
<path style="fill:#73b55c; stroke:none;" d="M7 92L8 93L7 92z"/>
<path style="fill:#96c784; stroke:none;" d="M36 92L37 93L36 92M62 92L63 93L62 92M138 92L139 93L138 92M146 92L147 93L146 92M154 92L155 93L154 92z"/>
<path style="fill:#73b55c; stroke:none;" d="M171 92L172 93L171 92M241 92L242 93L241 92z"/>
<path style="fill:#96c784; stroke:none;" d="M263 92L264 93L263 92z"/>
<path style="fill:#73b55c; stroke:none;" d="M280 92L281 93L280 92z"/>
<path style="fill:#96c784; stroke:none;" d="M288 92L289 93L288 92z"/>
<path style="fill:#73b55c; stroke:none;" d="M296 92L297 93L296 92M8 93L9 94L8 93z"/>
<path style="fill:#96c784; stroke:none;" d="M37 93L38 94L37 93M63 93L64 94L63 93M139 93L140 94L139 93z"/>
<path style="fill:#73b55c; stroke:none;" d="M147 93L148 94L147 93M154 93L155 94L154 93z"/>
<path style="fill:#96c784; stroke:none;" d="M171 93L172 94L171 93z"/>
<path style="fill:#73b55c; stroke:none;" d="M193 93L194 94L193 93z"/>
<path style="fill:#96c784; stroke:none;" d="M279 93L280 94L279 93M287 93L288 94L287 93M295 93L296 94L295 93M9 94L10 95L9 94M38 94L39 95L38 94M64 94L65 95L64 94z"/>
<path style="fill:#73b55c; stroke:none;" d="M139 94L140 95L139 94z"/>
<path style="fill:#96c784; stroke:none;" d="M147 94L148 95L147 94M155 94L156 95L155 94z"/>
<path style="fill:#73b55c; stroke:none;" d="M172 94L173 95L172 94z"/>
<path style="fill:#96c784; stroke:none;" d="M240 94L241 95L240 94z"/>
<path style="fill:#73b55c; stroke:none;" d="M262 94L263 95L262 94M279 94L280 95L279 94M286 94L287 95L286 94z"/>
<path style="fill:#96c784; stroke:none;" d="M294 94L295 95L294 94M10 95L11 96L10 95M39 95L40 96L39 95M65 95L66 96L65 95z"/>
<path style="fill:#73b55c; stroke:none;" d="M140 95L141 96L140 95z"/>
<path style="fill:#96c784; stroke:none;" d="M148 95L149 96L148 95M156 95L157 96L156 95M172.333 95.6667L172.667 96.3333L172.333 95.6667M194 95L195 96L194 95z"/>
<path style="fill:#73b55c; stroke:none;" d="M240.333 95.6667L240.667 96.3333L240.333 95.6667z"/>
<path style="fill:#96c784; stroke:none;" d="M262 95L263 96L262 95M278 95L279 96L278 95M286 95L287 96L286 95z"/>
<path style="fill:#73b55c; stroke:none;" d="M294 95L295 96L294 95z"/>
<path style="fill:#96c784; stroke:none;" d="M11 96L12 97L11 96M40 96L41 97L40 96M66 96L67 97L66 96M141 96L142 97L141 96z"/>
<path style="fill:#73b55c; stroke:none;" d="M149 96L150 97L149 96M156 96L157 97L156 96M194.333 96.6667L194.667 97.3333L194.333 96.6667M261 96L262 97L261 96z"/>
<path style="fill:#96c784; stroke:none;" d="M285 96L286 97L285 96z"/>
<path style="fill:#73b55c; stroke:none;" d="M293 96L294 97L293 96z"/>
<path style="fill:#96c784; stroke:none;" d="M12 97L13 98L12 97M41 97L42 98L41 97M67 97L68 98L67 97M142 97L143 98L142 97M149 97L150 98L149 97M157 97L158 98L157 97z"/>
<path style="fill:#73b55c; stroke:none;" d="M173 97L174 98L173 97z"/>
<path style="fill:#96c784; stroke:none;" d="M239.333 97.6667L239.667 98.3333L239.333 97.6667M261 97L262 98L261 97z"/>
<path style="fill:#73b55c; stroke:none;" d="M277 97L278 98L277 97M284 97L285 98L284 97z"/>
<path style="fill:#96c784; stroke:none;" d="M292 97L293 98L292 97M13 98L14 99L13 98M42 98L43 99L42 98M68 98L69 99L68 98z"/>
<path style="fill:#73b55c; stroke:none;" d="M142 98L143 99L142 98z"/>
<path style="fill:#96c784; stroke:none;" d="M150 98L151 99L150 98z"/>
<path style="fill:#73b55c; stroke:none;" d="M157 98L158 99L157 98z"/>
<path style="fill:#96c784; stroke:none;" d="M173 98L174 99L173 98M195.333 98.6667L195.667 99.3333L195.333 98.6667z"/>
<path style="fill:#73b55c; stroke:none;" d="M260 98L261 99L260 98z"/>
<path style="fill:#96c784; stroke:none;" d="M276 98L277 99L276 98M284 98L285 99L284 98M291 98L292 99L291 98z"/>
<path style="fill:#b0d5a2; stroke:none;" d="M14 99L15 100L14 99z"/>
<path style="fill:#96c784; stroke:none;" d="M43 99L44 100L43 99M69 99L70 100L69 99M143 99L144 100L143 99z"/>
<path style="fill:#73b55c; stroke:none;" d="M151 99L152 100L151 99z"/>
<path style="fill:#96c784; stroke:none;" d="M158 99L159 100L158 99z"/>
<path style="fill:#73b55c; stroke:none;" d="M174 99L175 100L174 99M239 99L240 100L239 99z"/>
<path style="fill:#96c784; stroke:none;" d="M260.333 99.6667L260.667 100.333L260.333 99.6667z"/>
<path style="fill:#73b55c; stroke:none;" d="M276 99L277 100L276 99M283 99L284 100L283 99M291 99L292 100L291 99z"/>
<path style="fill:#b0d5a2; stroke:none;" d="M15 100L16 101L15 100z"/>
<path style="fill:#96c784; stroke:none;" d="M44 100L45 101L44 100M70 100L71 101L70 100M144 100L145 101L144 100M151 100L152 101L151 100M159 100L160 101L159 100M174 100L175 101L174 100z"/>
<path style="fill:#73b55c; stroke:none;" d="M195.333 100.667L195.667 101.333L195.333 100.667z"/>
<path style="fill:#96c784; stroke:none;" d="M275 100L276 101L275 100z"/>
<path style="fill:#73b55c; stroke:none;" d="M282 100L283 101L282 100z"/>
<path style="fill:#96c784; stroke:none;" d="M290 100L291 101L290 100z"/>
<path style="fill:#b0d5a2; stroke:none;" d="M16 101L17 102L16 101z"/>
<path style="fill:#96c784; stroke:none;" d="M45 101L46 102L45 101M71 101L72 102L71 101z"/>
<path style="fill:#73b55c; stroke:none;" d="M144 101L145 102L144 101M152 101L153 102L152 101M159 101L160 102L159 101M175 101L176 102L175 101z"/>
<path style="fill:#96c784; stroke:none;" d="M238.333 101.667L238.667 102.333L238.333 101.667z"/>
<path style="fill:#73b55c; stroke:none;" d="M259 101L260 102L259 101M275 101L276 102L275 101z"/>
<path style="fill:#96c784; stroke:none;" d="M282 101L283 102L282 101M289 101L290 102L289 101z"/>
<path style="fill:#b0d5a2; stroke:none;" d="M17 102L18 103L17 102z"/>
<path style="fill:#96c784; stroke:none;" d="M46 102L47 103L46 102M72 102L73 103L72 102z"/>
<path style="fill:#73b55c; stroke:none;" d="M145 102L146 103L145 102M153 102L154 103L153 102z"/>
<path style="fill:#96c784; stroke:none;" d="M160 102L161 103L160 102M175 102L176 103L175 102M196.333 102.667L196.667 103.333L196.333 102.667M259 102L260 103L259 102z"/>
<path style="fill:#73b55c; stroke:none;" d="M274 102L275 103L274 102M281 102L282 103L281 102z"/>
<path style="fill:#b0d5a2; stroke:none;" d="M18 103L19 104L18 103z"/>
<path style="fill:#73b55c; stroke:none;" d="M47 103L48 104L47 103z"/>
<path style="fill:#96c784; stroke:none;" d="M73 103L74 104L73 103M146 103L147 104L146 103M153 103L154 104L153 103z"/>
<path style="fill:#73b55c; stroke:none;" d="M160 103L161 104L160 103M238 103L239 104L238 103M258 103L259 104L258 103z"/>
<path style="fill:#96c784; stroke:none;" d="M273 103L274 104L273 103z"/>
<path style="fill:#73b55c; stroke:none;" d="M280 103L281 104L280 103M288 103L289 104L288 103z"/>
<path style="fill:#b0d5a2; stroke:none;" d="M19 104L20 105L19 104z"/>
<path style="fill:#73b55c; stroke:none;" d="M48 104L49 105L48 104z"/>
<path style="fill:#96c784; stroke:none;" d="M74 104L75 105L74 104M147 104L148 105L147 104M154 104L155 105L154 104z"/>
<path style="fill:#73b55c; stroke:none;" d="M161 104L162 105L161 104M176 104L177 105L176 104M196 104L197 105L196 104z"/>
<path style="fill:#96c784; stroke:none;" d="M237.333 104.667L237.667 105.333L237.333 104.667M258 104L259 105L258 104z"/>
<path style="fill:#73b55c; stroke:none;" d="M273 104L274 105L273 104z"/>
<path style="fill:#96c784; stroke:none;" d="M280 104L281 105L280 104M287 104L288 105L287 104z"/>
<path style="fill:#b0d5a2; stroke:none;" d="M20 105L21 106L20 105z"/>
<path style="fill:#73b55c; stroke:none;" d="M49 105L50 106L49 105z"/>
<path style="fill:#96c784; stroke:none;" d="M75 105L76 106L75 105z"/>
<path style="fill:#73b55c; stroke:none;" d="M147 105L148 106L147 105M155 105L156 106L155 105z"/>
<path style="fill:#96c784; stroke:none;" d="M162 105L163 106L162 105M176 105L177 106L176 105z"/>
<path style="fill:#73b55c; stroke:none;" d="M257 105L258 106L257 105z"/>
<path style="fill:#96c784; stroke:none;" d="M272 105L273 106L272 105z"/>
<path style="fill:#73b55c; stroke:none;" d="M279 105L280 106L279 105z"/>
<path style="fill:#96c784; stroke:none;" d="M286 105L287 106L286 105z"/>
<path style="fill:#b0d5a2; stroke:none;" d="M21 106L22 107L21 106z"/>
<path style="fill:#73b55c; stroke:none;" d="M50 106L51 107L50 106z"/>
<path style="fill:#96c784; stroke:none;" d="M76 106L77 107L76 106z"/>
<path style="fill:#73b55c; stroke:none;" d="M148 106L149 107L148 106z"/>
<path style="fill:#96c784; stroke:none;" d="M155 106L156 107L155 106z"/>
<path style="fill:#73b55c; stroke:none;" d="M162 106L163 107L162 106M177 106L178 107L177 106z"/>
<path style="fill:#96c784; stroke:none;" d="M197 106L198 107L197 106z"/>
<path style="fill:#73b55c; stroke:none;" d="M237.333 106.667L237.667 107.333L237.333 106.667z"/>
<path style="fill:#96c784; stroke:none;" d="M257 106L258 107L257 106M271 106L272 107L271 106z"/>
<path style="fill:#73b55c; stroke:none;" d="M278 106L279 107L278 106z"/>
<path style="fill:#b0d5a2; stroke:none;" d="M22 107L23 108L22 107z"/>
<path style="fill:#73b55c; stroke:none;" d="M51 107L52 108L51 107z"/>
<path style="fill:#96c784; stroke:none;" d="M77 107L78 108L77 107M149 107L150 108L149 107M156 107L157 108L156 107M163 107L164 108L163 107M177 107L178 108L177 107z"/>
<path style="fill:#73b55c; stroke:none;" d="M197.333 107.667L197.667 108.333L197.333 107.667M256.333 107.667L256.667 108.333L256.333 107.667M271 107L272 108L271 107z"/>
<path style="fill:#96c784; stroke:none;" d="M278 107L279 108L278 107z"/>
<path style="fill:#73b55c; stroke:none;" d="M285 107L286 108L285 107z"/>
<path style="fill:#b0d5a2; stroke:none;" d="M23 108L24 109L23 108z"/>
<path style="fill:#73b55c; stroke:none;" d="M52 108L53 109L52 108z"/>
<path style="fill:#96c784; stroke:none;" d="M78 108L79 109L78 108M150 108L151 109L150 108z"/>
<path style="fill:#73b55c; stroke:none;" d="M157 108L158 109L157 108z"/>
<path style="fill:#96c784; stroke:none;" d="M164 108L165 109L164 108z"/>
<path style="fill:#73b55c; stroke:none;" d="M178 108L179 109L178 108z"/>
<path style="fill:#96c784; stroke:none;" d="M236.333 108.667L236.667 109.333L236.333 108.667M270 108L271 109L270 108z"/>
<path style="fill:#73b55c; stroke:none;" d="M277 108L278 109L277 108M284 108L285 109L284 108M25 109L26 110L25 109M53 109L54 110L53 109z"/>
<path style="fill:#96c784; stroke:none;" d="M79 109L80 110L79 109M151 109L152 110L151 109M157 109L158 110L157 109z"/>
<path style="fill:#73b55c; stroke:none;" d="M164 109L165 110L164 109z"/>
<path style="fill:#96c784; stroke:none;" d="M178 109L179 110L178 109M198.333 109.667L198.667 110.333L198.333 109.667M256 109L257 110L256 109z"/>
<path style="fill:#73b55c; stroke:none;" d="M270 109L271 110L270 109M276 109L277 110L276 109z"/>
<path style="fill:#96c784; stroke:none;" d="M283 109L284 110L283 109z"/>
<path style="fill:#73b55c; stroke:none;" d="M26 110L27 111L26 110M54 110L55 111L54 110z"/>
<path style="fill:#96c784; stroke:none;" d="M80 110L81 111L80 110z"/>
<path style="fill:#73b55c; stroke:none;" d="M151 110L152 111L151 110z"/>
<path style="fill:#96c784; stroke:none;" d="M158 110L159 111L158 110M165 110L166 111L165 110z"/>
<path style="fill:#73b55c; stroke:none;" d="M179 110L180 111L179 110M236 110L237 111L236 110M255 110L256 111L255 110M269 110L270 111L269 110z"/>
<path style="fill:#96c784; stroke:none;" d="M276 110L277 111L276 110M282 110L283 111L282 110z"/>
<path style="fill:#73b55c; stroke:none;" d="M27 111L28 112L27 111M55 111L56 112L55 111z"/>
<path style="fill:#96c784; stroke:none;" d="M81 111L82 112L81 111z"/>
<path style="fill:#73b55c; stroke:none;" d="M152 111L153 112L152 111M159 111L160 112L159 111M165 111L166 112L165 111z"/>
<path style="fill:#96c784; stroke:none;" d="M179 111L180 112L179 111z"/>
<path style="fill:#73b55c; stroke:none;" d="M198 111L199 112L198 111z"/>
<path style="fill:#96c784; stroke:none;" d="M255 111L256 112L255 111M268 111L269 112L268 111M275 111L276 112L275 111z"/>
<path style="fill:#73b55c; stroke:none;" d="M282 111L283 112L282 111M28 112L29 113L28 112M56 112L57 113L56 112z"/>
<path style="fill:#96c784; stroke:none;" d="M82 112L83 113L82 112M153 112L154 113L153 112M159 112L160 113L159 112z"/>
<path style="fill:#73b55c; stroke:none;" d="M166 112L167 113L166 112z"/>
<path style="fill:#96c784; stroke:none;" d="M235 112L236 113L235 112z"/>
<path style="fill:#73b55c; stroke:none;" d="M254 112L255 113L254 112M268 112L269 113L268 112M274 112L275 113L274 112M281 112L282 113L281 112M29 113L30 114L29 113M57 113L58 114L57 113z"/>
<path style="fill:#96c784; stroke:none;" d="M83 113L84 114L83 113M154 113L155 114L154 113M160 113L161 114L160 113M167 113L168 114L167 113M180 113L181 114L180 113M199 113L200 114L199 113z"/>
<path style="fill:#73b55c; stroke:none;" d="M235.333 113.667L235.667 114.333L235.333 113.667z"/>
<path style="fill:#96c784; stroke:none;" d="M254 113L255 114L254 113z"/>
<path style="fill:#73b55c; stroke:none;" d="M267 113L268 114L267 113z"/>
<path style="fill:#96c784; stroke:none;" d="M274 113L275 114L274 113M280 113L281 114L280 113z"/>
<path style="fill:#73b55c; stroke:none;" d="M30 114L31 115L30 114M58 114L59 115L58 114z"/>
<path style="fill:#b0d5a2; stroke:none;" d="M84 114L85 115L84 114z"/>
<path style="fill:#73b55c; stroke:none;" d="M154 114L155 115L154 114M161 114L162 115L161 114M167 114L168 115L167 114M199.333 114.667L199.667 115.333L199.333 114.667M253 114L254 115L253 114z"/>
<path style="fill:#96c784; stroke:none;" d="M266 114L267 115L266 114M273 114L274 115L273 114M279 114L280 115L279 114z"/>
<path style="fill:#73b55c; stroke:none;" d="M31 115L32 116L31 115M59 115L60 116L59 115z"/>
<path style="fill:#b0d5a2; stroke:none;" d="M85 115L86 116L85 115z"/>
<path style="fill:#73b55c; stroke:none;" d="M155 115L156 116L155 115z"/>
<path style="fill:#96c784; stroke:none;" d="M161 115L162 116L161 115z"/>
<path style="fill:#73b55c; stroke:none;" d="M168 115L169 116L168 115M181 115L182 116L181 115z"/>
<path style="fill:#96c784; stroke:none;" d="M234.333 115.667L234.667 116.333L234.333 115.667M253 115L254 116L253 115z"/>
<path style="fill:#73b55c; stroke:none;" d="M266 115L267 116L266 115M272 115L273 116L272 115z"/>
<path style="fill:#96c784; stroke:none;" d="M278 115L279 116L278 115z"/>
<path style="fill:#73b55c; stroke:none;" d="M32 116L33 117L32 116M60 116L61 117L60 116z"/>
<path style="fill:#b0d5a2; stroke:none;" d="M86 116L87 117L86 116z"/>
<path style="fill:#73b55c; stroke:none;" d="M156 116L157 117L156 116z"/>
<path style="fill:#96c784; stroke:none;" d="M162 116L163 117L162 116M169 116L170 117L169 116M181 116L182 117L181 116M200.333 116.667L200.667 117.333L200.333 116.667z"/>
<path style="fill:#73b55c; stroke:none;" d="M252 116L253 117L252 116M265 116L266 117L265 116z"/>
<path style="fill:#96c784; stroke:none;" d="M272 116L273 117L272 116z"/>
<path style="fill:#73b55c; stroke:none;" d="M278 116L279 117L278 116M33 117L34 118L33 117M61 117L62 118L61 117z"/>
<path style="fill:#b0d5a2; stroke:none;" d="M87 117L88 118L87 117z"/>
<path style="fill:#96c784; stroke:none;" d="M157 117L158 118L157 117z"/>
<path style="fill:#73b55c; stroke:none;" d="M163 117L164 118L163 117M169 117L170 118L169 117M182 117L183 118L182 117M234.333 117.667L234.667 118.333L234.333 117.667z"/>
<path style="fill:#96c784; stroke:none;" d="M252 117L253 118L252 117M264 117L265 118L264 117M271 117L272 118L271 117z"/>
<path style="fill:#73b55c; stroke:none;" d="M277 117L278 118L277 117M34 118L35 119L34 118M62 118L63 119L62 118z"/>
<path style="fill:#b0d5a2; stroke:none;" d="M88 118L89 119L88 118z"/>
<path style="fill:#96c784; stroke:none;" d="M158 118L159 119L158 118z"/>
<path style="fill:#73b55c; stroke:none;" d="M170 118L171 119L170 118z"/>
<path style="fill:#96c784; stroke:none;" d="M182 118L183 119L182 118z"/>
<path style="fill:#73b55c; stroke:none;" d="M200.333 118.667L200.667 119.333L200.333 118.667M251 118L252 119L251 118M264 118L265 119L264 118M270 118L271 119L270 118z"/>
<path style="fill:#96c784; stroke:none;" d="M276 118L277 119L276 118z"/>
<path style="fill:#73b55c; stroke:none;" d="M35 119L36 120L35 119M63 119L64 120L63 119z"/>
<path style="fill:#b0d5a2; stroke:none;" d="M89 119L90 120L89 119z"/>
<path style="fill:#96c784; stroke:none;" d="M159 119L160 120L159 119M164 119L165 120L164 119M171 119L172 120L171 119z"/>
<path style="fill:#73b55c; stroke:none;" d="M183 119L184 120L183 119z"/>
<path style="fill:#96c784; stroke:none;" d="M233.333 119.667L233.667 120.333L233.333 119.667M251 119L252 120L251 119z"/>
<path style="fill:#73b55c; stroke:none;" d="M263 119L264 120L263 119z"/>
<path style="fill:#96c784; stroke:none;" d="M275 119L276 120L275 119z"/>
<path style="fill:#73b55c; stroke:none;" d="M36 120L37 121L36 120M64 120L65 121L64 120z"/>
<path style="fill:#b0d5a2; stroke:none;" d="M90 120L91 121L90 120z"/>
<path style="fill:#73b55c; stroke:none;" d="M159 120L160 121L159 120M165 120L166 121L165 120z"/>
<path style="fill:#96c784; stroke:none;" d="M183 120L184 121L183 120M201.333 120.667L201.667 121.333L201.333 120.667z"/>
<path style="fill:#73b55c; stroke:none;" d="M250 120L251 121L250 120z"/>
<path style="fill:#96c784; stroke:none;" d="M262 120L263 121L262 120M269 120L270 121L269 120M274 120L275 121L274 120z"/>
<path style="fill:#73b55c; stroke:none;" d="M37 121L38 122L37 121M65 121L66 122L65 121z"/>
<path style="fill:#b0d5a2; stroke:none;" d="M91 121L92 122L91 121z"/>
<path style="fill:#73b55c; stroke:none;" d="M160 121L161 122L160 121M166 121L167 122L166 121M172 121L173 122L172 121M184 121L185 122L184 121M233 121L234 122L233 121z"/>
<path style="fill:#96c784; stroke:none;" d="M250 121L251 122L250 121z"/>
<path style="fill:#73b55c; stroke:none;" d="M262 121L263 122L262 121M268 121L269 122L268 121M274 121L275 122L274 121M38 122L39 123L38 122M66 122L67 123L66 122z"/>
<path style="fill:#b0d5a2; stroke:none;" d="M92 122L93 123L92 122z"/>
<path style="fill:#73b55c; stroke:none;" d="M161 122L162 123L161 122z"/>
<path style="fill:#96c784; stroke:none;" d="M166 122L167 123L166 122M173 122L174 123L173 122M184 122L185 123L184 122z"/>
<path style="fill:#73b55c; stroke:none;" d="M201 122L202 123L201 122M261 122L262 123L261 122M267 122L268 123L267 122M273 122L274 123L273 122M39 123L40 124L39 123M67 123L68 124L67 123z"/>
<path style="fill:#b0d5a2; stroke:none;" d="M93 123L94 124L93 123z"/>
<path style="fill:#96c784; stroke:none;" d="M162 123L163 124L162 123M167 123L168 124L167 123M174 123L175 124L174 123z"/>
<path style="fill:#73b55c; stroke:none;" d="M185 123L186 124L185 123z"/>
<path style="fill:#96c784; stroke:none;" d="M232.333 123.667L232.667 124.333L232.333 123.667M249 123L250 124L249 123M260 123L261 124L260 123M267 123L268 124L267 123z"/>
<path style="fill:#73b55c; stroke:none;" d="M272 123L273 124L272 123M40 124L41 125L40 124M68 124L69 125L68 124z"/>
<path style="fill:#b0d5a2; stroke:none;" d="M94 124L95 125L94 124z"/>
<path style="fill:#96c784; stroke:none;" d="M163 124L164 125L163 124z"/>
<path style="fill:#73b55c; stroke:none;" d="M168 124L169 125L168 124M174 124L175 125L174 124z"/>
<path style="fill:#96c784; stroke:none;" d="M185 124L186 125L185 124M202.333 124.667L202.667 125.333L202.333 124.667M259 124L260 125L259 124M266 124L267 125L266 124z"/>
<path style="fill:#73b55c; stroke:none;" d="M271 124L272 125L271 124M41 125L42 126L41 125M69 125L70 126L69 125z"/>
<path style="fill:#b0d5a2; stroke:none;" d="M95 125L96 126L95 125z"/>
<path style="fill:#96c784; stroke:none;" d="M164 125L165 126L164 125M168 125L169 126L168 125M175 125L176 126L175 125z"/>
<path style="fill:#73b55c; stroke:none;" d="M186 125L187 126L186 125M232 125L233 126L232 125z"/>
<path style="fill:#96c784; stroke:none;" d="M248 125L249 126L248 125z"/>
<path style="fill:#73b55c; stroke:none;" d="M259 125L260 126L259 125M265 125L266 126L265 125z"/>
<path style="fill:#96c784; stroke:none;" d="M270 125L271 126L270 125z"/>
<path style="fill:#73b55c; stroke:none;" d="M42 126L43 127L42 126M70 126L71 127L70 126z"/>
<path style="fill:#b0d5a2; stroke:none;" d="M96 126L97 127L96 126z"/>
<path style="fill:#73b55c; stroke:none;" d="M164 126L165 127L164 126z"/>
<path style="fill:#96c784; stroke:none;" d="M169 126L170 127L169 126M176 126L177 127L176 126M186 126L187 127L186 126z"/>
<path style="fill:#73b55c; stroke:none;" d="M202 126L203 127L202 126z"/>
<path style="fill:#96c784; stroke:none;" d="M258 126L259 127L258 126M265 126L266 127L265 126M269 126L270 127L269 126z"/>
<path style="fill:#73b55c; stroke:none;" d="M43 127L44 128L43 127M71 127L72 128L71 127z"/>
<path style="fill:#b0d5a2; stroke:none;" d="M97 127L98 128L97 127z"/>
<path style="fill:#73b55c; stroke:none;" d="M165 127L166 128L165 127M170 127L171 128L170 127M176 127L177 128L176 127M187 127L188 128L187 127z"/>
<path style="fill:#96c784; stroke:none;" d="M231 127L232 128L231 127M247 127L248 128L247 127M257 127L258 128L257 127M264 127L265 128L264 127M268 127L269 128L268 127z"/>
<path style="fill:#73b55c; stroke:none;" d="M44 128L45 129L44 128M72 128L73 129L72 128z"/>
<path style="fill:#b0d5a2; stroke:none;" d="M98 128L99 129L98 128z"/>
<path style="fill:#73b55c; stroke:none;" d="M166 128L167 129L166 128M171 128L172 129L171 128M177 128L178 129L177 128z"/>
<path style="fill:#96c784; stroke:none;" d="M187 128L188 129L187 128M203 128L204 129L203 128z"/>
<path style="fill:#73b55c; stroke:none;" d="M231.333 128.667L231.667 129.333L231.333 128.667M257 128L258 129L257 128M263 128L264 129L263 128M268 128L269 129L268 128M45 129L46 130L45 129M73 129L74 130L73 129z"/>
<path style="fill:#b0d5a2; stroke:none;" d="M99 129L100 130L99 129z"/>
<path style="fill:#73b55c; stroke:none;" d="M167 129L168 130L167 129z"/>
<path style="fill:#96c784; stroke:none;" d="M171 129L172 130L171 129M178 129L179 130L178 129z"/>
<path style="fill:#73b55c; stroke:none;" d="M188 129L189 130L188 129M203.333 129.667L203.667 130.333L203.333 129.667z"/>
<path style="fill:#96c784; stroke:none;" d="M246 129L247 130L246 129z"/>
<path style="fill:#73b55c; stroke:none;" d="M256 129L257 130L256 129M262 129L263 130L262 129M267 129L268 130L267 129M46 130L47 131L46 130M74 130L75 131L74 130z"/>
<path style="fill:#b0d5a2; stroke:none;" d="M100 130L101 131L100 130z"/>
<path style="fill:#96c784; stroke:none;" d="M168 130L169 131L168 130M172 130L173 131L172 130M179 130L180 131L179 130M188 130L189 131L188 130M230.333 130.667L230.667 131.333L230.333 130.667M255 130L256 131L255 130M262 130L263 131L262 130z"/>
<path style="fill:#73b55c; stroke:none;" d="M266 130L267 131L266 130M47 131L48 132L47 131M75 131L76 132L75 131z"/>
<path style="fill:#b0d5a2; stroke:none;" d="M101 131L102 132L101 131z"/>
<path style="fill:#96c784; stroke:none;" d="M169 131L170 132L169 131z"/>
<path style="fill:#73b55c; stroke:none;" d="M173 131L174 132L173 131M179 131L180 132L179 131M189 131L190 132L189 131z"/>
<path style="fill:#96c784; stroke:none;" d="M204.333 131.667L204.667 132.333L204.333 131.667M245 131L246 132L245 131M254 131L255 132L254 131M261 131L262 132L261 131z"/>
<path style="fill:#73b55c; stroke:none;" d="M265 131L266 132L265 131M48 132L49 133L48 132M76 132L77 133L76 132z"/>
<path style="fill:#b0d5a2; stroke:none;" d="M102 132L103 133L102 132z"/>
<path style="fill:#96c784; stroke:none;" d="M170 132L171 133L170 132M173 132L174 133L173 132z"/>
<path style="fill:#73b55c; stroke:none;" d="M180 132L181 133L180 132z"/>
<path style="fill:#96c784; stroke:none;" d="M189 132L190 133L189 132z"/>
<path style="fill:#73b55c; stroke:none;" d="M230 132L231 133L230 132M254 132L255 133L254 132M260 132L261 133L260 132z"/>
<path style="fill:#96c784; stroke:none;" d="M264 132L265 133L264 132z"/>
<path style="fill:#73b55c; stroke:none;" d="M49 133L50 134L49 133M77 133L78 134L77 133z"/>
<path style="fill:#b0d5a2; stroke:none;" d="M103 133L104 134L103 133z"/>
<path style="fill:#96c784; stroke:none;" d="M171 133L172 134L171 133M174 133L175 134L174 133M181 133L182 134L181 133z"/>
<path style="fill:#73b55c; stroke:none;" d="M190 133L191 134L190 133M204.333 133.667L204.667 134.333L204.333 133.667z"/>
<path style="fill:#96c784; stroke:none;" d="M244 133L245 134L244 133z"/>
<path style="fill:#73b55c; stroke:none;" d="M253 133L254 134L253 133z"/>
<path style="fill:#96c784; stroke:none;" d="M260 133L261 134L260 133M263 133L264 134L263 133M50 134L51 135L50 134z"/>
<path style="fill:#73b55c; stroke:none;" d="M78 134L79 135L78 134z"/>
<path style="fill:#b0d5a2; stroke:none;" d="M104 134L105 135L104 134z"/>
<path style="fill:#73b55c; stroke:none;" d="M171 134L172 135L171 134M175 134L176 135L175 134z"/>
<path style="fill:#96c784; stroke:none;" d="M182 134L183 135L182 134M190 134L191 135L190 134M229.333 134.667L229.667 135.333L229.333 134.667M252 134L253 135L252 134M259 134L260 135L259 134M262 134L263 135L262 134z"/>
<path style="fill:#73b55c; stroke:none;" d="M51 135L52 136L51 135M79 135L80 136L79 135z"/>
<path style="fill:#b0d5a2; stroke:none;" d="M105 135L106 136L105 135z"/>
<path style="fill:#73b55c; stroke:none;" d="M172 135L173 136L172 135M176 135L177 136L176 135M182 135L183 136L182 135M191 135L192 136L191 135z"/>
<path style="fill:#96c784; stroke:none;" d="M205.333 135.667L205.667 136.333L205.333 135.667M243 135L244 136L243 135M251 135L252 136L251 135z"/>
<path style="fill:#73b55c; stroke:none;" d="M258 135L259 136L258 135z"/>
<path style="fill:#96c784; stroke:none;" d="M261 135L260 137L261 135M52 136L53 137L52 136z"/>
<path style="fill:#73b55c; stroke:none;" d="M80 136L81 137L80 136z"/>
<path style="fill:#b0d5a2; stroke:none;" d="M106 136L107 137L106 136z"/>
<path style="fill:#73b55c; stroke:none;" d="M173 136L174 137L173 136z"/>
<path style="fill:#96c784; stroke:none;" d="M176 136L177 137L176 136z"/>
<path style="fill:#73b55c; stroke:none;" d="M183 136L184 137L183 136z"/>
<path style="fill:#96c784; stroke:none;" d="M191 136L192 137L191 136z"/>
<path style="fill:#73b55c; stroke:none;" d="M229.333 136.667L229.667 137.333L229.333 136.667M242 136L243 137L242 136M251 136L252 137L251 136M257 136L258 137L257 136M261 136L262 137L261 136z"/>
<path style="fill:#96c784; stroke:none;" d="M53 137L54 138L53 137z"/>
<path style="fill:#73b55c; stroke:none;" d="M81 137L82 138L81 137z"/>
<path style="fill:#b0d5a2; stroke:none;" d="M107 137L108 138L107 137z"/>
<path style="fill:#73b55c; stroke:none;" d="M174 137L175 138L174 137z"/>
<path style="fill:#96c784; stroke:none;" d="M177 137L178 138L177 137M184 137L185 138L184 137z"/>
<path style="fill:#73b55c; stroke:none;" d="M192 137L193 138L192 137M205 137L206 138L205 137z"/>
<path style="fill:#96c784; stroke:none;" d="M242 137L243 138L242 137z"/>
<path style="fill:#73b55c; stroke:none;" d="M250 137L251 138L250 137z"/>
<path style="fill:#96c784; stroke:none;" d="M257 137L258 138L257 137z"/>
<path style="fill:#73b55c; stroke:none;" d="M260 137L261 138L260 137M54 138L55 139L54 138M82 138L83 139L82 138z"/>
<path style="fill:#b0d5a2; stroke:none;" d="M108 138L109 139L108 138z"/>
<path style="fill:#73b55c; stroke:none;" d="M175 138L176 139L175 138M178 138L179 139L178 138z"/>
<path style="fill:#96c784; stroke:none;" d="M185 138L186 139L185 138M192 138L193 139L192 138M228.333 138.667L228.667 139.333L228.333 138.667z"/>
<path style="fill:#73b55c; stroke:none;" d="M241 138L242 139L241 138M249 138L250 139L249 138z"/>
<path style="fill:#96c784; stroke:none;" d="M256 138L257 139L256 138z"/>
<path style="fill:#73b55c; stroke:none;" d="M259 138L260 139L259 138M55 139L56 140L55 139M83 139L84 140L83 139z"/>
<path style="fill:#b0d5a2; stroke:none;" d="M109 139L110 140L109 139z"/>
<path style="fill:#96c784; stroke:none;" d="M176 139L177 140L176 139z"/>
<path style="fill:#73b55c; stroke:none;" d="M179 139L180 140L179 139z"/>
<path style="fill:#96c784; stroke:none;" d="M186 139L187 140L186 139z"/>
<path style="fill:#73b55c; stroke:none;" d="M193 139L194 140L193 139z"/>
<path style="fill:#96c784; stroke:none;" d="M206.333 139.667L206.667 140.333L206.333 139.667M241 139L242 140L241 139M248 139L249 140L248 139z"/>
<path style="fill:#73b55c; stroke:none;" d="M255 139L256 140L255 139M258 139L259 140L258 139M56 140L57 141L56 140M84 140L85 141L84 140z"/>
<path style="fill:#b0d5a2; stroke:none;" d="M110 140L111 141L110 140z"/>
<path style="fill:#96c784; stroke:none;" d="M177 140L178 141L177 140M179 140L180 141L179 140z"/>
<path style="fill:#73b55c; stroke:none;" d="M186 140L187 141L186 140z"/>
<path style="fill:#96c784; stroke:none;" d="M193 140L194 141L193 140z"/>
<path style="fill:#73b55c; stroke:none;" d="M228 140L229 141L228 140M240 140L241 141L240 140z"/>
<path style="fill:#96c784; stroke:none;" d="M247 140L248 141L247 140z"/>
<path style="fill:#73b55c; stroke:none;" d="M254 140L255 141L254 140M257 140L258 141L257 140M57 141L58 142L57 141M85 141L86 142L85 141z"/>
<path style="fill:#b0d5a2; stroke:none;" d="M111 141L112 142L111 141z"/>
<path style="fill:#96c784; stroke:none;" d="M178 141L179 142L178 141M180 141L181 142L180 141z"/>
<path style="fill:#73b55c; stroke:none;" d="M187 141L188 142L187 141M194 141L195 142L194 141M206.333 141.667L206.667 142.333L206.333 141.667z"/>
<path style="fill:#96c784; stroke:none;" d="M240 141L241 142L240 141M246 141L247 142L246 141M254 141L255 142L254 141z"/>
<path style="fill:#73b55c; stroke:none;" d="M256 141L257 142L256 141M58 142L59 143L58 142M86 142L87 143L86 142z"/>
<path style="fill:#b0d5a2; stroke:none;" d="M112 142L113 143L112 142z"/>
<path style="fill:#96c784; stroke:none;" d="M179 142L180 143L179 142z"/>
<path style="fill:#73b55c; stroke:none;" d="M181 142L182 143L181 142M188 142L189 143L188 142z"/>
<path style="fill:#96c784; stroke:none;" d="M227.333 142.667L227.667 143.333L227.333 142.667z"/>
<path style="fill:#73b55c; stroke:none;" d="M239 142L240 143L239 142M246 142L247 143L246 142z"/>
<path style="fill:#96c784; stroke:none;" d="M253 142L254 143L253 142M255 142L256 143L255 142z"/>
<path style="fill:#73b55c; stroke:none;" d="M59 143L60 144L59 143M87 143L89 145L87 143z"/>
<path style="fill:#b0d5a2; stroke:none;" d="M88 143L89 144L88 143M113 143L114 144L113 143z"/>
<path style="fill:#96c784; stroke:none;" d="M180 143L181 144L180 143z"/>
<path style="fill:#73b55c; stroke:none;" d="M182 143L183 144L182 143z"/>
<path style="fill:#96c784; stroke:none;" d="M189 143L190 144L189 143M195 143L196 144L195 143M207.333 143.667L207.667 144.333L207.333 143.667M239 143L240 144L239 143z"/>
<path style="fill:#73b55c; stroke:none;" d="M245 143L246 144L245 143M252 143L253 144L252 143z"/>
<path style="fill:#96c784; stroke:none;" d="M254 143L255 144L254 143z"/>
<path style="fill:#73b55c; stroke:none;" d="M60 144L61 145L60 144z"/>
<path style="fill:#b0d5a2; stroke:none;" d="M114 144L115 145L114 144z"/>
<path style="fill:#73b55c; stroke:none;" d="M180 144L181 145L180 144z"/>
<path style="fill:#96c784; stroke:none;" d="M182 144L183 145L182 144M190 144L191 145L190 144z"/>
<path style="fill:#73b55c; stroke:none;" d="M196 144L197 145L196 144M227 144L228 145L227 144M238 144L239 145L238 144M244 144L245 145L244 144M251 144L252 145L251 144z"/>
<path style="fill:#96c784; stroke:none;" d="M253 144L254 145L253 144z"/>
<path style="fill:#b0d5a2; stroke:none;" d="M0 145L1 146L0 145z"/>
<path style="fill:#73b55c; stroke:none;" d="M61 145L62 146L61 145M89 145L90 146L89 145z"/>
<path style="fill:#b0d5a2; stroke:none;" d="M115 145L116 146L115 145z"/>
<path style="fill:#73b55c; stroke:none;" d="M181 145L182 146L181 145z"/>
<path style="fill:#96c784; stroke:none;" d="M183 145L184 146L183 145M191 145L192 146L191 145M196 145L197 146L196 145z"/>
<path style="fill:#73b55c; stroke:none;" d="M207 145L208 146L207 145z"/>
<path style="fill:#96c784; stroke:none;" d="M238 145L239 146L238 145M243 145L244 146L243 145M251 145L247 151L253 146L251 145z"/>
<path style="fill:#b0d5a2; stroke:none;" d="M1 146L2 147L1 146z"/>
<path style="fill:#73b55c; stroke:none;" d="M62 146L63 147L62 146M90 146L92 148L90 146z"/>
<path style="fill:#b0d5a2; stroke:none;" d="M91 146L92 147L91 146M116 146L117 147L116 146z"/>
<path style="fill:#73b55c; stroke:none;" d="M182 146L183 147L182 146M184 146L185 147L184 146z"/>
<path style="fill:#96c784; stroke:none;" d="M192 146L194 148L192 146z"/>
<path style="fill:#73b55c; stroke:none;" d="M197 146L198 147L197 146z"/>
<path style="fill:#96c784; stroke:none;" d="M226.333 146.667L226.667 147.333L226.333 146.667z"/>
<path style="fill:#73b55c; stroke:none;" d="M237 146L238 147L237 146z"/>
<path style="fill:#96c784; stroke:none;" d="M242 146L243 147L242 146z"/>
<path style="fill:#b0d5a2; stroke:none;" d="M251 146L252 147L251 146z"/>
<path style="fill:#96c784; stroke:none;" d="M2 147L3 148L2 147z"/>
<path style="fill:#73b55c; stroke:none;" d="M63 147L64 148L63 147z"/>
<path style="fill:#b0d5a2; stroke:none;" d="M117 147L118 148L117 147z"/>
<path style="fill:#73b55c; stroke:none;" d="M183 147L184 148L183 147M185 147L186 148L185 147M192 147L193 148L192 147z"/>
<path style="fill:#96c784; stroke:none;" d="M197 147L198 148L197 147M208.333 147.667L208.667 148.333L208.333 147.667M241 147L242 148L241 147z"/>
<path style="fill:#73b55c; stroke:none;" d="M249 147L250 148L249 147M251 147L252 148L251 147z"/>
<path style="fill:#96c784; stroke:none;" d="M3 148L4 149L3 148z"/>
<path style="fill:#73b55c; stroke:none;" d="M64 148L65 149L64 148M92 148L94 150L92 148z"/>
<path style="fill:#b0d5a2; stroke:none;" d="M93 148L94 149L93 148M118 148L119 149L118 148z"/>
<path style="fill:#96c784; stroke:none;" d="M184 148L188 152L184 148z"/>
<path style="fill:#73b55c; stroke:none;" d="M193 148L194 149L193 148M198 148L199 149L198 148M226 148L227 149L226 148z"/>
<path style="fill:#96c784; stroke:none;" d="M236 148L237 149L236 148M240 148L241 149L240 148z"/>
<path style="fill:#73b55c; stroke:none;" d="M248 148L249 149L248 148M250 148L251 149L250 148M4 149L5 150L4 149M65 149L66 150L65 149z"/>
<path style="fill:#b0d5a2; stroke:none;" d="M119 149L120 150L119 149z"/>
<path style="fill:#73b55c; stroke:none;" d="M194 149L195 150L194 149z"/>
<path style="fill:#96c784; stroke:none;" d="M198 149L199 150L198 149z"/>
<path style="fill:#73b55c; stroke:none;" d="M208.333 149.667L208.667 150.333L208.333 149.667M235 149L236 150L235 149z"/>
<path style="fill:#96c784; stroke:none;" d="M239 149L240 150L239 149z"/>
<path style="fill:#73b55c; stroke:none;" d="M249 149L250 150L249 149M5 150L6 151L5 150M66 150L67 151L66 150M94 150L96 152L94 150z"/>
<path style="fill:#b0d5a2; stroke:none;" d="M95 150L96 151L95 150M120 150L121 151L120 150z"/>
<path style="fill:#73b55c; stroke:none;" d="M187 150L188 151L187 150M195 150L196 151L195 150M199 150L200 151L199 150z"/>
<path style="fill:#96c784; stroke:none;" d="M225.333 150.667L225.667 151.333L225.333 150.667M235 150L236 151L235 150M238 150L239 151L238 150z"/>
<path style="fill:#73b55c; stroke:none;" d="M248 150L249 151L248 150M6 151L7 152L6 151z"/>
<path style="fill:#b0d5a2; stroke:none;" d="M7 151L8 152L7 151z"/>
<path style="fill:#73b55c; stroke:none;" d="M67 151L68 152L67 151z"/>
<path style="fill:#b0d5a2; stroke:none;" d="M121 151L122 152L121 151z"/>
<path style="fill:#73b55c; stroke:none;" d="M188.333 151.667L188.667 152.333L188.333 151.667M196 151L197 152L196 151z"/>
<path style="fill:#96c784; stroke:none;" d="M209.333 151.667L209.667 152.333L209.333 151.667z"/>
<path style="fill:#73b55c; stroke:none;" d="M234 151L235 152L234 151z"/>
<path style="fill:#96c784; stroke:none;" d="M237 151L238 152L237 151z"/>
<path style="fill:#73b55c; stroke:none;" d="M244 154L248 151L244 154z"/>
<path style="fill:#b0d5a2; stroke:none;" d="M8 152L9 153L8 152z"/>
<path style="fill:#73b55c; stroke:none;" d="M68 152L69 153L68 152M96 152L98 154L96 152z"/>
<path style="fill:#b0d5a2; stroke:none;" d="M97 152L98 153L97 152M122 152L123 153L122 152z"/>
<path style="fill:#73b55c; stroke:none;" d="M197 152L198 153L197 152z"/>
<path style="fill:#96c784; stroke:none;" d="M200 152L201 153L200 152z"/>
<path style="fill:#73b55c; stroke:none;" d="M225.333 152.667L225.667 153.333L225.333 152.667z"/>
<path style="fill:#96c784; stroke:none;" d="M234 152L235 153L234 152M236 152L237 153L236 152z"/>
<path style="fill:#b0d5a2; stroke:none;" d="M9 153L10 154L9 153z"/>
<path style="fill:#73b55c; stroke:none;" d="M69 153L70 154L69 153z"/>
<path style="fill:#b0d5a2; stroke:none;" d="M123 153L124 154L123 153z"/>
<path style="fill:#73b55c; stroke:none;" d="M189 153L190 154L189 153M198 153L199 154L198 153M201 153L202 154L201 153M209.333 153.667L209.667 154.333L209.333 153.667M233 153L234 154L233 153z"/>
<path style="fill:#96c784; stroke:none;" d="M235 153L236 154L235 153z"/>
<path style="fill:#b0d5a2; stroke:none;" d="M10 154L11 155L10 154z"/>
<path style="fill:#73b55c; stroke:none;" d="M70 154L71 155L70 154M98 154L99 155L98 154z"/>
<path style="fill:#b0d5a2; stroke:none;" d="M99 154L100 155L99 154M124 154L125 155L124 154z"/>
<path style="fill:#73b55c; stroke:none;" d="M199 154L200 155L199 154z"/>
<path style="fill:#96c784; stroke:none;" d="M201 154L203 157L201 154M224.333 154.667L224.667 155.333L224.333 154.667M234 154L235 155L234 154z"/>
<path style="fill:#b0d5a2; stroke:none;" d="M11 155L12 156L11 155z"/>
<path style="fill:#73b55c; stroke:none;" d="M71 155L72 156L71 155z"/>
<path style="fill:#b0d5a2; stroke:none;" d="M100 155L101 156L100 155M125 155L126 156L125 155z"/>
<path style="fill:#73b55c; stroke:none;" d="M200 155L201 156L200 155M202 155L203 156L202 155z"/>
<path style="fill:#96c784; stroke:none;" d="M232.667 155.333L233.333 155.667L232.667 155.333z"/>
<path style="fill:#b0d5a2; stroke:none;" d="M12 156L13 157L12 156z"/>
<path style="fill:#73b55c; stroke:none;" d="M72 156L73 157L72 156z"/>
<path style="fill:#b0d5a2; stroke:none;" d="M101 156L102 157L101 156M126 156L127 157L126 156z"/>
<path style="fill:#73b55c; stroke:none;" d="M201 156L202 157L201 156z"/>
<path style="fill:#96c784; stroke:none;" d="M210 156L211 157L210 156z"/>
<path style="fill:#73b55c; stroke:none;" d="M224.333 156.667L224.667 157.333L224.333 156.667M231.667 156.333L232.333 156.667L231.667 156.333M12 157L13 158L12 157M73 157L74 158L73 157z"/>
<path style="fill:#b0d5a2; stroke:none;" d="M102 157L103 158L102 157M127 157L128 158L127 157z"/>
<path style="fill:#73b55c; stroke:none;" d="M210.333 157.667L210.667 158.333L210.333 157.667M13 158L14 159L13 158z"/>
<path style="fill:#b0d5a2; stroke:none;" d="M73 158L74 159L73 158M103 158L104 159L103 158M128 158L129 159L128 158z"/>
<path style="fill:#96c784; stroke:none;" d="M223.333 158.667L223.667 159.333L223.333 158.667z"/>
<path style="fill:#73b55c; stroke:none;" d="M14 159L15 160L14 159z"/>
<path style="fill:#b0d5a2; stroke:none;" d="M74 159L75 160L74 159M104 159L105 160L104 159M129 159L130 160L129 159z"/>
<path style="fill:#96c784; stroke:none;" d="M211 159L212 160L211 159z"/>
<path style="fill:#73b55c; stroke:none;" d="M15 160L16 161L15 160z"/>
<path style="fill:#b0d5a2; stroke:none;" d="M75 160L76 161L75 160M105 160L106 161L105 160M130 160L131 161L130 160z"/>
<path style="fill:#73b55c; stroke:none;" d="M211 160L211 161L215 161L211 160z"/>
<path style="fill:#96c784; stroke:none;" d="M215 160L215 161L219 161L215 160z"/>
<path style="fill:#73b55c; stroke:none;" d="M219 160L219 161L224 161L219 160M16 161L17 162L16 161z"/>
<path style="fill:#b0d5a2; stroke:none;" d="M76 161L77 162L76 161M106 161L107 162L106 161M131 161L132 162L131 161z"/>
<path style="fill:#73b55c; stroke:none;" d="M17 162L18 163L17 162z"/>
<path style="fill:#b0d5a2; stroke:none;" d="M77 162L78 163L77 162M107 162L108 163L107 162M132 162L133 163L132 162z"/>
<path style="fill:#73b55c; stroke:none;" d="M18 163L19 164L18 163z"/>
<path style="fill:#b0d5a2; stroke:none;" d="M78 163L79 164L78 163M108 163L109 164L108 163M133 163L134 164L133 163z"/>
<path style="fill:#73b55c; stroke:none;" d="M19 164L20 165L19 164z"/>
<path style="fill:#b0d5a2; stroke:none;" d="M79 164L80 165L79 164M109 164L110 165L109 164M134 164L135 165L134 164z"/>
<path style="fill:#73b55c; stroke:none;" d="M20 165L21 166L20 165z"/>
<path style="fill:#b0d5a2; stroke:none;" d="M80 165L81 166L80 165M110 165L111 166L110 165M135 165L136 166L135 165z"/>
<path style="fill:#73b55c; stroke:none;" d="M21 166L22 167L21 166z"/>
<path style="fill:#b0d5a2; stroke:none;" d="M81 166L82 167L81 166M111 166L112 167L111 166M136 166L137 167L136 166z"/>
<path style="fill:#73b55c; stroke:none;" d="M22 167L23 168L22 167z"/>
<path style="fill:#b0d5a2; stroke:none;" d="M82 167L86 171L82 167z"/>
<path style="fill:#73b55c; stroke:none;" d="M83 167L84 168L83 167z"/>
<path style="fill:#b0d5a2; stroke:none;" d="M112 167L113 168L112 167M137 167L138 168L137 167z"/>
<path style="fill:#73b55c; stroke:none;" d="M23 168L24 169L23 168M84 168L85 169L84 168z"/>
<path style="fill:#b0d5a2; stroke:none;" d="M113 168L114 169L113 168M138 168L139 169L138 168z"/>
<path style="fill:#73b55c; stroke:none;" d="M24 169L25 170L24 169M85 169L86 170L85 169z"/>
<path style="fill:#b0d5a2; stroke:none;" d="M114 169L115 170L114 169z"/>
<path style="fill:#73b55c; stroke:none;" d="M139 169L140 170L139 169M25 170L26 171L25 170z"/>
<path style="fill:#b0d5a2; stroke:none;" d="M115 170L116 171L115 170M139 170L140 171L139 170z"/>
<path style="fill:#73b55c; stroke:none;" d="M26 171L27 172L26 171z"/>
<path style="fill:#b0d5a2; stroke:none;" d="M86 171L88 173L86 171z"/>
<path style="fill:#73b55c; stroke:none;" d="M87 171L88 172L87 171M115 171L116 172L115 171M140 171L141 172L140 171M27 172L28 173L27 172M116 172L117 173L116 172z"/>
<path style="fill:#b0d5a2; stroke:none;" d="M140 172L141 173L140 172z"/>
<path style="fill:#73b55c; stroke:none;" d="M28 173L29 174L28 173z"/>
<path style="fill:#b0d5a2; stroke:none;" d="M88 173L89 174L88 173M117 173L118 174L117 173z"/>
<path style="fill:#73b55c; stroke:none;" d="M141 173L142 174L141 173M29 174L30 175L29 174z"/>
<path style="fill:#b0d5a2; stroke:none;" d="M89 174L90 175L89 174z"/>
<path style="fill:#73b55c; stroke:none;" d="M117 174L118 175L117 174z"/>
<path style="fill:#b0d5a2; stroke:none;" d="M141 174L142 175L141 174z"/>
<path style="fill:#73b55c; stroke:none;" d="M30 175L31 176L30 175z"/>
<path style="fill:#b0d5a2; stroke:none;" d="M90 175L91 176L90 175M118 175L119 176L118 175z"/>
<path style="fill:#73b55c; stroke:none;" d="M142 175L143 176L142 175M31 176L32 177L31 176z"/>
<path style="fill:#b0d5a2; stroke:none;" d="M91 176L92 177L91 176z"/>
<path style="fill:#96c784; stroke:none;" d="M118 176L119 177L118 176z"/>
<path style="fill:#b0d5a2; stroke:none;" d="M142 176L143 177L142 176z"/>
<path style="fill:#73b55c; stroke:none;" d="M32 177L33 178L32 177z"/>
<path style="fill:#b0d5a2; stroke:none;" d="M92 177L93 178L92 177z"/>
<path style="fill:#73b55c; stroke:none;" d="M118.333 177.667L118.667 178.333L118.333 177.667M143 177L144 178L143 177M33 178L34 179L33 178z"/>
<path style="fill:#b0d5a2; stroke:none;" d="M93 178L94 179L93 178M143 178L144 179L143 178z"/>
<path style="fill:#73b55c; stroke:none;" d="M34 179L35 180L34 179z"/>
<path style="fill:#b0d5a2; stroke:none;" d="M94 179L95 180L94 179z"/>
<path style="fill:#96c784; stroke:none;" d="M118 179L119 180L118 179M144 179L145 180L144 179z"/>
<path style="fill:#73b55c; stroke:none;" d="M189 179L189 180L248 180L229 179L189 179M35 180L36 181L35 180z"/>
<path style="fill:#b0d5a2; stroke:none;" d="M95 180L96 181L95 180M118 180L119 181L118 180M144 180L145 181L144 180z"/>
<path style="fill:#96c784; stroke:none;" d="M189.333 180.667L189.667 181.333L189.333 180.667z"/>
<path style="fill:#b0d5a2; stroke:none;" d="M190 180L197 215L240 215L247 180L190 180z"/>
<path style="fill:#96c784; stroke:none;" d="M247 180L248 181L247 180z"/>
<path style="fill:#73b55c; stroke:none;" d="M36 181L37 182L36 181z"/>
<path style="fill:#b0d5a2; stroke:none;" d="M96 181L97 182L96 181z"/>
<path style="fill:#73b55c; stroke:none;" d="M117 181L118 182L117 181z"/>
<path style="fill:#96c784; stroke:none;" d="M145 181L146 182L145 181z"/>
<path style="fill:#73b55c; stroke:none;" d="M247 181L248 182L247 181M37 182L38 183L37 182z"/>
<path style="fill:#b0d5a2; stroke:none;" d="M97 182L99 184L97 182z"/>
<path style="fill:#73b55c; stroke:none;" d="M98 182L99 183L98 182z"/>
<path style="fill:#b0d5a2; stroke:none;" d="M117 182L118 183L117 182z"/>
<path style="fill:#73b55c; stroke:none;" d="M189.333 182.667L189.667 183.333L189.333 182.667M38 183L39 184L38 183M99 183L100 184L99 183z"/>
<path style="fill:#96c784; stroke:none;" d="M116 183L117 184L116 183M146 183L147 184L146 183M246.333 183.667L246.667 184.333L246.333 183.667z"/>
<path style="fill:#73b55c; stroke:none;" d="M39 184L40 185L39 184M100 184L101 185L100 184M115 184L116 185L115 184z"/>
<path style="fill:#96c784; stroke:none;" d="M190.333 184.667L190.667 185.333L190.333 184.667z"/>
<path style="fill:#73b55c; stroke:none;" d="M40 185L41 186L40 185z"/>
<path style="fill:#96c784; stroke:none;" d="M101 185L102 186L101 185z"/>
<path style="fill:#b0d5a2; stroke:none;" d="M115 185L116 186L115 185M147 185L148 186L147 185z"/>
<path style="fill:#73b55c; stroke:none;" d="M246.333 185.667L246.667 186.333L246.333 185.667M41 186L42 187L41 186z"/>
<path style="fill:#b0d5a2; stroke:none;" d="M102 186L103 187L102 186M114 186L115 187L114 186z"/>
<path style="fill:#73b55c; stroke:none;" d="M148 186L149 187L148 186M190.333 186.667L190.667 187.333L190.333 186.667M42 187L43 188L42 187z"/>
<path style="fill:#96c784; stroke:none;" d="M104 187L105 188L104 187M112 187L113 188L112 187z"/>
<path style="fill:#b0d5a2; stroke:none;" d="M148 187L149 188L148 187z"/>
<path style="fill:#96c784; stroke:none;" d="M245 187L245 190L246 190L245 187z"/>
<path style="fill:#73b55c; stroke:none;" d="M43 188L44 189L43 188z"/>
<path style="fill:#b0d5a2; stroke:none;" d="M106 188L107 189L106 188z"/>
<path style="fill:#96c784; stroke:none;" d="M107 188L108 189L107 188z"/>
<path style="fill:#73b55c; stroke:none;" d="M108.667 188.333L109.333 188.667L108.667 188.333z"/>
<path style="fill:#96c784; stroke:none;" d="M110 188L111 189L110 188z"/>
<path style="fill:#b0d5a2; stroke:none;" d="M111 188L112 189L111 188z"/>
<path style="fill:#73b55c; stroke:none;" d="M149 188L150 189L149 188M44 189L45 190L44 189z"/>
<path style="fill:#b0d5a2; stroke:none;" d="M149 189L150 190L149 189z"/>
<path style="fill:#96c784; stroke:none;" d="M191.333 189.667L191.667 190.333L191.333 189.667z"/>
<path style="fill:#73b55c; stroke:none;" d="M45 190L46 191L45 190M150 190L151 191L150 190M245 190L246 191L245 190M46 191L47 192L46 191z"/>
<path style="fill:#b0d5a2; stroke:none;" d="M150 191L151 192L150 191z"/>
<path style="fill:#73b55c; stroke:none;" d="M191.333 191.667L191.667 192.333L191.333 191.667M47 192L48 193L47 192M151 192L152 193L151 192z"/>
<path style="fill:#96c784; stroke:none;" d="M244.333 192.667L244.667 193.333L244.333 192.667z"/>
<path style="fill:#73b55c; stroke:none;" d="M48 193L49 194L48 193z"/>
<path style="fill:#b0d5a2; stroke:none;" d="M151 193L152 194L151 193z"/>
<path style="fill:#96c784; stroke:none;" d="M192.333 193.667L192.667 194.333L192.333 193.667z"/>
<path style="fill:#73b55c; stroke:none;" d="M49 194L50 195L49 194z"/>
<path style="fill:#96c784; stroke:none;" d="M152 194L153 195L152 194z"/>
<path style="fill:#73b55c; stroke:none;" d="M244.333 194.667L244.667 195.333L244.333 194.667z"/>
<path style="fill:#96c784; stroke:none;" d="M50 195L51 196L50 195z"/>
<path style="fill:#b0d5a2; stroke:none;" d="M152 195L153 196L152 195z"/>
<path style="fill:#73b55c; stroke:none;" d="M192.333 195.667L192.667 196.333L192.333 195.667z"/>
<path style="fill:#96c784; stroke:none;" d="M51 196L52 197L51 196M153 196L154 197L153 196M243 196L243 199L244 199L243 196M52 197L53 198L52 197z"/>
<path style="fill:#b0d5a2; stroke:none;" d="M153 197L154 198L153 197z"/>
<path style="fill:#96c784; stroke:none;" d="M193.333 197.667L193.667 198.333L193.333 197.667M53 198L54 199L53 198M154 198L155 199L154 198M54 199L55 200L54 199z"/>
<path style="fill:#b0d5a2; stroke:none;" d="M154 199L155 200L154 199z"/>
<path style="fill:#73b55c; stroke:none;" d="M193 199L193 202L194 202L193 199M243 199L244 200L243 199z"/>
<path style="fill:#96c784; stroke:none;" d="M55 200L56 201L55 200M155 200L156 201L155 200z"/>
<path style="fill:#b0d5a2; stroke:none;" d="M56 201L57 202L56 201z"/>
<path style="fill:#96c784; stroke:none;" d="M242.333 201.667L242.667 202.333L242.333 201.667z"/>
<path style="fill:#b0d5a2; stroke:none;" d="M57 202L58 203L57 202z"/>
<path style="fill:#96c784; stroke:none;" d="M156 202L157 203L156 202M194.333 202.667L194.667 203.333L194.333 202.667z"/>
<path style="fill:#b0d5a2; stroke:none;" d="M58 203L59 204L58 203z"/>
<path style="fill:#73b55c; stroke:none;" d="M157 203L158 204L157 203M242.333 203.667L242.667 204.333L242.333 203.667z"/>
<path style="fill:#b0d5a2; stroke:none;" d="M59 204L60 205L59 204M157 204L158 205L157 204z"/>
<path style="fill:#73b55c; stroke:none;" d="M194 204L195 205L194 204z"/>
<path style="fill:#b0d5a2; stroke:none;" d="M60 205L61 206L60 205z"/>
<path style="fill:#73b55c; stroke:none;" d="M158 205L159 206L158 205z"/>
<path style="fill:#b0d5a2; stroke:none;" d="M61 206L62 207L61 206M158 206L159 207L158 206z"/>
<path style="fill:#96c784; stroke:none;" d="M195.333 206.667L195.667 207.333L195.333 206.667M241.333 206.667L241.667 207.333L241.333 206.667z"/>
<path style="fill:#b0d5a2; stroke:none;" d="M62 207L63 208L62 207z"/>
<path style="fill:#73b55c; stroke:none;" d="M159 207L160 208L159 207z"/>
<path style="fill:#b0d5a2; stroke:none;" d="M63 208L64 209L63 208M159 208L160 209L159 208z"/>
<path style="fill:#73b55c; stroke:none;" d="M195.333 208.667L195.667 209.333L195.333 208.667M241.333 208.667L241.667 209.333L241.333 208.667z"/>
<path style="fill:#b0d5a2; stroke:none;" d="M64 209L65 210L64 209z"/>
<path style="fill:#73b55c; stroke:none;" d="M160 209L161 210L160 209z"/>
<path style="fill:#b0d5a2; stroke:none;" d="M65 210L66 211L65 210M160 210L161 211L160 210z"/>
<path style="fill:#96c784; stroke:none;" d="M196 210L196 213L197 213L196 210M240.333 210.667L240.667 211.333L240.333 210.667z"/>
<path style="fill:#b0d5a2; stroke:none;" d="M66 211L67 212L66 211z"/>
<path style="fill:#73b55c; stroke:none;" d="M161 211L162 212L161 211z"/>
<path style="fill:#b0d5a2; stroke:none;" d="M67 212L68 213L67 212M161 212L162 213L161 212z"/>
<path style="fill:#73b55c; stroke:none;" d="M240.333 212.667L240.667 213.333L240.333 212.667z"/>
<path style="fill:#96c784; stroke:none;" d="M68 213L69 214L68 213M162 213L163 214L162 213z"/>
<path style="fill:#73b55c; stroke:none;" d="M196 213L197 214L196 213z"/>
<path style="fill:#96c784; stroke:none;" d="M69 214L70 215L69 214z"/>
<path style="fill:#b0d5a2; stroke:none;" d="M162 214L163 215L162 214z"/>
<path style="fill:#96c784; stroke:none;" d="M70 215L71 216L70 215M163 215L164 216L163 215z"/>
<path style="fill:#73b55c; stroke:none;" d="M197 215L197 216L240 216C228.774 211.29 209.219 215 197 215z"/>
<path style="fill:#96c784; stroke:none;" d="M71 216L72 217L71 216M72 217L73 218L72 217M164 217L165 218L164 217M73 218L74 219L73 218M74 219L75 220L74 219M165 219L166 220L165 219M75 220L76 221L75 220z"/>
<path style="fill:#73b55c; stroke:none;" d="M166 220L167 221L166 220M76 221L77 222L76 221z"/>
<path style="fill:#b0d5a2; stroke:none;" d="M166 221L167 222L166 221z"/>
<path style="fill:#73b55c; stroke:none;" d="M77 222L78 223L77 222M167 222L168 223L167 222M78 223L79 224L78 223z"/>
<path style="fill:#b0d5a2; stroke:none;" d="M79 223L80 224L79 223M167 223L168 224L167 223M80 224L81 225L80 224z"/>
<path style="fill:#73b55c; stroke:none;" d="M168 224L169 225L168 224z"/>
<path style="fill:#b0d5a2; stroke:none;" d="M81 225L82 226L81 225M168 225L169 226L168 225z"/>
<path style="fill:#96c784; stroke:none;" d="M82 226L83 227L82 226z"/>
<path style="fill:#73b55c; stroke:none;" d="M169 226L170 227L169 226M83 227L84 228L83 227z"/>
<path style="fill:#b0d5a2; stroke:none;" d="M84 227L85 228L84 227M169 227L170 228L169 227z"/>
<path style="fill:#73b55c; stroke:none;" d="M85 228L86 229L85 228z"/>
<path style="fill:#b0d5a2; stroke:none;" d="M86 228L87 229L86 228z"/>
<path style="fill:#73b55c; stroke:none;" d="M170 228L171 229L170 228z"/>
<path style="fill:#96c784; stroke:none;" d="M87 229L88 230L87 229z"/>
<path style="fill:#b0d5a2; stroke:none;" d="M170 229L171 230L170 229z"/>
<path style="fill:#96c784; stroke:none;" d="M89 230L90 231L89 230M171 230L172 231L171 230M91 231L92 232L91 231z"/>
<path style="fill:#b0d5a2; stroke:none;" d="M171 231L172 232L171 231z"/>
<path style="fill:#96c784; stroke:none;" d="M93 232L94 233L93 232M172 232L173 233L172 232M95 233L96 234L95 233M97 234L98 235L97 234z"/>
<path style="fill:#b0d5a2; stroke:none;" d="M98 234L99 235L98 234z"/>
<path style="fill:#96c784; stroke:none;" d="M173 234L174 235L173 234M99 235L100 236L99 235z"/>
<path style="fill:#b0d5a2; stroke:none;" d="M100 235L101 236L100 235z"/>
<path style="fill:#96c784; stroke:none;" d="M101 236L102 237L101 236z"/>
<path style="fill:#b0d5a2; stroke:none;" d="M102 236L103 237L102 236z"/>
<path style="fill:#96c784; stroke:none;" d="M174 236L175 237L174 236z"/>
<path style="fill:#73b55c; stroke:none;" d="M103 237L104 238L103 237z"/>
<path style="fill:#b0d5a2; stroke:none;" d="M104 237L105 238L104 237z"/>
<path style="fill:#96c784; stroke:none;" d="M105 238L106 239L105 238z"/>
<path style="fill:#b0d5a2; stroke:none;" d="M106 238L107 239L106 238M175 238L176 239L175 238z"/>
<path style="fill:#96c784; stroke:none;" d="M107 239L108 240L107 239z"/>
<path style="fill:#b0d5a2; stroke:none;" d="M108 239L109 240L108 239z"/>
<path style="fill:#73b55c; stroke:none;" d="M176 239L177 240L176 239z"/>
<path style="fill:#96c784; stroke:none;" d="M109 240L110 241L109 240z"/>
<path style="fill:#b0d5a2; stroke:none;" d="M176 240L177 241L176 240M111 241L112 242L111 241z"/>
<path style="fill:#73b55c; stroke:none;" d="M177 241L178 242L177 241M112 242L113 243L112 242z"/>
<path style="fill:#b0d5a2; stroke:none;" d="M113 242L114 243L113 242M177 242L178 243L177 242z"/>
<path style="fill:#73b55c; stroke:none;" d="M114 243L115 244L114 243z"/>
<path style="fill:#b0d5a2; stroke:none;" d="M115 243L116 244L115 243z"/>
<path style="fill:#73b55c; stroke:none;" d="M178 243L179 244L178 243M116 244L117 245L116 244z"/>
<path style="fill:#b0d5a2; stroke:none;" d="M117 244L118 245L117 244M178 244L179 245L178 244z"/>
<path style="fill:#96c784; stroke:none;" d="M118 245L119 246L118 245z"/>
<path style="fill:#b0d5a2; stroke:none;" d="M119 245L120 246L119 245z"/>
<path style="fill:#73b55c; stroke:none;" d="M179 245L180 246L179 245z"/>
<path style="fill:#96c784; stroke:none;" d="M120 246L121 247L120 246z"/>
<path style="fill:#b0d5a2; stroke:none;" d="M179 246L180 247L179 246z"/>
<path style="fill:#96c784; stroke:none;" d="M122 247L123 248L122 247z"/>
<path style="fill:#73b55c; stroke:none;" d="M180 247L181 248L180 247z"/>
<path style="fill:#b0d5a2; stroke:none;" d="M124 248L125 249L124 248M180 248L181 249L180 248z"/>
<path style="fill:#73b55c; stroke:none;" d="M125 249L126 250L125 249z"/>
<path style="fill:#b0d5a2; stroke:none;" d="M126 249L127 250L126 249z"/>
<path style="fill:#96c784; stroke:none;" d="M181 249L182 250L181 249z"/>
<path style="fill:#73b55c; stroke:none;" d="M127 250L128 251L127 250z"/>
<path style="fill:#b0d5a2; stroke:none;" d="M128 250L129 251L128 250M181 250L182 251L181 250z"/>
<path style="fill:#73b55c; stroke:none;" d="M129 251L130 252L129 251z"/>
<path style="fill:#b0d5a2; stroke:none;" d="M130 251L131 252L130 251z"/>
<path style="fill:#96c784; stroke:none;" d="M182 251L183 252L182 251z"/>
<path style="fill:#73b55c; stroke:none;" d="M131 252L132 253L131 252z"/>
<path style="fill:#b0d5a2; stroke:none;" d="M132 252L133 253L132 252z"/>
<path style="fill:#96c784; stroke:none;" d="M133 253L134 254L133 253M183 253L184 254L183 253M135 254L136 255L135 254z"/>
<path style="fill:#73b55c; stroke:none;" d="M136 255L137 256L136 255z"/>
<path style="fill:#b0d5a2; stroke:none;" d="M137 255L138 256L137 255M184 255L185 256L184 255z"/>
<path style="fill:#73b55c; stroke:none;" d="M138 256L139 257L138 256z"/>
<path style="fill:#b0d5a2; stroke:none;" d="M139 256L140 257L139 256z"/>
<path style="fill:#73b55c; stroke:none;" d="M185 256L186 257L185 256z"/>
<path style="fill:#96c784; stroke:none;" d="M140 257L141 258L140 257z"/>
<path style="fill:#b0d5a2; stroke:none;" d="M141 257L142 258L141 257M185 257L186 258L185 257z"/>
<path style="fill:#96c784; stroke:none;" d="M142 258L143 259L142 258z"/>
<path style="fill:#73b55c; stroke:none;" d="M143 259L144 260L143 259z"/>
<path style="fill:#b0d5a2; stroke:none;" d="M144 259L145 260L144 259z"/>
<path style="fill:#96c784; stroke:none;" d="M186 259L187 260L186 259z"/>
<path style="fill:#73b55c; stroke:none;" d="M145 260L146 261L145 260z"/>
<path style="fill:#b0d5a2; stroke:none;" d="M146 260L147 261L146 260z"/>
<path style="fill:#73b55c; stroke:none;" d="M147 261L148 262L147 261z"/>
<path style="fill:#b0d5a2; stroke:none;" d="M148 261L149 262L148 261z"/>
<path style="fill:#96c784; stroke:none;" d="M187 261L188 262L187 261M149 262L150 263L149 262z"/>
<path style="fill:#b0d5a2; stroke:none;" d="M150 262L151 263L150 262M187 262L188 263L187 262z"/>
<path style="fill:#96c784; stroke:none;" d="M151 263L152 264L151 263M153 264L154 265L153 264z"/>
<path style="fill:#73b55c; stroke:none;" d="M188 264L189 265L188 264z"/>
<path style="fill:#96c784; stroke:none;" d="M155 265L156 266L155 265z"/>
<path style="fill:#b0d5a2; stroke:none;" d="M188.333 265.667L188.667 266.333L188.333 265.667z"/>
<path style="fill:#73b55c; stroke:none;" d="M156 266L157 267L156 266z"/>
<path style="fill:#96c784; stroke:none;" d="M157 266L158 267L157 266M159 267L160 268L159 267M161 268L162 269L161 268z"/>
<path style="fill:#73b55c; stroke:none;" d="M189.333 268.667L189.667 269.333L189.333 268.667z"/>
<path style="fill:#96c784; stroke:none;" d="M163 269L164 270L163 269z"/>
<path style="fill:#b0d5a2; stroke:none;" d="M164 269L165 270L164 269z"/>
<path style="fill:#73b55c; stroke:none;" d="M165 270L166 271L165 270z"/>
<path style="fill:#b0d5a2; stroke:none;" d="M166 270L167 271L166 270z"/>
<path style="fill:#73b55c; stroke:none;" d="M167 271L168 272L167 271z"/>
<path style="fill:#96c784; stroke:none;" d="M168 271L169 272L168 271z"/>
<path style="fill:#b0d5a2; stroke:none;" d="M169 271L170 272L169 271M188 271L189 272L188 271z"/>
<path style="fill:#73b55c; stroke:none;" d="M170 272L171 273L170 272z"/>
<path style="fill:#b0d5a2; stroke:none;" d="M171 272L172 273L171 272z"/>
<path style="fill:#73b55c; stroke:none;" d="M188 272L189 273L188 272z"/>
<path style="fill:#96c784; stroke:none;" d="M173 273L174 274L173 273z"/>
<path style="fill:#b0d5a2; stroke:none;" d="M174.667 273.333L175.333 273.667L174.667 273.333z"/>
<path style="fill:#96c784; stroke:none;" d="M187 273L188 274L187 273z"/>
<path style="fill:#73b55c; stroke:none;" d="M176 274L177 275L176 274z"/>
<path style="fill:#96c784; stroke:none;" d="M177 274L178 275L177 274z"/>
<path style="fill:#b0d5a2; stroke:none;" d="M178.667 274.333L179.333 274.667L178.667 274.333M185 274L186 275L185 274z"/>
<path style="fill:#73b55c; stroke:none;" d="M186 274L187 275L186 274z"/>
</svg>
