<?xml version="1.0" standalone="yes"?>
<svg xmlns="http://www.w3.org/2000/svg" width="1596" height="1596">
<path style="fill:#343434; stroke:none;" d="M0 0L0 1596L1596 1596L1596 0L0 0z"/>
<path style="fill:#f96141; stroke:none;" d="M617 298.424C577.461 303.631 540.556 317.864 512.17 347.089C440.492 420.885 452.519 545.476 538 603.255C585.324 635.242 638.645 631 693 631L887 631C921.679 631 958.753 634.688 993 628.919C1013.49 625.467 1033.2 618.291 1051 607.55C1154.13 545.338 1156.97 392.024 1057 325.355C1009.15 293.441 954.763 298 900 298L712 298C681.076 298 647.643 294.389 617 298.424z"/>
<path style="fill:#a359ff; stroke:none;" d="M979.667 298.333L980.333 298.667L979.667 298.333M988 299L989 300L988 299M994 300L995 301L994 300M1004 302L1005 303L1004 302M1035 313L1036 314L1035 313M1037 314L1038 315L1037 314M1039 315L1040 316L1039 315M1041 316L1042 317L1041 316M1043 317L1044 318L1043 317M1050 321L1051 322L1050 321M1062 329L1063 330L1062 329M1066 332L1067 333L1066 332M1071 336L1072 337L1071 336M1092 357L1093 358L1092 357M1107 378L1108 379L1107 378M1111 385L1112 386L1111 385M1115 393L1116 394L1115 393M1116 395L1117 396L1116 395M1119 402L1120 403L1119 402M1122 410L1123 411L1122 410M1123 413L1124 414L1123 413M1125 420L1126 421L1125 420M1127 428L1128 429L1127 428M1128 433L1129 434L1128 433M1129 439L1130 440L1129 439M1130.33 446.667L1130.67 447.333L1130.33 446.667M1130.33 481.667L1130.67 482.333L1130.33 481.667M1129 489L1130 490L1129 489M1128 495L1129 496L1128 495M1127 500L1128 501L1127 500M1123 515L1124 516L1123 515M1122 518L1123 519L1122 518M1121 521L1122 522L1121 521M1117 531L1118 532L1117 531M1116 533L1117 534L1116 533M1110 545L1111 546L1110 545M1104 555L1105 556L1104 555M1102 558L1103 559L1102 558M1097 565L1098 566L1097 565M1093 570L1094 571L1093 570M1079 585L1080 586L1079 585M1070 593L1071 594L1070 593M1065 597L1066 598L1065 597M1058 602L1059 603L1058 602M1055 604L1056 605L1055 604M1045 610L1046 611L1045 610M1033 616L1034 617L1033 616M1031 617L1032 618L1031 617M1021 621L1022 622L1021 621M1018 622L1019 623L1018 622M1015 623L1016 624L1015 623M1000 627L1001 628L1000 627M995 628L996 629L995 628M989 629L990 630L989 629M981.667 630.333L982.333 630.667L981.667 630.333M798 965L798 631L671 631C632.915 631 596.462 630.028 561 646.309C464.541 690.594 434.551 817.891 499.662 901C510.903 915.348 524.599 928.141 540 937.946C582.54 965.029 627.395 965 676 965L798 965z"/>
<path style="fill:#343434; stroke:none;" d="M798 631L798 781L799 781C799.618 706.389 877.107 632.204 951 632C939.069 626.993 917.991 631 905 631L798 631z"/>
<path style="fill:#199a68; stroke:none;" d="M951 631L951 632L978 632L951 631M942 632L942 633L946 633L942 632z"/>
<path style="fill:#13c6bf; stroke:none;" d="M946 632.424C920.378 635.83 897.119 643.697 875 657.204C857.141 668.11 841.609 683.032 829.428 700C765.03 789.709 806.232 920.002 911 955.921C935.706 964.392 963.21 966.192 989 962.718C1011.39 959.702 1032.71 951.606 1052 940C1068.56 930.038 1082.98 917.082 1095 902C1168.67 809.567 1121.63 665.29 1006 636.375C987.149 631.661 965.337 629.854 946 632.424z"/>
<path style="fill:#199a68; stroke:none;" d="M983 632L983 633L987 633L983 632M935 633L935 634L938 634L935 633M991 633L991 634L994 634L991 633M930.667 634.333L931.333 634.667L930.667 634.333M997.667 634.333L998.333 634.667L997.667 634.333M926.667 635.333L927.333 635.667L926.667 635.333M1002 635L1003 636L1002 635M922 636L923 637L922 636M1006 636L1007 637L1006 636M918.667 637.333L919.333 637.667L918.667 637.333M1010 637L1011 638L1010 637M915 638L916 639L915 638M1013 638L1014 639L1013 638M912 639L913 640L912 639M1016 639L1017 640L1016 639M909 640L910 641L909 640M1019 640L1020 641L1019 640M906 641L907 642L906 641M1022 641L1023 642L1022 641M903.667 642.333L904.333 642.667L903.667 642.333M1025 642L1026 643L1025 642M901 643L902 644L901 643M1027 643L1028 644L1027 643M899 644L900 645L899 644M1030 644L1031 645L1030 644M896 645L897 646L896 645M1032 645L1033 646L1032 645M894 646L895 647L894 646M1034 646L1035 647L1034 646M892 647L893 648L892 647M1036 647L1037 648L1036 647M890 648L891 649L890 648M1038 648L1039 649L1038 648M888 649L889 650L888 649M1040 649L1041 650L1040 649M886 650L887 651L886 650M1042 650L1043 651L1042 650M884 651L885 652L884 651M1044 651L1045 652L1044 651M882 652L883 653L882 652M1046 652L1047 653L1046 652M881 653L882 654L881 653M879 654L880 655L879 654M1049 654L1050 655L1049 654M877 655L878 656L877 655M1051 655L1052 656L1051 655M876 656L877 657L876 656M874 657L875 658L874 657M1054 657L1055 658L1054 657M871 659L872 660L871 659M1057 659L1058 660L1057 659M868 661L869 662L868 661M1060 661L1061 662L1060 661M867 662L868 663L867 662M1063 663L1064 664L1063 663M864 664L865 665L864 664M1064 664L1065 665L1064 664M1067 666L1068 667L1067 666M860 667L861 668L860 667M1068 667L1069 668L1068 667M859 668L860 669L859 668M1073 671L1074 672L1073 671M854 672L855 673L854 672M1074 672L1075 673L1074 672M853 673L854 674L853 673M1075 673L1076 674L1075 673M852 674L853 675L852 674M851 675L852 676L851 675M842 684L843 685L842 684M841 685L842 686L841 685M840 686L841 687L840 686M1088 686L1089 687L1088 686M839 687L840 688L839 687M1089 687L1090 688L1089 687M838 688L839 689L838 688M1090 688L1091 689L1090 688M1091 689L1092 690L1091 689M835 692L836 693L835 692M834 693L835 694L834 693M1094 693L1095 694L1094 693M1095 694L1096 695L1095 694M831 697L832 698L831 697M830 698L831 699L830 698M1098 698L1099 699L1098 698M828 701L829 702L828 701M1100 701L1101 702L1100 701M1101 702L1102 703L1101 702M826 704L827 705L826 704M1103 705L1104 706L1103 705M824 707L825 708L824 707M1105 708L1106 709L1105 708M822 710L823 711L822 710M1106 710L1107 711L1106 710M821 712L822 713L821 712M1108 713L1109 714L1108 713M819 715L820 716L819 715M1109 715L1110 716L1109 715M818 717L819 718L818 717M1110 717L1111 718L1110 717M817 719L818 720L817 719M1112 720L1113 721L1112 720M816 721L817 722L816 721M1113 722L1114 723L1113 722M815 723L816 724L815 723M1114 724L1115 725L1114 724M814 725L815 726L814 725M1115 726L1116 727L1115 726M813 727L814 728L813 727M812 729L813 730L812 729M1116 729L1117 730L1116 729M811 731L812 732L811 731M1117 731L1118 732L1117 731M810.333 733.667L810.667 734.333L810.333 733.667M1118 733L1119 734L1118 733M1119.33 735.667L1119.67 736.333L1119.33 735.667M809 736L810 737L809 736M808.333 738.667L808.667 739.333L808.333 738.667M1120 738L1121 739L1120 738M807 741L808 742L807 741M1121 741L1122 742L1121 741M806 744L807 745L806 744M1122 744L1123 745L1122 744M805 747L806 748L805 747M1123 747L1124 748L1123 747M804.333 750.667L804.667 751.333L804.333 750.667M1124 750L1125 751L1124 750M1125.33 753.667L1125.67 754.333L1125.33 753.667M803 754L804 755L803 754M1126.33 757.667L1126.67 758.333L1126.33 757.667M802.333 758.667L802.667 759.333L802.333 758.667M1127.33 761.667L1127.67 762.333L1127.33 761.667M801.333 762.667L801.667 763.333L801.333 762.667M1128 766L1128 769L1129 769L1128 766M800.333 767.667L800.667 768.333L800.333 767.667M1129 772L1129 775L1130 775L1129 772M799 773L799 776L800 776L799 773M1130 779L1130 784L1131 784L1130 779M798 781L798 787L799 787L798 781M798 809L798 815L799 815L798 809M1130 811L1130 817L1131 817L1130 811M799 820L799 823L800 823L799 820M1129 821L1129 824L1130 824L1129 821M800 826L800 829L801 829L800 826M1128 827L1128 830L1129 830L1128 827M801.333 832.667L801.667 833.333L801.333 832.667M1127.33 833.667L1127.67 834.333L1127.33 833.667M802.333 836.667L802.667 837.333L802.333 836.667M1126.33 837.667L1126.67 838.333L1126.33 837.667M803.333 840.667L803.667 841.333L803.333 840.667M1125.33 841.667L1125.67 842.333L1125.33 841.667M804.333 844.667L804.667 845.333L804.333 844.667M1124 845L1125 846L1124 845M805.333 847.667L805.667 848.333L805.333 847.667M1123 848L1124 849L1123 848M806 851L807 852L806 851M1122 851L1123 852L1122 851M807.333 853.667L807.667 854.333L807.333 853.667M1121 854L1122 855L1121 854M808 856L809 857L808 856M1120 857L1121 858L1120 857M809 859L810 860L809 859M1119 859L1120 860L1119 859M810 861L811 862L810 861M1118 862L1119 863L1118 862M811 864L812 865L811 864M1117 864L1118 865L1117 864M812 866L813 867L812 866M1116 866L1117 867L1116 866M813 868L814 869L813 868M1115 868L1116 869L1115 868M814 870L815 871L814 870M1114 871L1115 872L1114 871M815 872L816 873L815 872M1113 873L1114 874L1113 873M816 874L817 875L816 874M817 876L818 877L817 876M1111 876L1112 877L1111 876M818 878L819 879L818 878M1110 878L1111 879L1110 878M819 880L820 881L819 880M1109 880L1110 881L1109 880M1108 882L1109 883L1108 882M821 883L822 884L821 883M822 885L823 886L822 885M1106 885L1107 886L1106 885M824 888L825 889L824 888M1104 888L1105 889L1104 888M826 891L827 892L826 891M1102 891L1103 892L1102 891M828 894L829 895L828 894M1100 894L1101 895L1100 894M829 895L830 896L829 895M1098 897L1099 898L1098 897M831 898L832 899L831 898M1097 898L1098 899L1097 898M832 899L833 900L832 899M1095 901L1096 902L1095 901M834 902L835 903L834 902M1094 902L1095 903L1094 902M835 903L836 904L835 903M1093 903L1094 904L1093 903M836 904L837 905L836 904M1090 907L1091 908L1090 907M839 908L840 909L839 908M1089 908L1090 909L1089 908M840 909L841 910L840 909M1088 909L1089 910L1088 909M841 910L842 911L841 910M1087 910L1088 911L1087 910M842 911L843 912L842 911M843 912L844 913L843 912M844 913L845 914L844 913M845 914L846 915L845 914M846 915L847 916L846 915M847 916L848 917L847 916M848 917L849 918L848 917M849 918L850 919L849 918M850 919L851 920L850 919M851 920L852 921L851 920M1077 920L1078 921L1077 920M852 921L853 922L852 921M1076 921L1077 922L1076 921M853 922L854 923L853 922M1075 922L1076 923L1075 922M1074 923L1075 924L1074 923M858 926L859 927L858 926M859 927L860 928L859 927M1069 927L1070 928L1069 927M1068 928L1069 929L1068 928M863 930L864 931L863 930M1065 930L1066 931L1065 930M864 931L865 932L864 931M1064 931L1065 932L1064 931M867 933L868 934L867 933M1061 933L1062 934L1061 933M1060 934L1061 935L1060 934M870 935L871 936L870 935M1057 936L1058 937L1057 936M873 937L874 938L873 937M1054 938L1055 939L1054 938M876 939L877 940L876 939M1052 939L1053 940L1052 939M879 941L880 942L879 941M1049 941L1050 942L1049 941M881 942L882 943L881 942M1047 942L1048 943L1047 942M883 943L884 944L883 943M1044 944L1045 945L1044 944M886 945L887 946L886 945M1042 945L1043 946L1042 945M888 946L889 947L888 946M1040 946L1041 947L1040 946M890 947L891 948L890 947M1038 947L1039 948L1038 947M892 948L893 949L892 948M1036 948L1037 949L1036 948M894 949L895 950L894 949M1034 949L1035 950L1034 949M897 950L898 951L897 950M1031.67 950.333L1032.33 950.667L1031.67 950.333M899 951L900 952L899 951M1029 951L1030 952L1029 951M901 952L902 953L901 952M1027 952L1028 953L1027 952M904 953L905 954L904 953M1024 953L1025 954L1024 953M906.667 954.333L907.333 954.667L906.667 954.333M1022 954L1023 955L1022 954M909 955L910 956L909 955M1019 955L1020 956L1019 955M912 956L913 957L912 956M1016 956L1017 957L1016 956M915.667 957.333L916.333 957.667L915.667 957.333M1012.67 957.333L1013.33 957.667L1012.67 957.333M919 958L920 959L919 958M1009 958L1010 959L1009 958M922.667 959.333L923.333 959.667L922.667 959.333M1005.67 959.333L1006.33 959.667L1005.67 959.333M926.667 960.333L927.333 960.667L926.667 960.333M1001.67 960.333L1002.33 960.667L1001.67 960.333M931.667 961.333L932.333 961.667L931.667 961.333M996.667 961.333L997.333 961.667L996.667 961.333M936 962L936 963L939 963L936 962M990 962L990 963L993 963L990 962M943 963L943 964L947 964L943 963M982 963L982 964L986 964L982 963M954 964L954 965L975 965L954 964M611 965L611 966L616 966L611 965z"/>
<path style="fill:#13c6bf; stroke:none;" d="M798 965L673 965C647.148 965 620.373 962.838 595 968.651C564.756 975.58 537.017 989.992 515 1012C495.812 1031.18 481.537 1053.16 473.001 1079C467.304 1096.24 465 1113.91 465 1132C465 1240.62 571.728 1320.39 676 1291.85C695.299 1286.57 713.98 1277.63 730 1265.62C746.556 1253.21 761.656 1237.77 772.399 1220C784.355 1200.22 792.644 1178.95 795.87 1156C799.346 1131.26 798 1105.94 798 1081L798 965z"/>
<path style="fill:#199a68; stroke:none;" d="M604 966L604 967L607 967L604 966M599.667 967.333L600.333 967.667L599.667 967.333M594.667 968.333L595.333 968.667L594.667 968.333M590.667 969.333L591.333 969.667L590.667 969.333M586.667 970.333L587.333 970.667L586.667 970.333M583 971L584 972L583 971M579.667 972.333L580.333 972.667L579.667 972.333M576.667 973.333L577.333 973.667L576.667 973.333M574 974L575 975L574 974M571 975L572 976L571 975M568.667 976.333L569.333 976.667L568.667 976.333M566 977L567 978L566 977M564 978L565 979L564 978M561.667 979.333L562.333 979.667L561.667 979.333M559 980L560 981L559 980M557 981L558 982L557 981M555 982L556 983L555 982M553 983L554 984L553 983M550 985L551 986L550 985M548 986L549 987L548 986M546 987L547 988L546 987M543 989L544 990L543 989M541 990L542 991L541 990M540 991L541 992L540 991M538 992L539 993L538 992M537 993L538 994L537 993M535 994L536 995L535 994M534 995L535 996L534 995M531 997L532 998L531 997M530 998L531 999L530 998M527 1000L528 1001L527 1000M526 1001L527 1002L526 1001M525 1002L526 1003L525 1002M521 1005L522 1006L521 1005M520 1006L521 1007L520 1006M519 1007L520 1008L519 1007M518 1008L519 1009L518 1008M517 1009L518 1010L517 1009M516 1010L517 1011L516 1010M515 1011L516 1012L515 1011M514 1012L515 1013L514 1012M513 1013L514 1014L513 1013M512 1014L513 1015L512 1014M511 1015L512 1016L511 1015M510 1016L511 1017L510 1016M509 1017L510 1018L509 1017M508 1018L509 1019L508 1018M507 1019L508 1020L507 1019M506 1020L507 1021L506 1020M505 1021L506 1022L505 1021M502 1025L503 1026L502 1025M501 1026L502 1027L501 1026M500 1027L501 1028L500 1027M498 1030L499 1031L498 1030M497 1031L498 1032L497 1031M495 1034L496 1035L495 1034M494 1035L495 1036L494 1035M493 1037L494 1038L493 1037M492 1038L493 1039L492 1038M491 1040L492 1041L491 1040M490 1041L491 1042L490 1041M489 1043L490 1044L489 1043M487 1046L488 1047L487 1046M486 1048L487 1049L486 1048M485 1050L486 1051L485 1050M483 1053L484 1054L483 1053M482 1055L483 1056L482 1055M481 1057L482 1058L481 1057M480 1059L481 1060L480 1059M479.333 1061.67L479.667 1062.33L479.333 1061.67M478 1064L479 1065L478 1064M477 1066L478 1067L477 1066M476.333 1068.67L476.667 1069.33L476.333 1068.67M475 1071L476 1072L475 1071M474 1074L475 1075L474 1074M473.333 1076.67L473.667 1077.33L473.333 1076.67M472.333 1079.67L472.667 1080.33L472.333 1079.67M471 1083L472 1084L471 1083M470.333 1086.67L470.667 1087.33L470.333 1086.67M469.333 1090.67L469.667 1091.33L469.333 1090.67M468.333 1094.67L468.667 1095.33L468.333 1094.67M467.333 1099.67L467.667 1100.33L467.333 1099.67M466 1104L466 1107L467 1107L466 1104M465 1111L465 1116L466 1116L465 1111M464 1123L464 1139L465 1139L464 1123M797 1139L797 1146L798 1146L797 1139M465 1147L465 1151L466 1151L465 1147M796 1151L796 1155L797 1155L796 1151M466 1155L466 1158L467 1158L466 1155M795 1158L795 1161L796 1161L795 1158M467 1161L467 1164L468 1164L467 1161M794.333 1164.67L794.667 1165.33L794.333 1164.67M468 1166L468 1169L469 1169L468 1166M793.333 1169.67L793.667 1170.33L793.333 1169.67M469.333 1171.67L469.667 1172.33L469.333 1171.67M792.333 1173.67L792.667 1174.33L792.333 1173.67M470.333 1175.67L470.667 1176.33L470.333 1175.67M791 1177L792 1178L791 1177M471.333 1178.67L471.667 1179.33L471.333 1178.67M790.333 1180.67L790.667 1181.33L790.333 1180.67M472 1182L473 1183L472 1182M789.333 1183.67L789.667 1184.33L789.333 1183.67M473 1185L474 1186L473 1185M788.333 1186.67L788.667 1187.33L788.333 1186.67M474 1188L475 1189L474 1188M787 1189L788 1190L787 1189M475.333 1190.67L475.667 1191.33L475.333 1190.67M786 1192L787 1193L786 1192M476 1193L477 1194L476 1193M785 1194L786 1195L785 1194M477.333 1195.67L477.667 1196.33L477.333 1195.67M784.333 1196.67L784.667 1197.33L784.333 1196.67M478 1198L479 1199L478 1198M783 1199L784 1200L783 1199M479 1200L480 1201L479 1200M782 1201L783 1202L782 1201M480 1202L481 1203L480 1202M781 1203L782 1204L781 1203M481 1204L482 1205L481 1204M780 1205L781 1206L780 1205M482 1206L483 1207L482 1206M779 1207L780 1208L779 1207M483 1208L484 1209L483 1208M778 1209L779 1210L778 1209M484 1210L485 1211L484 1210M777 1211L778 1212L777 1211M485 1212L486 1213L485 1212M776 1213L777 1214L776 1213M486 1214L487 1215L486 1214M775 1214L776 1215L775 1214M487 1215L488 1216L487 1215M774 1216L775 1217L774 1216M488 1217L489 1218L488 1217M773 1218L774 1219L773 1218M772 1219L773 1220L772 1219M490 1220L491 1221L490 1220M771 1221L772 1222L771 1221M491 1222L492 1223L491 1222M492 1223L493 1224L492 1223M769 1224L770 1225L769 1224M493 1225L494 1226L493 1225M494 1226L495 1227L494 1226M767 1227L768 1228L767 1227M766 1228L767 1229L766 1228M496 1229L497 1230L496 1229M497 1230L498 1231L497 1230M764 1231L765 1232L764 1231M763 1232L764 1233L763 1232M499 1233L500 1234L499 1233M500 1234L501 1235L500 1234M761 1235L762 1236L761 1235M760 1236L761 1237L760 1236M502 1237L503 1238L502 1237M759 1237L760 1238L759 1237M503 1238L504 1239L503 1238M504 1239L505 1240L504 1239M505 1240L506 1241L505 1240M757 1240L758 1241L757 1240M506 1241L507 1242L506 1241M756 1241L757 1242L756 1241M755 1242L756 1243L755 1242M754 1243L755 1244L754 1243M753 1244L754 1245L753 1244M509 1245L510 1246L509 1245M752 1245L753 1246L752 1245M510 1246L511 1247L510 1246M751 1246L752 1247L751 1246M511 1247L512 1248L511 1247M750 1247L751 1248L750 1247M512 1248L513 1249L512 1248M749 1248L750 1249L749 1248M513 1249L514 1250L513 1249M748 1249L749 1250L748 1249M514 1250L515 1251L514 1250M747 1250L748 1251L747 1250M515 1251L516 1252L515 1251M746 1251L747 1252L746 1251M516 1252L517 1253L516 1252M745 1252L746 1253L745 1252M744 1253L745 1254L744 1253M743 1254L744 1255L743 1254M742 1255L743 1256L742 1255M521 1256L522 1257L521 1256M741 1256L742 1257L741 1256M522 1257L523 1258L522 1257M740 1257L741 1258L740 1257M523 1258L524 1259L523 1258M524 1259L525 1260L524 1259M737 1259L738 1260L737 1259M736 1260L737 1261L736 1260M527 1261L528 1262L527 1261M735 1261L736 1262L735 1261M528 1262L529 1263L528 1262M529 1263L530 1264L529 1263M732 1263L733 1264L732 1263M731 1264L732 1265L731 1264M532 1265L533 1266L532 1265M533 1266L534 1267L533 1266M728 1266L729 1267L728 1266M535 1267L536 1268L535 1267M727 1267L728 1268L727 1267M536 1268L537 1269L536 1268M724 1269L725 1270L724 1269M539 1270L540 1271L539 1270M721 1271L722 1272L721 1271M542 1272L543 1273L542 1272M719 1272L720 1273L719 1272M544 1273L545 1274L544 1273M718 1273L719 1274L718 1273M545 1274L546 1275L545 1274M716 1274L717 1275L716 1274M547 1275L548 1276L547 1275M714 1275L715 1276L714 1275M549 1276L550 1277L549 1276M713 1276L714 1277L713 1276M551 1277L552 1278L551 1277M711 1277L712 1278L711 1277M552 1278L553 1279L552 1278M709 1278L710 1279L709 1278M554 1279L555 1280L554 1279M707 1279L708 1280L707 1279M556 1280L557 1281L556 1280M705 1280L706 1281L705 1280M558 1281L559 1282L558 1281M703 1281L704 1282L703 1281M560 1282L561 1283L560 1282M701 1282L702 1283L701 1282M563 1283L564 1284L563 1283M699 1283L700 1284L699 1283M565 1284L566 1285L565 1284M697 1284L698 1285L697 1284M567 1285L568 1286L567 1285M694 1285L695 1286L694 1285M570 1286L571 1287L570 1286M692 1286L693 1287L692 1286M572.667 1287.33L573.333 1287.67L572.667 1287.33M689 1287L690 1288L689 1287M575 1288L576 1289L575 1288M686.667 1288.33L687.333 1288.67L686.667 1288.33M578 1289L579 1290L578 1289M683.667 1289.33L684.333 1289.67L683.667 1289.33M581.667 1290.33L582.333 1290.67L581.667 1290.33M680.667 1290.33L681.333 1290.67L680.667 1290.33M584.667 1291.33L585.333 1291.67L584.667 1291.33M677 1291L678 1292L677 1291M588.667 1292.33L589.333 1292.67L588.667 1292.33M673.667 1292.33L674.333 1292.67L673.667 1292.33M592.667 1293.33L593.333 1293.67L592.667 1293.33M669.667 1293.33L670.333 1293.67L669.667 1293.33M596 1294L596 1295L599 1295L596 1294M664.667 1294.33L665.333 1294.67L664.667 1294.33M601 1295L601 1296L604 1296L601 1295M658 1295L658 1296L661 1296L658 1295M607 1296L607 1297L611 1297L607 1296M651 1296L651 1297L655 1297L651 1296M616 1297L616 1298L623 1298L616 1297M639 1297L639 1298L646 1298L639 1297z"/>
</svg>
