<?xml version="1.0" standalone="yes"?>
<svg xmlns="http://www.w3.org/2000/svg" width="1767" height="2048">
<path style="fill:#9f9f9f; stroke:none;" d="M1459 27.4244C1430.83 31.1233 1405.7 38.6411 1384 58.1705C1372.57 68.4551 1363 81.1763 1356.26 95C1314.01 181.7 1387.17 281.397 1482 269.714C1499.28 267.585 1516.32 261.342 1531 252.047C1602.73 206.615 1605.93 98.7036 1537 49.1552C1525.74 41.0615 1512.44 34.7834 1499 31.3743C1486.29 28.1514 1472.12 25.702 1459 27.4244z"/>
<path style="fill:#f37727; stroke:none;" d="M129 719C135.963 713.875 140.988 706.178 147.015 700C160.302 686.379 173.629 672.778 188 660.282C234.428 619.911 285.596 585.488 340 556.781C562.752 439.244 832.6 410.361 1079 448.576C1164.58 461.847 1250.95 482.858 1331 516.424C1402.41 546.365 1472.77 581.696 1534 629.662C1556.56 647.336 1578.61 665.837 1599 686.004C1609.08 695.974 1618.77 711.995 1631 719C1625.89 697.444 1614.19 676.007 1604.89 656C1575.51 592.829 1537.58 534.655 1493.25 481C1448.91 427.336 1396.53 380.991 1340 340.579C1041.62 127.27 615.84 154.933 344.576 400.116C272.198 465.534 210.476 543.553 166.753 631C156.881 650.744 147.206 670.49 139 691C135.383 700.041 130.432 709.301 129 719z"/>
<path style="fill:#fa8121; stroke:none;" d="M840 196L841 197L840 196M823 197L824 198L823 197M959 199L960 200L959 199M969 200L970 201L969 200M977 201L978 202L977 201M999 204L1000 205L999 204M741 207L742 208L741 207M1023 208L1024 209L1023 208M730 209L731 210L730 209M715 212L716 213L715 212M1048 213L1049 214L1048 213M706 214L707 215L706 214M697 216L698 217L697 216M693 217L694 218L693 217z"/>
<path style="fill:#9f9f9f; stroke:none;" d="M150 218.439C137.318 220.416 124.644 224.768 114 232.029C52.8707 273.724 66.7288 375.331 142 391.986C152.533 394.317 164.266 395.11 175 393.572C187.694 391.753 200.206 387.275 211 380.301C275.062 338.912 257.952 237.949 184 219.898C173.491 217.333 160.71 216.77 150 218.439z"/>
<path style="fill:#fa8121; stroke:none;" d="M673 222L674 223L673 222M669 223L670 224L669 223M655 227L656 228L655 227M1120 232L1121 233L1120 232M1123 233L1124 234L1123 233M1126 234L1127 235L1126 234M626 236L627 237L626 236M1141 239L1142 240L1141 239M1158 245L1159 246L1158 245M585 251L586 252L585 251M580 253L581 254L580 253M1181 254L1182 255L1181 254M575 255L576 256L575 255M1186 256L1187 257L1186 256M570 257L571 258L570 257M563 260L564 261L563 260M556 263L557 264L556 263M554 264L555 265L554 264M545 268L546 269L545 268M543 269L544 270L543 269M1222 272L1223 273L1222 272M528 276L529 277L528 276M522 279L523 280L522 279M520 280L521 281L520 280M518 281L519 282L518 281M516 282L517 283L516 282M514 283L515 284L514 283M512 284L513 285L512 284M1254 288L1255 289L1254 288M1256 289L1257 290L1256 289M499 291L500 292L499 291M488 297L489 298L488 297M486 298L487 299L486 298M1274 299L1275 300L1274 299M481 301L482 302L481 301M1281 303L1282 304L1281 303M1288 307L1289 308L1288 307M1293 310L1294 311L1293 310M1298 313L1299 314L1298 313M1306 318L1307 319L1306 318M451 319L452 320L451 319M1309 320L1310 321L1309 320M434 330L435 331L434 330M1326 331L1327 332L1326 331M421 339L422 340L421 339M1339 340L1340 341L1339 340M418 341L419 342L418 341M414 344L415 345L414 344M1346 345L1347 346L1346 345M411 346L412 347L411 346M1349 347L1350 348L1349 347M407 349L408 350L407 349M403 352L404 353L403 352M1357 353L1358 354L1357 353M1361 356L1362 357L1361 356M396 357L397 358L396 357M391 361L392 362L391 361M1369 362L1370 363L1369 362M387 364L388 365L387 364M382 368L383 369L382 368M1379 370L1380 371L1379 370M1384 374L1385 375L1384 374M366 381L367 382L366 381M1395 383L1396 384L1395 383M353 392L354 393L353 392M1409 395L1410 396L1409 395M344 400L345 401L344 400M343 401L344 402L343 401M1419 404L1420 405L1419 404M1421 406L1422 407L1421 406M332 411L333 412L332 411M1434 418L1435 419L1434 418M1435 419L1436 420L1435 419M1436 420L1437 421L1436 420M1438 422L1439 423L1438 422M1440 424L1441 425L1440 424M1445 429L1446 430L1445 429M1446 430L1447 431L1446 430M1448 432L1449 433L1448 432M854 433L855 434L854 433M937 434L938 435L937 434M801 435L802 436L801 435M957 435L958 436L957 435M1451 435L1452 436L1451 435M786 436L787 437L786 436M1452 436L1453 437L1452 436M773 437L774 438L773 437M750 439L751 440L750 439M1455 439L1456 440L1455 439M740 440L741 441L740 440M731 441L732 442L731 441M1027 441L1028 442L1027 441M1457 441L1458 442L1457 441M722 442L723 443L722 442M714 443L715 444L714 443M1044 443L1045 444L1044 443M692 446L693 447L692 446M1066 446L1067 447L1066 446M685 447L686 448L685 447M295 448L296 449L295 448M660 451L661 452L660 451M1098 451L1099 452L1098 451M643 454L644 455L643 454M638 455L639 456L638 455M1120 455L1121 456L1120 455M599 463L600 464L599 463M1163 464L1164 465L1163 464M590 465L591 466L590 465M586 466L587 467L586 466M1480 466L1481 467L1480 466M1176 467L1177 468L1176 467M1184 469L1185 470L1184 469M1192 471L1193 472L1192 471M270 476L271 477L270 476M1211 476L1212 477L1211 476M269 477L270 478L269 477M1215 477L1216 478L1215 477M1222 479L1223 480L1222 479M1492 480L1493 481L1492 480M264 483L265 484L264 483M1236 483L1237 484L1236 483M1239 484L1240 485L1239 484M1246 486L1247 487L1246 486M1497 486L1498 487L1497 486M502 489L503 490L502 489M499 490L500 491L499 490M496 491L497 492L496 491M493 492L494 493L493 492M1502 492L1503 493L1502 492M255 494L256 495L255 494M478 497L479 498L478 497M1506 497L1507 498L1506 497M1291 501L1292 502L1291 501M1509 501L1510 502L1509 501M1294 502L1295 503L1294 502M244 508L245 509L244 508M1313 509L1314 510L1313 509M442 510L443 511L442 510M1318 511L1319 512L1318 511M241 512L242 513L241 512M1326 514L1327 515L1326 514M1519 514L1520 515L1519 514M1331 516L1332 517L1331 516M1522 518L1523 519L1522 518M235 520L236 521L235 520M1525 522L1526 523L1525 522M1528 526L1529 527L1528 526M229 528L230 529L229 528M396 529L397 530L396 529M1364 530L1365 531L1364 530M387 533L388 534L387 533M1373 534L1374 535L1373 534M1375 535L1376 536L1375 535M372 540L373 541L372 540M220 541L221 542L220 541M1540 543L1541 544L1540 543M1546 552L1547 553L1546 552M1414 554L1415 555L1414 554M1548 555L1549 556L1548 555M340 556L341 557L340 556M1418 556L1419 557L1418 556M338 557L339 558L338 557M336 558L337 559L336 558M1431 563L1432 564L1431 563M325 564L326 565L325 564M1442 569L1443 570L1442 569M1557 569L1558 570L1557 569M297 580L298 581L297 580M1565 582L1566 583L1565 582M292 583L293 584L292 583M284 588L285 589L284 588M1474 588L1475 589L1474 588M1479 591L1480 592L1479 591M1571 592L1572 593L1571 592M187 593L188 594L187 593M276 593L277 594L276 593M1482 593L1483 594L1482 593M180 605L181 606L180 605M1579 606L1580 607L1579 606M1580 608L1581 609L1580 608M249 611L250 612L249 611M1512 613L1513 614L1512 613M1585 617L1586 618L1585 617M1519 618L1520 619L1519 618M238 619L239 620L238 619M1586 619L1587 620L1586 619M1527 624L1528 625L1527 624M1531 627L1532 628L1531 627M1535 630L1536 631L1535 630M222 631L223 632L222 631M208 642L209 643L208 642M1554 645L1555 646L1554 645M1604 655L1605 656L1604 655M1605 657L1606 658L1605 657M188 659L189 660L188 659M1606 659L1607 660L1606 659M1576 664L1577 665L1576 664M180 666L181 667L180 666M178 668L179 669L178 668M1611 670L1612 671L1611 670M1589 676L1590 677L1589 676M1614 677L1615 678L1614 677M161 684L162 685L161 684M1617 684L1618 685L1617 684M160 685L161 686L160 685M1620 691L1621 692L1620 691M1611 698L1612 699L1611 698M1612 699L1613 700L1612 699M1624 701L1625 702L1624 701M1626 706L1627 707L1626 706M128 718L129 719L128 718z"/>
<path style="fill:#9f9f9f; stroke:none;" d="M665 853L666 854L665 853M681 853L682 854L681 853M692 854L693 855L692 854M1426 854L1427 855L1426 854M1428 854L1429 855L1428 854M650 855L651 856L650 855M1444 855L1445 856L1444 855M1404 856L1405 857L1404 856M1702 856L1703 857L1702 856M642 857L643 858L642 857M706 857L707 858L706 857M1455 857L1456 858L1455 857M1699 857L1700 858L1699 857M639 858L640 859L639 858M820 858L821 859L820 858M228 859L229 860L228 859M537 859L538 860L537 859M1463 859L1464 860L1463 859M1694 859L1695 860L1694 859M276 860L276 1004L277 1004L277 903C277 890.794 280.707 871.218 276 860M820 860L821 861L820 860M1692 860L1693 861L1692 860M1385 861L1386 862L1385 861M1688 862L1689 863L1688 862M537 863L538 864L537 863M1686 863L1687 864L1686 863M1014 864L1015 865L1014 864M1065 865L1066 866L1065 865M581 868L582 869L581 868M734 870L735 871L734 870M824 870L825 871L824 870M1012 870L1013 871L1012 870M737 872L738 873L737 872M879 874L880 875L879 874M1492 874L1493 875L1492 874M741 875L743 877L741 875M1358 875L1359 876L1358 875M538.333 878.667L538.667 879.333L538.333 878.667M1060 878L1061 879L1060 878M748 881L753 886L748 881M1500 881L1503 884L1500 881M882 882L883 883L882 882M1664 882L1665 883L1664 882M598 883L599 884L598 883M883 885L884 886L883 885M1661 886L1662 887L1661 886M831 887L832 888L831 887M1437 887L1438 888L1437 887M582 888L583 889L582 888M1343 888L1344 889L1343 888M1407 889L1408 890L1407 889M1445 889L1446 890L1445 889M1659 889L1660 890L1659 889M885 890L886 891L885 890M1341 890L1340 892L1341 890M1404 890L1405 891L1404 890M1508 890L1509 891L1508 890M1055 891L1056 892L1055 891M1401 891L1402 892L1401 891M590 892L591 893L590 892M659 892L660 893L659 892M669 892L670 893L669 892M833 892L834 893L833 892M1399 892L1400 893L1399 892M676 893L677 894L676 893M1511 894L1512 895L1511 894M645 895L646 896L645 895M1458 895L1459 896L1458 895M642 896L643 897L642 896M1391 896L1392 897L1391 896M690 897L691 898L690 897M835 897L836 898L835 897M692 898L693 899L692 898M1334 898L1335 899L1334 898M1654 898L1655 899L1654 898M1735 898L1736 899L1735 898M1386 899L1387 900L1386 899M1464 899L1465 900L1464 899M764 900L765 901L764 900M1515 900L1516 901L1515 900M889 901L890 902L889 901M1331 902L1332 903L1331 902M1699 902L1700 903L1699 902M627 903L628 904L627 903M766 903L767 904L766 903M1652 903L1653 904L1652 903M1050 904L1051 905L1050 904M1470 904L1474 908L1470 904M1694 904L1695 905L1694 904M1000 905L1001 906L1000 905M1329 905L1330 906L1329 905M1692 905L1693 906L1692 905M1690 906L1691 907L1690 906M621 907L622 908L621 907M839 907L840 908L839 907M1376 907L1374 910L1376 907M1519 907L1520 908L1519 907M769 908L770 909L769 908M999 908L1000 909L999 908M1327 908L1328 909L1327 908M709 909L710 910L709 909M1685 909L1686 910L1685 909M617 910L618 911L617 910M998 911L999 912L998 911M1682 911L1683 912L1682 911M1324 913L1325 914L1324 913M716 916L717 917L716 916M843 917L844 918L843 917M895 917L896 918L895 917M1045 917L1046 918L1045 917M774 918L775 919L774 918M1524 918L1525 919L1524 918M1673 919L1674 920L1673 919M775 920L776 921L775 920M1483 921L1484 922L1483 921M1484 923L1485 924L1484 923M777 925L778 926L777 925M1362 925L1363 926L1362 925M1668 925L1669 926L1668 925M724 927L725 928L724 927M1666 928L1667 929L1666 928M1316 929L1317 930L1316 929M1040 930L1041 931L1040 930M780 933L781 934L780 933M1358 933L1359 934L1358 933M1529 933L1530 934L1529 933M1663 933L1664 934L1663 933M597 934L598 935L597 934M850 934L851 935L850 934M596 936L597 937L596 936M1661 937L1662 938L1661 937M595 938L596 939L595 938M852 939L853 940L852 939M594 940L595 941L594 940M904 941L905 942L904 941M1355 941L1356 942L1355 941M1531 941L1532 942L1531 941M1035 943L1036 944L1035 943M854 944L855 945L854 944M592 945L593 946L592 945M733 946L734 947L733 946M784 948L785 949L784 948M1657 948L1658 949L1657 948M734 949L735 950L734 949M907 949L908 950L907 949M985 949L986 950L985 949M1656 953L1657 954L1656 953M858 954L859 955L858 954M983 955L984 956L983 955M736 956L737 957L736 956M1030 956L1031 957L1030 956M1352 956L1353 957L1352 956M786 959L787 960L786 959M1307 959L1308 960L1307 959M588 960L589 961L588 960M862 964L863 965L862 964M1306 964L1307 965L1306 964M913 965L914 966L913 965M1654 967L1655 968L1654 967M1025 969L1026 970L1025 969M587 970L587 1015L588 1015C588 1002.26 591.91 981.701 587 970M739 973L740 974L739 973M916 973L917 974L916 973M1535 978L1536 979L1535 978M1304.33 980.667L1304.67 981.333L1304.33 980.667M869 981L870 982L869 981M919 981L920 982L919 981M1020 982L1021 983L1020 982M920 984L921 985L920 984M871 986L872 987L871 986M873 991L874 992L873 991M923 992L924 993L923 992M970 993L971 994L970 993M1015 995L1016 996L1015 995M969 996L970 997L969 996M1535 999L1536 1000L1535 999M877 1001L878 1002L877 1001M1351 1002L1352 1003L1351 1002M276 1005L277 1006L276 1005M739 1005L740 1006L739 1005M787 1006L788 1007L787 1006M929 1008L930 1009L929 1008M1010 1008L1011 1009L1010 1008M1351 1008L1352 1009L1351 1008M881 1011L882 1012L881 1011M737 1018L738 1019L737 1018M933 1019L934 1020L933 1019M1005 1021L1006 1022L1005 1021M1304 1021L1305 1022L1304 1021M277 1023L278 1024L277 1023M1353 1023L1354 1024L1353 1023M401 1024L402 1025L401 1024M935 1025L936 1026L935 1025M588 1026L589 1027L588 1026M1354 1027L1355 1028L1354 1027M888 1028L889 1029L888 1028M936 1028L937 1029L936 1028M958 1029L959 1030L958 1029M278 1030L279 1031L278 1030M734 1030L735 1031L734 1030M400 1031L401 1032L400 1031M937 1031L938 1032L937 1031M228 1032L229 1033L228 1032M890 1033L891 1034L890 1033M1000 1034L1001 1035L1000 1034M279 1036L280 1037L279 1036M590 1036L591 1037L590 1036M732 1036L733 1037L732 1036M956 1036L957 1037L956 1036M280 1040L281 1041L280 1040M229 1041L230 1042L229 1041M730 1041L731 1042L730 1041M592 1042L593 1043L592 1042M953 1046L954 1047L953 1046M282 1047L283 1048L282 1047M942 1047L943 1048L942 1047M995 1047L996 1048L995 1047M450 1048L451 1049L450 1048M896 1048L897 1049L896 1048M1311 1049L1312 1050L1311 1049M1365 1051L1366 1052L1365 1051M597 1052L598 1053L597 1052M449 1053L449 1057L450 1057L449 1053M391 1054L392 1055L391 1054M1313 1054L1314 1055L1313 1054M775 1055L776 1056L775 1055M1196 1056L1197 1057L1196 1056M900 1058L901 1059L900 1058M949 1059L950 1060L949 1059M1371 1059L1372 1060L1371 1059M233 1061L234 1062L233 1061M603 1061L605 1063L603 1061M291 1065L292 1066L291 1065M714 1066L715 1067L714 1066M379 1068L380 1069L379 1068M986 1069L987 1070L986 1069M1381 1069L1382 1070L1381 1069M613 1071L615 1073L613 1071M709 1071L710 1072L709 1071M374 1072L375 1073L374 1072M1385 1072L1386 1073L1385 1072M984 1074L985 1075L984 1074M1203 1074L1204 1075L1203 1074M368 1076L369 1077L368 1076M1391 1076L1392 1077L1391 1076M701 1077L702 1078L701 1077M1150 1077L1151 1078L1150 1077M1326 1077L1327 1078L1326 1077M362 1079L363 1080L362 1079M240 1080L241 1081L240 1080M360 1080L361 1081L360 1080M405 1080L404 1082L405 1080M1151 1080L1152 1081L1151 1080M1398 1080L1399 1081L1398 1080M357 1081L358 1082L357 1081M694 1081L695 1082L694 1081M1329 1081L1330 1082L1329 1081M241 1082L242 1083L241 1082M354 1082L355 1083L354 1082M630 1082L631 1083L630 1082M1491 1082L1492 1083L1491 1082M318 1083L319 1084L318 1083M1257 1083L1258 1084L1257 1083M1487 1083L1488 1084L1487 1083M635 1084L636 1085L635 1084M684 1085L685 1086L684 1085M757 1085L758 1086L757 1085M1153 1085L1154 1086L1153 1085M1258 1085L1259 1086L1258 1085M1411 1085L1412 1086L1411 1085M1478 1085L1479 1086L1478 1085M1472 1086L1473 1087L1472 1086M587 1087L587 1228L588 1228L588 1129C588 1117.06 591.607 1097.98 587 1087M646 1087L647 1088L646 1087M1516 1087L1517 1088L1516 1087M652 1088L653 1089L652 1088M1453 1088L1454 1089L1453 1088M245 1089L246 1090L245 1089M913 1090L914 1091L913 1090M247 1092L248 1093L247 1092M591 1092L592 1093L591 1092M751 1092L750 1094L751 1092M395 1093L396 1094L395 1093M915 1095L916 1096L915 1095M1518 1096L1519 1097L1518 1096M917 1100L918 1101L917 1100M1519 1100L1520 1101L1519 1100M254 1101L256 1103L254 1101M387 1101L385 1104L387 1101M741 1101L740 1103L741 1101M258 1105L259 1106L258 1105M450.333 1105.67L450.667 1106.33L450.333 1105.67M736 1105L737 1106L736 1105M380 1107L381 1108L380 1107M970 1107L971 1108L970 1107M609 1109L610 1110L609 1109M264 1110L265 1111L264 1110M1519 1112L1520 1113L1519 1112M371 1113L372 1114L371 1113M1367 1113L1368 1114L1367 1113M721 1114L722 1115L721 1114M273 1116L274 1117L273 1116M966 1116L967 1117L966 1116M1373 1116L1374 1117L1373 1116M715 1117L716 1118L715 1117M1375 1117L1376 1118L1375 1117M1505 1117L1506 1118L1505 1117M451 1118L452 1119L451 1118M965 1118L966 1119L965 1118M710 1119L711 1120L710 1119M1260 1119L1261 1120L1260 1119M1380 1119L1381 1120L1380 1119M1499 1119L1500 1120L1499 1119M629 1120L630 1121L629 1120M707 1120L708 1121L707 1120M964 1120L965 1121L964 1120M1653 1120L1654 1121L1653 1120M354 1121L355 1122L354 1121M1187 1121L1188 1122L1187 1121M701 1122L702 1123L701 1122M1252 1122L1253 1123L1252 1122M1487 1122L1488 1123L1487 1122M348 1123L349 1124L348 1123M1248 1123L1249 1124L1248 1123M298 1125L299 1126L298 1125M646 1125L647 1126L646 1125M687 1125L688 1126L687 1125M1237 1125L1238 1126L1237 1125M1471 1125L1472 1126L1471 1125M334 1126L335 1127L334 1126M680 1126L681 1127L680 1126M1208 1126L1209 1127L1208 1126M1226 1126L1227 1127L1226 1126M1463 1126L1464 1127L1463 1126M89 1127L90 1128L89 1127M1413 1127L1414 1128L1413 1127M912 1131L913 1132L912 1131M959 1131L960 1132L959 1131M139 1132L140 1133L139 1132M957 1135L958 1136L957 1135M955 1139L956 1140L955 1139M954 1141L955 1142L954 1141M953 1143L954 1144L953 1143M952 1145L953 1146L952 1145M135 1150L136 1151L135 1150M900 1150L901 1151L900 1150M897 1154L898 1155L897 1154M945 1158L946 1159L945 1158M82 1160L83 1161L82 1160M891 1161L890 1163L891 1161M79 1166L80 1167L79 1166M939 1168L940 1169L939 1168M882 1170L883 1171L882 1170M76 1171L77 1172L76 1171M875 1176L876 1177L875 1176M931 1180L932 1181L931 1180M122 1181L123 1182L122 1181M121 1183L122 1184L121 1183M866 1183L867 1184L866 1183M925 1188L926 1189L925 1188M50 1189L51 1190L50 1189M116 1191L117 1192L116 1191M41 1192L42 1193L41 1192M31 1194L32 1195L31 1194M846 1194L847 1195L846 1194M919 1195L920 1196L919 1195M21 1197L22 1198L21 1197M839 1197L840 1198L839 1197M836 1198L837 1199L836 1198M110 1199L111 1200L110 1199M834 1200L835 1201L834 1200M104 1205L105 1206L104 1205M836 1207L837 1208L836 1207M907 1207L908 1208L907 1207M905 1209L906 1210L905 1209M837 1210L838 1211L837 1210M899 1214L900 1215L899 1214M895 1217L896 1218L895 1217M891 1220L892 1221L891 1220M77 1221L78 1222L77 1221M888 1222L889 1223L888 1222M841 1224L842 1225L841 1224M885 1224L886 1225L885 1224M883 1225L884 1226L883 1225M25 1226L26 1227L25 1226M842 1227L843 1228L842 1227M37 1231L38 1232L37 1231M867 1233L868 1234L867 1233M862 1235L863 1236L862 1235M859 1236L860 1237L859 1236M856 1237L857 1238L856 1237M849 1239L850 1240L849 1239z"/>
<path style="fill:#f37727; stroke:none;" d="M128 1255C152.197 1329.24 194.492 1399.88 241.105 1462C289.294 1526.22 348.222 1584.1 414 1630.28C499.277 1690.15 596.084 1735.5 698 1758.33C972.633 1819.86 1268.86 1735.62 1462.41 1528.17C1518.75 1467.79 1567.74 1399.22 1602.31 1324C1612.47 1301.88 1625.48 1278.86 1631 1255C1623.76 1260.53 1618.43 1268.55 1612 1275C1596.35 1290.68 1580.72 1306.18 1564 1320.71C1521.74 1357.44 1474.16 1388.1 1425 1414.69C1335.72 1462.98 1237.98 1494.28 1139 1515.21C893.925 1567.03 619.137 1546.59 390 1441.69C326.226 1412.49 264.377 1377.13 210 1332.58C190.86 1316.89 172.492 1300.5 155 1283C146.055 1274.05 138.322 1262.33 128 1255z"/>
<path style="fill:#fa8121; stroke:none;" d="M129 1255L130 1256L129 1255M1630 1257L1631 1258L1630 1257M1627 1258L1628 1259L1627 1258M135 1262L136 1263L135 1262M136 1263L137 1264L136 1263M1619 1267L1620 1268L1619 1267M1618 1268L1619 1269L1618 1268M1617 1269L1618 1270L1617 1269M146 1274L147 1275L146 1274M147 1275L148 1276L147 1275M148 1276L149 1277L148 1276M149 1277L150 1278L149 1277M1616 1292L1617 1293L1616 1292M143 1293L144 1294L143 1293M1615 1294L1616 1295L1615 1294M168 1296L169 1297L168 1296M169 1297L170 1298L169 1297M170 1298L171 1299L170 1298M171 1299L172 1300L171 1299M1613 1299L1614 1300L1613 1299M172 1300L173 1301L172 1300M1580 1306L1581 1307L1580 1306M150 1309L151 1310L150 1309M183 1310L184 1311L183 1310M1608 1310L1609 1311L1608 1310M191 1317L192 1318L191 1317M1563 1321L1564 1322L1563 1321M156 1322L157 1323L156 1322M1602 1323L1603 1324L1602 1323M1601 1325L1602 1326L1601 1325M1556 1327L1557 1328L1556 1327M159 1328L160 1329L159 1328M160 1330L161 1331L160 1330M1551 1331L1552 1332L1551 1331M209 1332L210 1333L209 1332M1597 1333L1598 1334L1597 1333M214 1336L215 1337L214 1336M1594 1339L1595 1340L1594 1339M166 1342L167 1343L166 1342M168 1346L169 1347L168 1346M1532 1346L1533 1347L1532 1346M1528 1349L1529 1350L1528 1349M170 1350L171 1351L170 1350M1517 1357L1518 1358L1517 1357M243 1358L244 1359L243 1358M1583 1360L1584 1361L1583 1360M1582 1362L1583 1363L1582 1362M253 1365L254 1366L253 1365M259 1369L260 1370L259 1369M1500 1369L1501 1370L1500 1369M181 1370L182 1371L181 1370M1577 1371L1578 1372L1577 1371M182 1372L183 1373L182 1372M1494 1373L1495 1374L1494 1373M268 1375L269 1376L268 1375M1491 1375L1492 1376L1491 1375M186 1379L187 1380L186 1379M274 1379L275 1380L274 1379M1480 1382L1481 1383L1480 1382M189 1384L190 1385L189 1384M282 1384L283 1385L282 1384M1477 1384L1478 1385L1477 1384M287 1387L288 1388L287 1387M1472 1387L1473 1388L1472 1387M290 1389L291 1390L290 1389M295 1392L296 1393L295 1392M1464 1392L1465 1393L1464 1392M300 1395L301 1396L300 1395M1561 1398L1562 1399L1561 1398M200 1402L201 1403L200 1402M1445 1403L1446 1404L1445 1403M1558 1403L1559 1404L1558 1403M1556 1406L1557 1407L1556 1406M203 1407L204 1408L203 1407M321 1407L322 1408L321 1407M207 1413L208 1414L207 1413M332 1413L333 1414L332 1413M1427 1413L1428 1414L1427 1413M1425 1414L1426 1415L1425 1414M1400 1427L1401 1428L1400 1427M378 1436L379 1437L378 1436M1381 1436L1382 1437L1381 1436M223 1437L224 1438L223 1437M380 1437L381 1438L380 1437M1379 1437L1380 1438L1379 1437M389 1441L390 1442L389 1441M391 1442L392 1443L391 1442M398 1445L399 1446L398 1445M1529 1446L1530 1447L1529 1446M231 1448L232 1449L231 1448M1526 1450L1527 1451L1526 1450M419 1454L420 1455L419 1454M429 1458L430 1459L429 1458M239 1459L240 1460L239 1459M1518 1461L1519 1462L1518 1461M242 1463L243 1464L242 1463M1315 1464L1316 1465L1315 1464M447 1465L448 1466L447 1465M249 1472L250 1473L249 1472M466 1472L467 1473L466 1472M253 1477L254 1478L253 1477M1276 1478L1277 1479L1276 1478M1273 1479L1274 1480L1273 1479M1504 1479L1505 1480L1504 1479M1270 1480L1271 1481L1270 1480M1264 1482L1265 1483L1264 1482M508 1486L509 1487L508 1486M261 1487L262 1488L261 1487M1245 1488L1246 1489L1245 1488M521 1490L522 1491L521 1490M1238 1490L1239 1491L1238 1490M1495 1490L1496 1491L1495 1490M528 1492L529 1493L528 1492M266 1493L267 1494L266 1493M267 1494L268 1495L267 1494M535 1494L536 1495L535 1494M1489 1497L1490 1498L1489 1497M1210 1498L1211 1499L1210 1498M272 1500L273 1501L272 1500M273 1501L274 1502L273 1501M1191 1503L1192 1504L1191 1503M1483 1504L1484 1505L1483 1504M1166 1509L1167 1510L1166 1509M1157 1511L1158 1512L1157 1511M1476 1512L1477 1513L1476 1512M1148 1513L1149 1514L1148 1513M621 1515L622 1516L621 1515M287 1517L288 1518L287 1517M288 1518L289 1519L288 1518M636 1518L637 1519L636 1518M289 1519L290 1520L289 1519M647 1520L648 1521L647 1520M1101 1522L1102 1523L1101 1522M664 1523L665 1524L664 1523M1089 1524L1090 1525L1089 1524M683 1526L684 1527L683 1526M1463 1526L1464 1527L1463 1526M689 1527L690 1528L689 1527M1462 1527L1463 1528L1462 1527M711 1530L712 1531L711 1530M1048 1530L1049 1531L1048 1530M1040 1531L1041 1532L1040 1531M304 1535L305 1536L304 1535M756 1535L757 1536L756 1535M305 1536L306 1537L305 1536M992 1536L993 1537L992 1536M306 1537L307 1538L306 1537M979 1537L980 1538L979 1537M307 1538L308 1539L307 1538M794 1538L795 1539L794 1538M965 1538L966 1539L965 1538M811 1539L812 1540L811 1539M309 1540L310 1541L309 1540M924 1540L925 1541L924 1540M310 1541L311 1542L310 1541M319 1550L320 1551L319 1550M321 1552L322 1553L321 1552M322 1553L323 1554L322 1553M324 1555L325 1556L324 1555M1428 1561L1429 1562L1428 1561M1426 1563L1427 1564L1426 1563M339 1569L340 1570L339 1569M1415 1573L1416 1574L1415 1573M1414 1574L1415 1575L1414 1574M349 1578L350 1579L349 1578M1406 1581L1407 1582L1406 1581M356 1584L357 1585L356 1584M1399 1587L1400 1588L1399 1587M1398 1588L1399 1589L1398 1588M1393 1592L1394 1593L1393 1592M1392 1593L1393 1594L1392 1593M1387 1597L1388 1598L1387 1597M1386 1598L1387 1599L1386 1598M1381 1602L1382 1603L1381 1602M1367 1613L1368 1614L1367 1613M1363 1616L1364 1617L1363 1616M1359 1619L1360 1620L1359 1619M1351 1625L1352 1626L1351 1625M1341 1632L1342 1633L1341 1632M1337 1635L1338 1636L1337 1635M423 1636L424 1637L423 1636M426 1638L427 1639L426 1638M429 1640L430 1641L429 1640M432 1642L433 1643L432 1642M1325 1643L1326 1644L1325 1643M438 1646L439 1647L438 1646M441 1648L442 1649L441 1648M1313 1651L1314 1652L1313 1651M447 1652L448 1653L447 1652M455 1657L456 1658L455 1657M1302 1658L1303 1659L1302 1658M1287 1667L1288 1668L1287 1667M1282 1670L1283 1671L1282 1670M1280 1671L1281 1672L1280 1671M480 1672L481 1673L480 1672M487 1676L488 1677L487 1676M1266 1679L1267 1680L1266 1679M1264 1680L1265 1681L1264 1680M498 1682L499 1683L498 1682M1253 1686L1254 1687L1253 1686M513 1690L514 1691L513 1690M515 1691L516 1692L515 1691M517 1692L518 1693L517 1692M519 1693L520 1694L519 1693M521 1694L522 1695L521 1694M523 1695L524 1696L523 1695M525 1696L526 1697L525 1696M527 1697L528 1698L527 1697M1225 1700L1226 1701L1225 1700M1223 1701L1224 1702L1223 1701M1221 1702L1222 1703L1221 1702M542 1704L543 1705L542 1704M544 1705L545 1706L544 1705M1210 1707L1211 1708L1210 1707M1201 1711L1202 1712L1201 1711M1192 1715L1193 1716L1192 1715M574 1718L575 1719L574 1718M581 1721L582 1722L581 1721M589 1724L590 1725L589 1724M594 1726L595 1727L594 1726M602 1729L603 1730L602 1729z"/>
<path style="fill:#9f9f9f; stroke:none;" d="M271 1730.42C244.278 1733.94 219.414 1741.36 197 1756.89C180.595 1768.25 166.972 1782.33 156.003 1799C102.908 1879.68 139.998 1993.58 231 2026.95C254.865 2035.7 280.873 2038.1 306 2034.72C327.775 2031.78 348.392 2024.03 367 2012.42C456.354 1956.69 460.578 1821.18 376 1759.16C360.413 1747.72 342.722 1739.43 324 1734.63C307.188 1730.32 288.302 1728.15 271 1730.42z"/>
<path style="fill:#fa8121; stroke:none;" d="M1151 1731L1152 1732L1151 1731M610 1732L611 1733L610 1732M1134 1737L1135 1738L1134 1737z"/>
<path style="fill:#ffffff; stroke:none;" d="M336 1738L337 1739L336 1738z"/>
<path style="fill:#fa8121; stroke:none;" d="M631 1739L632 1740L631 1739M637 1741L638 1742L637 1741M1115 1743L1116 1744L1115 1743M650 1745L651 1746L650 1745M1098 1748L1099 1749L1098 1748M1091 1750L1092 1751L1091 1750M675 1752L676 1753L675 1752z"/>
<path style="fill:#ffffff; stroke:none;" d="M202 1753L203 1754L202 1753z"/>
<path style="fill:#fa8121; stroke:none;" d="M679 1753L680 1754L679 1753M687 1755L688 1756L687 1755M1072 1755L1073 1756L1072 1755M691 1756L692 1757L691 1756z"/>
<path style="fill:#ffffff; stroke:none;" d="M196 1757L197 1758L196 1757z"/>
<path style="fill:#fa8121; stroke:none;" d="M704 1759L705 1760L704 1759M1055 1759L1056 1760L1055 1759M1041 1762L1042 1763L1041 1762M1031 1764L1032 1765L1031 1764M1020 1766L1021 1767L1020 1766M750 1768L751 1769L750 1768M756 1769L757 1770L756 1769M770 1771L771 1772L770 1771M981 1772L982 1773L981 1772M795 1774L796 1775L795 1774M816 1776L817 1777L816 1776M928 1777L929 1778L928 1777M907 1778L908 1779L907 1778z"/>
<path style="fill:#ffffff; stroke:none;" d="M170 1780L171 1781L170 1780M406 1789L407 1790L406 1789M150 1808L151 1809L150 1808M137 1839L138 1840L137 1839M434 1851L435 1852L434 1851M436 1864L437 1865L436 1864M131 1892L132 1893L131 1892M426 1940L427 1941L426 1940M422 1949L423 1950L422 1949M420 1953L421 1954L420 1953M415 1962L416 1963L415 1962M387 1996L388 1997L387 1996M183 1998L184 1999L183 1998M380 2002L381 2003L380 2002M193 2006L194 2007L193 2006M366 2012L367 2013L366 2012M307 2034L308 2035L307 2034z"/>
</svg>
