<?xml version="1.0" standalone="yes"?>
<svg xmlns="http://www.w3.org/2000/svg" width="2560" height="1907">

<path style="fill:#01c58f; stroke:none;" d="M916 1903L916 1902C837.35 1901.78 774.05 1825.24 774 1750L153 1750C227.865 1627.7 297.107 1501.4 368.427 1377C499.376 1148.59 632.482 921.403 763.427 693C833.691 570.443 904.512 448.185 975.424 326C995.898 290.724 1015.84 255.106 1036.6 220C1047.79 201.08 1064.37 179.944 1071 159L1072 159L1085.58 184L1110.4 227L1182.58 352L1306.14 566L1347.14 637L1371 677C1392.89 639.875 1414.42 602.469 1435.72 565C1441.23 555.303 1446.83 545.648 1452.42 536C1454.43 532.545 1458.23 528.22 1457.97 524C1457.65 518.989 1452.89 513.211 1450.4 509C1444.5 499.054 1438.86 488.967 1433.01 479C1412.55 444.162 1392.52 409.05 1372.42 374C1330.87 301.524 1289.15 229.138 1247.01 157C1227.61 123.781 1211.03 82.7355 1183.99 55C1139.99 9.88208 1073.42 -7.625 1014 16.8611C957.641 40.0861 933.19 92.0933 904.579 142C856.348 226.128 806.61 309.443 759.139 394C671.517 550.074 579.451 703.718 490.427 859C387.837 1037.95 285.45 1217.14 180.989 1395C139.666 1465.36 99.5349 1536.43 58.5756 1607C41.7482 1635.99 20.6296 1665.43 9.05324 1697C-8.66689 1745.32 -0.738844 1799.13 28.7207 1841C84.8 1920.71 190.54 1903 275 1903L916 1903z"/>

<path style="fill:#01ff01; stroke:none;" d="M881 182L882 183L881 182M1085 183L1086 184L1085 183M1035 221L1036 222L1035 221M855 227L856 228L855 227M1287 227L1288 228L1287 227M1111 228L1112 229L1111 228M840 253L841 254L840 253M1302 253L1303 254L1302 253M1126 254L1127 255L1126 254M1141 280L1142 281L1141 280M994 292L995 293L994 292M814 298L815 299L814 298M1328 298L1329 299L1328 298z"/>
<path style="fill:#01c58f; stroke:none;" d="M1649 320L1650 321L1649 320z"/>
<path style="fill:#118775; stroke:none;" d="M1546 677L1547 677C1575.86 633.251 1600.37 585.569 1626.28 540C1638.17 519.096 1657.22 496.054 1664 473L1665 473L1692.58 522L1751.57 624L1946.15 961L2247.58 1483L2348.58 1658L2402 1750L2143 1750C2142.36 1827.3 2078.11 1901.78 1998 1902C2010.41 1907.21 2032.49 1903 2046 1903L2158 1903L2340 1903C2374.02 1903 2410.93 1907.01 2444 1897.57C2520.54 1875.73 2566.58 1799.78 2552.92 1722C2548.39 1696.26 2535.34 1674.26 2522.42 1652C2508.71 1628.37 2495.01 1604.71 2481.42 1581C2429.53 1490.49 2376.79 1400.48 2324.85 1310C2203.94 1099.35 2082.35 889.069 1960.42 679C1920.62 610.414 1881.23 541.586 1841.42 473C1822.66 440.664 1806.27 404.002 1782.54 375C1731.69 312.874 1634.32 301.077 1571 351.45C1538.53 377.277 1521.95 415.152 1501.2 450C1491.16 466.863 1481.44 483.95 1471.72 501C1467.91 507.686 1460.38 516.285 1459.24 524C1458.62 528.231 1462.58 532.56 1464.58 536C1469.98 545.313 1475.39 554.643 1480.72 564C1502.22 601.74 1523.33 639.953 1546 677z"/>
<path style="fill:#01ff01; stroke:none;" d="M1641 321L1642 322L1641 321M1698 323L1699 324L1698 323M799 324L800 325L799 324M1343 324L1344 325L1343 324z"/>
<path style="fill:#01c58f; stroke:none;" d="M1702 324L1703 325L1702 324z"/>
<path style="fill:#01ff01; stroke:none;" d="M1167 325L1168 326L1167 325z"/>
<path style="fill:#01c58f; stroke:none;" d="M1718 329L1719 330L1718 329z"/>
<path style="fill:#01ff01; stroke:none;" d="M1182 351L1183 352L1182 351M1566 355L1567 356L1566 355M953 363L954 364L953 363M1776 368L1777 369L1776 368M773 369L774 370L773 369M1786 380L1787 381L1786 380M1533 394L1534 395L1533 394M758 395L759 396L758 395M1384 395L1385 396L1384 395M1208 396L1209 397L1208 396z"/>
<path style="fill:#01c58f; stroke:none;" d="M1529 401L1530 402L1529 401z"/>
<path style="fill:#01ff01; stroke:none;" d="M927 408L928 409L927 408M1522 413L1523 414L1522 413M747 414L748 415L747 414M1399 421L1400 422L1399 421M1223 422L1224 423L1223 422M1815 428L1816 429L1815 428M912 434L913 435L912 434M1507 439L1508 440L1507 439M732 440L733 441L732 440z"/>
<path style="fill:#01c58f; stroke:none;" d="M1503 446L1504 447L1503 446z"/>
<path style="fill:#01ff01; stroke:none;" d="M1830 454L1831 455L1830 454M1425 466L1426 467L1425 466M1249 467L1250 468L1249 467z"/>

<path style="fill:#01ff01; stroke:none;" d="M1841 473L1842 474L1841 473M886 479L887 480L886 479z"/>
<path style="fill:#01c58f; stroke:none;" d="M1669 481L1670 482L1669 481z"/>
<path style="fill:#01ff01; stroke:none;" d="M1481 484L1482 485L1481 484M706 485L707 486L706 485z"/>
<path style="fill:#01c58f; stroke:none;" d="M1477 491L1478 492L1477 491z"/>
<path style="fill:#01ff01; stroke:none;" d="M1440 492L1441 493L1440 492M1653 492L1654 493L1653 492M1264 493L1265 494L1264 493M1856 499L1857 500L1856 499M871 505L872 506L871 505z"/>
<path style="fill:#01c58f; stroke:none;" d="M1860 506L1861 507L1860 506M1684 507L1685 508L1684 507z"/>
<path style="fill:#01ff01; stroke:none;" d="M691 511L692 512L691 511M1688 514L1689 515L1688 514M1638 518L1639 519L1638 518M1867 518L1868 519L1867 518M1279 519L1280 520L1279 519z"/>
<path style="fill:#2f495f; stroke:none;" d="M1458 526C1280.62 826.775 1108.87 1130.97 933.576 1433C897.444 1495.26 861.708 1557.74 825.576 1620C810.082 1646.7 791.16 1673.56 781.355 1703C771.764 1731.8 772.136 1763.94 780.427 1793C784.617 1807.68 791.186 1822.34 799.745 1835C857.21 1920.02 963.032 1903 1052 1903L1802 1903L1937 1903C1995.93 1903 2051.18 1903.1 2097 1859.91C2138.44 1820.85 2152.46 1757.71 2136.28 1704C2128.62 1678.58 2112.51 1655.83 2099.42 1633C2076.64 1593.27 2053.36 1553.82 2030.72 1514C1898.88 1282.12 1764.32 1051.7 1630.42 821C1591.13 753.301 1551.34 685.888 1512.42 618C1500.36 596.96 1488.29 575.912 1476.01 555C1470.55 545.699 1465.97 533.357 1458 526z"/>
<path style="fill:#118775; stroke:none;" d="M1455 530L1456 531L1455 530z"/>
<path style="fill:#01c58f; stroke:none;" d="M1631 530L1632 531L1631 530z"/>
<path style="fill:#118775; stroke:none;" d="M1454 532L1455 533L1454 532M1452 535L1453 536L1452 535M1451 537L1452 538L1451 537z"/>
<path style="fill:#01ff01; stroke:none;" d="M1627 537L1628 538L1627 537z"/>
<path style="fill:#118775; stroke:none;" d="M1450 539L1451 540L1450 539z"/>
<path style="fill:#01ff01; stroke:none;" d="M1703 540L1704 541L1703 540z"/>
<path style="fill:#118775; stroke:none;" d="M1448 542L1449 543L1448 542M1447 544L1448 545L1447 544z"/>
<path style="fill:#01ff01; stroke:none;" d="M1882 544L1883 545L1882 544z"/>
<path style="fill:#118775; stroke:none;" d="M1444 549L1445 550L1444 549z"/>
<path style="fill:#01ff01; stroke:none;" d="M845 550L846 551L845 550z"/>
<path style="fill:#118775; stroke:none;" d="M1443 551L1444 552L1443 551z"/>
<path style="fill:#01c58f; stroke:none;" d="M1886 551L1887 552L1886 551M1710 552L1711 553L1710 552z"/>
<path style="fill:#118775; stroke:none;" d="M1441 554L1442 555L1441 554z"/>
<path style="fill:#01ff01; stroke:none;" d="M665 556L666 557L665 556z"/>
<path style="fill:#118775; stroke:none;" d="M1440 556L1441 557L1440 556z"/>
<path style="fill:#01c58f; stroke:none;" d="M1616 556L1617 557L1616 556z"/>
<path style="fill:#118775; stroke:none;" d="M1439 558L1440 559L1439 558M1437 561L1438 562L1437 561M1436 563L1437 564L1436 563z"/>
<path style="fill:#01ff01; stroke:none;" d="M1612 563L1613 564L1612 563M1305 564L1306 565L1305 564z"/>
<path style="fill:#118775; stroke:none;" d="M1433 568L1434 569L1433 568M1432 570L1433 571L1432 570M1429 575L1430 576L1429 575z"/>
<path style="fill:#01ff01; stroke:none;" d="M830 576L831 577L830 576z"/>
<path style="fill:#118775; stroke:none;" d="M1428 577L1429 578L1428 577z"/>
<path style="fill:#01c58f; stroke:none;" d="M1725 578L1726 579L1725 578z"/>
<path style="fill:#118775; stroke:none;" d="M1426 580L1427 581L1426 580z"/>
<path style="fill:#01ff01; stroke:none;" d="M650 582L651 583L650 582z"/>
<path style="fill:#118775; stroke:none;" d="M1425 582L1426 583L1425 582M1424 584L1425 585L1424 584z"/>
<path style="fill:#01ff01; stroke:none;" d="M1729 585L1730 586L1729 585z"/>
<path style="fill:#118775; stroke:none;" d="M1422 587L1423 588L1422 587M1421 589L1422 590L1421 589z"/>
<path style="fill:#01ff01; stroke:none;" d="M1597 589L1598 590L1597 589M1908 589L1909 590L1908 589M1320 590L1321 591L1320 590z"/>
<path style="fill:#118775; stroke:none;" d="M1418 594L1419 595L1418 594M1417 596L1418 597L1417 596M1414 601L1415 602L1414 601M1413 603L1414 604L1413 603M1411 606L1412 607L1411 606M1410 608L1411 609L1410 608M1409 610L1410 611L1409 610z"/>
<path style="fill:#01ff01; stroke:none;" d="M1744 611L1745 612L1744 611z"/>
<path style="fill:#118775; stroke:none;" d="M1407 613L1408 614L1407 613M1406 615L1407 616L1406 615z"/>
<path style="fill:#01ff01; stroke:none;" d="M1582 615L1583 616L1582 615M1923 615L1924 616L1923 615z"/>
<path style="fill:#118775; stroke:none;" d="M1403 620L1404 621L1403 620z"/>
<path style="fill:#01ff01; stroke:none;" d="M804 621L805 622L804 621z"/>
<path style="fill:#118775; stroke:none;" d="M1402 622L1403 623L1402 622z"/>
<path style="fill:#01c58f; stroke:none;" d="M1751 623L1752 624L1751 623z"/>
<path style="fill:#118775; stroke:none;" d="M1400 625L1401 626L1400 625z"/>
<path style="fill:#01ff01; stroke:none;" d="M624 627L625 628L624 627z"/>
<path style="fill:#118775; stroke:none;" d="M1399 627L1400 628L1399 627z"/>
<path style="fill:#01c58f; stroke:none;" d="M1575 627L1576 628L1575 627z"/>
<path style="fill:#118775; stroke:none;" d="M1398 629L1399 630L1398 629M1396 632L1397 633L1396 632M1395 634L1396 635L1395 634z"/>
<path style="fill:#01ff01; stroke:none;" d="M1571 634L1572 635L1571 634M1934 634L1935 635L1934 634M1346 635L1347 636L1346 635z"/>
<path style="fill:#118775; stroke:none;" d="M1392 639L1393 640L1392 639M1391 641L1392 642L1391 641M1388 646L1389 647L1388 646z"/>
<path style="fill:#01ff01; stroke:none;" d="M789 647L790 648L789 647z"/>
<path style="fill:#118775; stroke:none;" d="M1387 648L1388 649L1387 648z"/>
<path style="fill:#01c58f; stroke:none;" d="M1766 649L1767 650L1766 649z"/>
<path style="fill:#118775; stroke:none;" d="M1385 651L1386 652L1385 651z"/>
<path style="fill:#01ff01; stroke:none;" d="M609 653L610 654L609 653z"/>
<path style="fill:#118775; stroke:none;" d="M1384 653L1385 654L1384 653z"/>
<path style="fill:#01c58f; stroke:none;" d="M1560 653L1561 654L1560 653z"/>
<path style="fill:#118775; stroke:none;" d="M1383 655L1384 656L1383 655z"/>
<path style="fill:#01ff01; stroke:none;" d="M1770 656L1771 657L1770 656z"/>
<path style="fill:#118775; stroke:none;" d="M1381 658L1382 659L1381 658M1380 660L1381 661L1380 660z"/>
<path style="fill:#01ff01; stroke:none;" d="M1556 660L1557 661L1556 660M1949 660L1950 661L1949 660M1361 661L1362 662L1361 661z"/>
<path style="fill:#118775; stroke:none;" d="M1377 665L1378 666L1377 665M1376 667L1377 668L1376 667z"/>
<path style="fill:#01c58f; stroke:none;" d="M1953 667L1954 668L1953 667z"/>
<path style="fill:#118775; stroke:none;" d="M1374 670L1375 671L1374 670M1373 672L1374 673L1373 672M1372 674L1373 675L1372 674M1548 679L1549 680L1548 679z"/>
<path style="fill:#01ff01; stroke:none;" d="M1960 679L1961 680L1960 679M1785 682L1786 683L1785 682M763 692L764 693L763 692z"/>
<path style="fill:#118775; stroke:none;" d="M1358 697L1359 698L1358 697z"/>
<path style="fill:#01ff01; stroke:none;" d="M583 698L584 699L583 698M1975 705L1976 706L1975 705z"/>
<path style="fill:#01c58f; stroke:none;" d="M1979 712L1980 713L1979 712z"/>
<path style="fill:#01ff01; stroke:none;" d="M748 718L749 719L748 718z"/>
<path style="fill:#01c58f; stroke:none;" d="M1807 720L1808 721L1807 720z"/>
<path style="fill:#118775; stroke:none;" d="M1343 723L1344 724L1343 723z"/>
<path style="fill:#01ff01; stroke:none;" d="M568 724L569 725L568 724z"/>
<path style="fill:#118775; stroke:none;" d="M1574 724L1575 725L1574 724z"/>
<path style="fill:#01ff01; stroke:none;" d="M1811 727L1812 728L1811 727z"/>
<path style="fill:#118775; stroke:none;" d="M1589 750L1590 751L1589 750z"/>
<path style="fill:#01ff01; stroke:none;" d="M2001 750L2002 751L2001 750M1826 753L1827 754L1826 753M722 763L723 764L722 763z"/>
<path style="fill:#118775; stroke:none;" d="M1317 768L1318 769L1317 768z"/>
<path style="fill:#01ff01; stroke:none;" d="M542 769L543 770L542 769M2016 776L2017 777L2016 776z"/>
<path style="fill:#01c58f; stroke:none;" d="M2020 783L2021 784L2020 783z"/>
<path style="fill:#01ff01; stroke:none;" d="M707 789L708 790L707 789z"/>
<path style="fill:#01c58f; stroke:none;" d="M1848 791L1849 792L1848 791z"/>
<path style="fill:#118775; stroke:none;" d="M1302 794L1303 795L1302 794z"/>
<path style="fill:#01ff01; stroke:none;" d="M527 795L528 796L527 795z"/>
<path style="fill:#118775; stroke:none;" d="M1615 795L1616 796L1615 795z"/>
<path style="fill:#01ff01; stroke:none;" d="M2027 795L2028 796L2027 795M1852 798L1853 799L1852 798z"/>
<path style="fill:#118775; stroke:none;" d="M1630 821L1631 822L1630 821z"/>
<path style="fill:#01ff01; stroke:none;" d="M2042 821L2043 822L2042 821M1867 824L1868 825L1867 824z"/>
<path style="fill:#01c58f; stroke:none;" d="M2046 828L2047 829L2046 828z"/>
<path style="fill:#010101; stroke:none;" d="M1458 830L1407.42 918L1325.42 1060L1072.58 1498L975.576 1666L943.15 1722L928 1750L1990 1750L1953.85 1687L1872.42 1546L1633.42 1132L1511.01 920L1476.42 860L1458 830z"/>
<path style="fill:#01ff01; stroke:none;" d="M681 834L682 835L681 834z"/>
<path style="fill:#118775; stroke:none;" d="M1276 839L1277 840L1276 839z"/>
<path style="fill:#01ff01; stroke:none;" d="M501 840L502 841L501 840M2053 840L2054 841L2053 840z"/>
<path style="fill:#118775; stroke:none;" d="M1469 848L1470 849L1469 848z"/>
<path style="fill:#01ff01; stroke:none;" d="M1882 850L1883 851L1882 850M666 860L667 861L666 860z"/>
<path style="fill:#01c58f; stroke:none;" d="M1889 862L1890 863L1889 862z"/>
<path style="fill:#118775; stroke:none;" d="M1261 865L1262 866L1261 865z"/>
<path style="fill:#01ff01; stroke:none;" d="M486 866L487 867L486 866z"/>
<path style="fill:#118775; stroke:none;" d="M1437 866L1438 867L1437 866M1656 866L1657 867L1656 866z"/>
<path style="fill:#01ff01; stroke:none;" d="M2068 866L2069 867L2068 866z"/>
<path style="fill:#118775; stroke:none;" d="M1484 874L1485 875L1484 874z"/>
<path style="fill:#01c58f; stroke:none;" d="M1904 888L1905 889L1904 888z"/>
<path style="fill:#01ff01; stroke:none;" d="M2083 892L2084 893L2083 892M1908 895L1909 896L1908 895M640 905L641 906L640 905z"/>
<path style="fill:#118775; stroke:none;" d="M1235 910L1236 911L1235 910z"/>
<path style="fill:#01ff01; stroke:none;" d="M460 911L461 912L460 911M2094 911L2095 912L2094 911z"/>
<path style="fill:#118775; stroke:none;" d="M1510 919L1511 920L1510 919z"/>
<path style="fill:#01ff01; stroke:none;" d="M1923 921L1924 922L1923 921M625 931L626 932L625 931z"/>
<path style="fill:#01c58f; stroke:none;" d="M1930 933L1931 934L1930 933z"/>
<path style="fill:#118775; stroke:none;" d="M1220 936L1221 937L1220 936z"/>
<path style="fill:#01ff01; stroke:none;" d="M445 937L446 938L445 937z"/>
<path style="fill:#118775; stroke:none;" d="M1396 937L1397 938L1396 937M1697 937L1698 938L1697 937z"/>
<path style="fill:#01ff01; stroke:none;" d="M2109 937L2110 938L2109 937z"/>
<path style="fill:#01c58f; stroke:none;" d="M2113 944L2114 945L2113 944z"/>
<path style="fill:#118775; stroke:none;" d="M1525 945L1526 946L1525 945z"/>
<path style="fill:#01ff01; stroke:none;" d="M2120 956L2121 957L2120 956z"/>
<path style="fill:#01c58f; stroke:none;" d="M1945 959L1946 960L1945 959z"/>
<path style="fill:#01ff01; stroke:none;" d="M1949 966L1950 967L1949 966M599 976L600 977L599 976z"/>
<path style="fill:#118775; stroke:none;" d="M1194 981L1195 982L1194 981z"/>
<path style="fill:#01ff01; stroke:none;" d="M419 982L420 983L419 982z"/>
<path style="fill:#118775; stroke:none;" d="M1370 982L1371 983L1370 982M1723 982L1724 983L1723 982z"/>
<path style="fill:#01ff01; stroke:none;" d="M2135 982L2136 983L2135 982z"/>
<path style="fill:#01c58f; stroke:none;" d="M2139 989L2140 990L2139 989z"/>
<path style="fill:#118775; stroke:none;" d="M1551 990L1552 991L1551 990z"/>
<path style="fill:#01ff01; stroke:none;" d="M1964 992L1965 993L1964 992M584 1002L585 1003L584 1002z"/>
<path style="fill:#01c58f; stroke:none;" d="M1971 1004L1972 1005L1971 1004z"/>
<path style="fill:#118775; stroke:none;" d="M1179 1007L1180 1008L1179 1007z"/>
<path style="fill:#01ff01; stroke:none;" d="M404 1008L405 1009L404 1008z"/>
<path style="fill:#118775; stroke:none;" d="M1355 1008L1356 1009L1355 1008M1738 1008L1739 1009L1738 1008M1566 1016L1567 1017L1566 1016z"/>
<path style="fill:#01ff01; stroke:none;" d="M2161 1027L2162 1028L2161 1027z"/>
<path style="fill:#01c58f; stroke:none;" d="M1986 1030L1987 1031L1986 1030z"/>
<path style="fill:#01ff01; stroke:none;" d="M1990 1037L1991 1038L1990 1037z"/>
<path style="fill:#118775; stroke:none;" d="M1581 1042L1582 1043L1581 1042z"/>
<path style="fill:#01ff01; stroke:none;" d="M558 1047L559 1048L558 1047z"/>
<path style="fill:#118775; stroke:none;" d="M1153 1052L1154 1053L1153 1052z"/>
<path style="fill:#01ff01; stroke:none;" d="M378 1053L379 1054L378 1053z"/>
<path style="fill:#118775; stroke:none;" d="M1329 1053L1330 1054L1329 1053M1764 1053L1765 1054L1764 1053z"/>
<path style="fill:#01ff01; stroke:none;" d="M2176 1053L2177 1054L2176 1053M2005 1063L2006 1064L2005 1063M2187 1072L2188 1073L2187 1072M543 1073L544 1074L543 1073z"/>
<path style="fill:#01c58f; stroke:none;" d="M2012 1075L2013 1076L2012 1075z"/>
<path style="fill:#118775; stroke:none;" d="M1138 1078L1139 1079L1138 1078z"/>
<path style="fill:#01ff01; stroke:none;" d="M363 1079L364 1080L363 1079z"/>
<path style="fill:#118775; stroke:none;" d="M1314 1079L1315 1080L1314 1079M1779 1079L1780 1080L1779 1079M1607 1087L1608 1088L1607 1087z"/>
<path style="fill:#01ff01; stroke:none;" d="M2202 1098L2203 1099L2202 1098z"/>
<path style="fill:#01c58f; stroke:none;" d="M2027 1101L2028 1102L2027 1101M2206 1105L2207 1106L2206 1105z"/>
<path style="fill:#01ff01; stroke:none;" d="M2031 1108L2032 1109L2031 1108z"/>
<path style="fill:#118775; stroke:none;" d="M1622 1113L1623 1114L1622 1113z"/>
<path style="fill:#01ff01; stroke:none;" d="M2213 1117L2214 1118L2213 1117M517 1118L518 1119L517 1118z"/>
<path style="fill:#118775; stroke:none;" d="M1112 1123L1113 1124L1112 1123z"/>
<path style="fill:#01ff01; stroke:none;" d="M337 1124L338 1125L337 1124z"/>
<path style="fill:#118775; stroke:none;" d="M1288 1124L1289 1125L1288 1124M1805 1124L1806 1125L1805 1124z"/>
<path style="fill:#01ff01; stroke:none;" d="M2046 1134L2047 1135L2046 1134M2228 1143L2229 1144L2228 1143z"/>
<path style="fill:#118775; stroke:none;" d="M1097 1149L1098 1150L1097 1149z"/>
<path style="fill:#01ff01; stroke:none;" d="M322 1150L323 1151L322 1150z"/>
<path style="fill:#118775; stroke:none;" d="M1273 1150L1274 1151L1273 1150z"/>
<path style="fill:#01c58f; stroke:none;" d="M2232 1150L2233 1151L2232 1150z"/>
<path style="fill:#118775; stroke:none;" d="M1648 1158L1649 1159L1648 1158z"/>
<path style="fill:#01c58f; stroke:none;" d="M2068 1172L2069 1173L2068 1172z"/>
<path style="fill:#01ff01; stroke:none;" d="M2072 1179L2073 1180L2072 1179z"/>
<path style="fill:#118775; stroke:none;" d="M1663 1184L1664 1185L1663 1184z"/>
<path style="fill:#01ff01; stroke:none;" d="M2254 1188L2255 1189L2254 1188M476 1189L477 1190L476 1189z"/>
<path style="fill:#118775; stroke:none;" d="M1071 1194L1072 1195L1071 1194z"/>
<path style="fill:#01ff01; stroke:none;" d="M296 1195L297 1196L296 1195z"/>
<path style="fill:#118775; stroke:none;" d="M1247 1195L1248 1196L1247 1195M1846 1195L1847 1196L1846 1195z"/>
<path style="fill:#01ff01; stroke:none;" d="M2087 1205L2088 1206L2087 1205z"/>
<path style="fill:#118775; stroke:none;" d="M1678 1210L1679 1211L1678 1210z"/>
<path style="fill:#01ff01; stroke:none;" d="M2269 1214L2270 1215L2269 1214z"/>
<path style="fill:#118775; stroke:none;" d="M1056 1220L1057 1221L1056 1220z"/>
<path style="fill:#01ff01; stroke:none;" d="M281 1221L282 1222L281 1221M2280 1233L2281 1234L2280 1233z"/>
<path style="fill:#118775; stroke:none;" d="M1872 1240L1873 1241L1872 1240z"/>
<path style="fill:#01c58f; stroke:none;" d="M2109 1243L2110 1244L2109 1243z"/>
<path style="fill:#01ff01; stroke:none;" d="M2113 1250L2114 1251L2113 1250z"/>
<path style="fill:#118775; stroke:none;" d="M1704 1255L1705 1256L1704 1255z"/>
<path style="fill:#01ff01; stroke:none;" d="M2295 1259L2296 1260L2295 1259M435 1260L436 1261L435 1260z"/>
<path style="fill:#118775; stroke:none;" d="M1030 1265L1031 1266L1030 1265z"/>
<path style="fill:#01ff01; stroke:none;" d="M255 1266L256 1267L255 1266z"/>
<path style="fill:#118775; stroke:none;" d="M1206 1266L1207 1267L1206 1266M1887 1266L1888 1267L1887 1266z"/>
<path style="fill:#01c58f; stroke:none;" d="M2299 1266L2300 1267L2299 1266z"/>
<path style="fill:#01ff01; stroke:none;" d="M2128 1276L2129 1277L2128 1276M2306 1278L2307 1279L2306 1278z"/>
<path style="fill:#118775; stroke:none;" d="M1719 1281L1720 1282L1719 1281M1015 1291L1016 1292L1015 1291z"/>
<path style="fill:#01ff01; stroke:none;" d="M240 1292L241 1293L240 1292M2143 1302L2144 1303L2143 1302M2321 1304L2322 1305L2321 1304M229 1311L230 1312L229 1311z"/>
<path style="fill:#118775; stroke:none;" d="M1180 1311L1181 1312L1180 1311M1913 1311L1914 1312L1913 1311z"/>
<path style="fill:#01c58f; stroke:none;" d="M2325 1311L2326 1312L2325 1311M2150 1314L2151 1315L2150 1314z"/>
<path style="fill:#118775; stroke:none;" d="M1745 1326L1746 1327L1745 1326z"/>
<path style="fill:#01ff01; stroke:none;" d="M394 1331L395 1332L394 1331z"/>
<path style="fill:#118775; stroke:none;" d="M989 1336L990 1337L989 1336z"/>
<path style="fill:#01ff01; stroke:none;" d="M214 1337L215 1338L214 1337z"/>
<path style="fill:#118775; stroke:none;" d="M1165 1337L1166 1338L1165 1337M1928 1337L1929 1338L1928 1337z"/>
<path style="fill:#01c58f; stroke:none;" d="M2165 1340L2166 1341L2165 1340z"/>
<path style="fill:#01ff01; stroke:none;" d="M2169 1347L2170 1348L2169 1347M2347 1349L2348 1350L2347 1349z"/>
<path style="fill:#118775; stroke:none;" d="M1760 1352L1761 1353L1760 1352M974 1362L975 1363L974 1362z"/>
<path style="fill:#01ff01; stroke:none;" d="M2184 1373L2185 1374L2184 1373M2362 1375L2363 1376L2362 1375M368 1376L369 1377L368 1376z"/>
<path style="fill:#118775; stroke:none;" d="M1775 1378L1776 1379L1775 1378z"/>
<path style="fill:#01ff01; stroke:none;" d="M188 1382L189 1383L188 1382z"/>
<path style="fill:#118775; stroke:none;" d="M1139 1382L1140 1383L1139 1382M1954 1382L1955 1383L1954 1382z"/>
<path style="fill:#01c58f; stroke:none;" d="M2366 1382L2367 1383L2366 1382M2191 1385L2192 1386L2191 1385z"/>
<path style="fill:#01ff01; stroke:none;" d="M2373 1394L2374 1395L2373 1394M353 1402L354 1403L353 1402z"/>
<path style="fill:#118775; stroke:none;" d="M948 1407L949 1408L948 1407z"/>
<path style="fill:#01ff01; stroke:none;" d="M173 1408L174 1409L173 1408z"/>
<path style="fill:#118775; stroke:none;" d="M1124 1408L1125 1409L1124 1408M1969 1408L1970 1409L1969 1408z"/>
<path style="fill:#01c58f; stroke:none;" d="M2206 1411L2207 1412L2206 1411z"/>
<path style="fill:#01ff01; stroke:none;" d="M2210 1418L2211 1419L2210 1418M2388 1420L2389 1421L2388 1420z"/>
<path style="fill:#118775; stroke:none;" d="M1801 1423L1802 1424L1801 1423z"/>
<path style="fill:#01c58f; stroke:none;" d="M2392 1427L2393 1428L2392 1427z"/>
<path style="fill:#118775; stroke:none;" d="M933 1433L934 1434L933 1433z"/>
<path style="fill:#01ff01; stroke:none;" d="M2399 1439L2400 1440L2399 1439M2225 1444L2226 1445L2225 1444M327 1447L328 1448L327 1447z"/>
<path style="fill:#118775; stroke:none;" d="M1816 1449L1817 1450L1816 1449z"/>
<path style="fill:#01ff01; stroke:none;" d="M147 1453L148 1454L147 1453z"/>
<path style="fill:#118775; stroke:none;" d="M1098 1453L1099 1454L1098 1453M1995 1453L1996 1454L1995 1453z"/>
<path style="fill:#01c58f; stroke:none;" d="M2232 1456L2233 1457L2232 1456z"/>
<path style="fill:#118775; stroke:none;" d="M918 1459L919 1460L918 1459z"/>
<path style="fill:#01ff01; stroke:none;" d="M2414 1465L2415 1466L2414 1465M312 1473L313 1474L312 1473z"/>
<path style="fill:#118775; stroke:none;" d="M1831 1475L1832 1476L1831 1475M907 1478L908 1479L907 1478z"/>
<path style="fill:#01ff01; stroke:none;" d="M132 1479L133 1480L132 1479z"/>
<path style="fill:#118775; stroke:none;" d="M1083 1479L1084 1480L1083 1479z"/>
<path style="fill:#01c58f; stroke:none;" d="M2247 1482L2248 1483L2247 1482z"/>
<path style="fill:#01ff01; stroke:none;" d="M2251 1489L2252 1490L2251 1489M2429 1491L2430 1492L2429 1491z"/>
<path style="fill:#118775; stroke:none;" d="M2021 1498L2022 1499L2021 1498M892 1504L893 1505L892 1504z"/>
<path style="fill:#01ff01; stroke:none;" d="M2440 1510L2441 1511L2440 1510M2266 1515L2267 1516L2266 1515M286 1518L287 1519L286 1518z"/>
<path style="fill:#118775; stroke:none;" d="M1857 1520L1858 1521L1857 1520z"/>
<path style="fill:#01ff01; stroke:none;" d="M106 1524L107 1525L106 1524z"/>
<path style="fill:#118775; stroke:none;" d="M1057 1524L1058 1525L1057 1524M2036 1524L2037 1525L2036 1524M877 1530L878 1531L877 1530z"/>
<path style="fill:#01ff01; stroke:none;" d="M2455 1536L2456 1537L2455 1536z"/>
<path style="fill:#01c58f; stroke:none;" d="M2459 1543L2460 1544L2459 1543z"/>
<path style="fill:#01ff01; stroke:none;" d="M271 1544L272 1545L271 1544z"/>
<path style="fill:#118775; stroke:none;" d="M1872 1546L1873 1547L1872 1546z"/>
<path style="fill:#01ff01; stroke:none;" d="M91 1550L92 1551L91 1550z"/>
<path style="fill:#01c58f; stroke:none;" d="M2288 1553L2289 1554L2288 1553z"/>
<path style="fill:#01ff01; stroke:none;" d="M2466 1555L2467 1556L2466 1555M2292 1560L2293 1561L2292 1560z"/>
<path style="fill:#118775; stroke:none;" d="M1031 1569L1032 1570L1031 1569M2062 1569L2063 1570L2062 1569M851 1575L852 1576L851 1575z"/>
<path style="fill:#01ff01; stroke:none;" d="M2481 1581L2482 1582L2481 1581M2307 1586L2308 1587L2307 1586z"/>
<path style="fill:#01c58f; stroke:none;" d="M2485 1588L2486 1589L2485 1588z"/>
<path style="fill:#01ff01; stroke:none;" d="M245 1589L246 1590L245 1589z"/>
<path style="fill:#118775; stroke:none;" d="M1898 1591L1899 1592L1898 1591z"/>
<path style="fill:#01ff01; stroke:none;" d="M65 1595L66 1596L65 1595z"/>
<path style="fill:#118775; stroke:none;" d="M1016 1595L1017 1596L1016 1595M2077 1595L2078 1596L2077 1595M836 1601L837 1602L836 1601z"/>
<path style="fill:#01ff01; stroke:none;" d="M230 1615L231 1616L230 1615z"/>
<path style="fill:#118775; stroke:none;" d="M1913 1617L1914 1618L1913 1617z"/>
<path style="fill:#01ff01; stroke:none;" d="M50 1621L51 1622L50 1621z"/>
<path style="fill:#01c58f; stroke:none;" d="M2329 1624L2330 1625L2329 1624z"/>
<path style="fill:#01ff01; stroke:none;" d="M2507 1626L2508 1627L2507 1626M2333 1631L2334 1632L2333 1631z"/>
<path style="fill:#118775; stroke:none;" d="M990 1640L991 1641L990 1640M2103 1640L2104 1641L2103 1640M1928 1643L1929 1644L1928 1643M810 1646L811 1647L810 1646z"/>
<path style="fill:#01ff01; stroke:none;" d="M2522 1652L2523 1653L2522 1652M2348 1657L2349 1658L2348 1657M204 1660L205 1661L204 1660M24 1666L25 1667L24 1666z"/>
<path style="fill:#118775; stroke:none;" d="M975 1666L976 1667L975 1666M2118 1666L2119 1667L2118 1666z"/>
<path style="fill:#01ff01; stroke:none;" d="M2533 1671L2534 1672L2533 1671z"/>
<path style="fill:#118775; stroke:none;" d="M795 1672L796 1673L795 1672z"/>
<path style="fill:#01ff01; stroke:none;" d="M2538 1680L2539 1681L2538 1680M2539 1682L2540 1683L2539 1682M2363 1683L2364 1684L2363 1683M2540 1684L2541 1685L2540 1684M189 1686L190 1687L189 1686z"/>
<path style="fill:#01c58f; stroke:none;" d="M2370 1695L2371 1696L2370 1695z"/>
<path style="fill:#118775; stroke:none;" d="M783 1697L784 1698L783 1697M949 1711L950 1712L949 1711M2138 1712L2139 1713L2138 1712M1969 1714L1970 1715L1969 1714z"/>
<path style="fill:#01c58f; stroke:none;" d="M2385 1721L2386 1722L2385 1721z"/>
<path style="fill:#01ff01; stroke:none;" d="M2389 1728L2390 1729L2389 1728M163 1731L164 1732L163 1731M0 1733L1 1734L0 1733z"/>
<path style="fill:#118775; stroke:none;" d="M934 1737L935 1738L934 1737M1984 1740L1985 1741L1984 1740z"/>
<path style="fill:#01ff01; stroke:none;" d="M2555 1748L2556 1749L2555 1748z"/>
<path style="fill:#118775; stroke:none;" d="M774 1751L774 1760L775 1760L774 1751M775 1768L775 1771L776 1771L775 1768z"/>
<path style="fill:#01ff01; stroke:none;" d="M2554 1768L2555 1769L2554 1768z"/>
<path style="fill:#118775; stroke:none;" d="M776.333 1775.67L776.667 1776.33L776.333 1775.67M777 1781L778 1782L777 1781M778.333 1785.67L778.667 1786.33L778.333 1785.67z"/>
<path style="fill:#01ff01; stroke:none;" d="M4 1789L5 1790L4 1789z"/>
<path style="fill:#118775; stroke:none;" d="M779.333 1789.67L779.667 1790.33L779.333 1789.67M780 1793L781 1794L780 1793M781 1796L782 1797L781 1796M782 1799L783 1800L782 1799M783 1802L784 1803L783 1802z"/>
<path style="fill:#01c58f; stroke:none;" d="M2546 1802L2547 1803L2546 1802z"/>
<path style="fill:#118775; stroke:none;" d="M784 1805L785 1806L784 1805M785 1807L786 1808L785 1807M786 1810L787 1811L786 1810M787 1812L788 1813L787 1812z"/>
<path style="fill:#01c58f; stroke:none;" d="M2542 1812L2543 1813L2542 1812z"/>
<path style="fill:#118775; stroke:none;" d="M788 1814L789 1815L788 1814M789 1816L790 1817L789 1816M790 1818L791 1819L790 1818M791 1820L792 1821L791 1820M792 1822L793 1823L792 1822M793 1824L794 1825L793 1824M794 1826L795 1827L794 1826M796 1829L797 1830L796 1829M797 1831L798 1832L797 1831z"/>
<path style="fill:#01ff01; stroke:none;" d="M2532 1831L2533 1832L2532 1831z"/>
<path style="fill:#118775; stroke:none;" d="M799 1834L800 1835L799 1834z"/>
<path style="fill:#01c58f; stroke:none;" d="M2530 1834L2531 1835L2530 1834z"/>
<path style="fill:#118775; stroke:none;" d="M801 1837L802 1838L801 1837z"/>
<path style="fill:#01ff01; stroke:none;" d="M2528 1837L2529 1838L2528 1837z"/>
<path style="fill:#118775; stroke:none;" d="M802 1838L803 1839L802 1838M804 1841L805 1842L804 1841M807 1845L808 1846L807 1845M808 1846L809 1847L808 1846M812 1851L813 1852L812 1851M813 1852L814 1853L813 1852M814 1853L815 1854L814 1853M815 1854L816 1855L815 1854M816 1855L817 1856L816 1855M817 1856L818 1857L817 1856M818 1857L819 1858L818 1857M820 1859L821 1860L820 1859M821 1860L822 1861L821 1860M822 1861L823 1862L822 1861M823 1862L824 1863L823 1862M824 1863L825 1864L824 1863M825 1864L826 1865L825 1864M830 1868L831 1869L830 1868M831 1869L832 1870L831 1869M835 1872L836 1873L835 1872z"/>
<path style="fill:#01ff01; stroke:none;" d="M2493 1873L2494 1874L2493 1873z"/>
<path style="fill:#118775; stroke:none;" d="M838 1874L839 1875L838 1874M842 1877L843 1878L842 1877M844 1878L845 1879L844 1878M847 1880L848 1881L847 1880M852 1883L853 1884L852 1883M854 1884L855 1885L854 1884M856 1885L857 1886L856 1885M858 1886L859 1887L858 1886M860 1887L861 1888L860 1887M862 1888L863 1889L862 1888M864 1889L865 1890L864 1889M869 1891L870 1892L869 1891M871 1892L872 1893L871 1892M874 1893L875 1894L874 1893M877 1894L878 1895L877 1894z"/>
<path style="fill:#01ff01; stroke:none;" d="M2453 1894L2454 1895L2453 1894z"/>
<path style="fill:#118775; stroke:none;" d="M880 1895L881 1896L880 1895M883.667 1896.33L884.333 1896.67L883.667 1896.33M887 1897L888 1898L887 1897M891 1898L892 1899L891 1898M895.667 1899.33L896.333 1899.67L895.667 1899.33M900 1900L900 1901L903 1901L900 1900z"/>
<path style="fill:#01ff01; stroke:none;" d="M2430 1900L2431 1901L2430 1900z"/>
<path style="fill:#118775; stroke:none;" d="M907 1901L907 1902L910 1902L907 1901M916 1902L916 1903L920 1903L916 1902z"/>
</svg>
