<?xml version="1.0" standalone="yes"?>
<svg xmlns="http://www.w3.org/2000/svg" width="1024" height="1024">
<path style="fill:#3773a5; stroke:none;" d="M265 231L514 231L514 265L220 265C166.332 265 112.014 260.458 69 299.171C1.48778 359.932 -4.88917 465.309 0.910494 550C2.94259 579.674 6.4606 609.295 14.7091 638C26.1346 677.76 45.0898 716.3 79 741.522C122.604 773.953 181.888 764 233 764L233 708C233 645.252 227.362 572.631 281 527.754C289.254 520.848 298.197 514.812 308 510.309C346.124 492.793 389.091 496 430 496L625 496C695.818 496 754.981 449.916 761.83 378C763.982 355.411 762 331.698 762 309L762 171C762 131.472 765.113 95.4011 735.911 64C708.954 35.0142 669.836 19.9105 632 11.3495C555.413 -5.97974 467.869 -6.09485 391.001 9.80322C351.297 18.0149 306.345 32.4711 280.676 66.0008C263.872 87.95 265 111.808 265 138L265 231z"/>

<path style="fill:#0101ff; stroke:none;" d="M453 1L454 2L453 1z"/>
<path style="fill:#2881a3; stroke:none;" d="M432 3L433 4L432 3z"/>
<path style="fill:#0101ff; stroke:none;" d="M600 5L601 6L600 5M403 7L404 8L403 7z"/>
<path style="fill:#2881a3; stroke:none;" d="M384 11L385 12L384 11z"/>
<path style="fill:#0101ff; stroke:none;" d="M632 11L633 12L632 11z"/>
<path style="fill:#2881a3; stroke:none;" d="M375 13L376 14L375 13z"/>
<path style="fill:#0101ff; stroke:none;" d="M644 14L645 15L644 14z"/>
<path style="fill:#2881a3; stroke:none;" d="M651 16L652 17L651 16M654 17L655 18L654 17z"/>
<path style="fill:#0101ff; stroke:none;" d="M348 21L349 22L348 21z"/>
<path style="fill:#2881a3; stroke:none;" d="M674 24L675 25L674 24M338 25L339 26L338 25M336 26L337 27L336 26M333 27L334 28L333 27M331 28L332 29L331 28M329 29L330 30L329 29M327 30L328 31L327 30M325 31L326 32L325 31M690 31L691 32L690 31M323 32L324 33L323 32z"/>
<path style="fill:#0101ff; stroke:none;" d="M692 32L693 33L692 32z"/>
<path style="fill:#2881a3; stroke:none;" d="M321 33L322 34L321 33z"/>
<path style="fill:#0101ff; stroke:none;" d="M694 33L695 34L694 33z"/>
<path style="fill:#2881a3; stroke:none;" d="M317 35L318 36L317 35M306 42L307 43L306 42z"/>
<path style="fill:#0101ff; stroke:none;" d="M299 47L300 48L299 47M292 53L293 54L292 53z"/>
<path style="fill:#2881a3; stroke:none;" d="M724 53L725 54L724 53M291 54L292 55L291 54M289 56L290 57L289 56M287 58L288 59L287 58z"/>
<path style="fill:#0101ff; stroke:none;" d="M285 60L286 61L285 60M280 66L281 67L280 66z"/>
<path style="fill:#2881a3; stroke:none;" d="M276 72L277 73L276 72z"/>
<path style="fill:#010101; stroke:none;" d="M369 79.429C360.742 80.5749 352.624 83.3289 346 88.5186C312.074 115.097 333.975 173.446 378 167.711C385.041 166.793 392.2 164.364 398 160.211C432.732 135.348 414.399 73.1298 369 79.429z"/>
<path style="fill:#2881a3; stroke:none;" d="M376 79L377 80L376 79z"/>
<path style="fill:#0101ff; stroke:none;" d="M359 81L360 82L359 81z"/>
<path style="fill:#2881a3; stroke:none;" d="M386 81L387 82L386 81z"/>
<path style="fill:#0101ff; stroke:none;" d="M354 83L355 84L354 83z"/>
<path style="fill:#2881a3; stroke:none;" d="M391 83L392 84L391 83M393 84L394 85L393 84M751 86L752 87L751 86M752 88L753 89L752 88M753 90L754 91L753 90z"/>
<path style="fill:#0101ff; stroke:none;" d="M754 92L755 93L754 92z"/>
<path style="fill:#2881a3; stroke:none;" d="M266 96L267 97L266 96z"/>
<path style="fill:#0101ff; stroke:none;" d="M408 97L409 98L408 97z"/>
<path style="fill:#2881a3; stroke:none;" d="M265 101L266 102L265 101z"/>
<path style="fill:#0101ff; stroke:none;" d="M759 106L760 107L759 106z"/>
<path style="fill:#2881a3; stroke:none;" d="M760 110L761 111L760 110M761 115L762 116L761 115M329 132L330 133L329 132z"/>
<path style="fill:#0101ff; stroke:none;" d="M333 143L334 144L333 143z"/>
<path style="fill:#2881a3; stroke:none;" d="M406 152L407 153L406 152z"/>
<path style="fill:#0101ff; stroke:none;" d="M404 154L405 155L404 154M403 155L404 156L403 155z"/>
<path style="fill:#2881a3; stroke:none;" d="M343 156L344 157L343 156z"/>
<path style="fill:#ffd343; stroke:none;" d="M795 258L795 314C795 377.631 800.103 448.525 747 494.711C738.699 501.931 729.002 508.109 719 512.691C682.818 529.27 642.707 526 604 526L467 526C444.164 526 420.778 524.53 398 526.089C329.922 530.752 272.943 572.113 266.17 643C264.012 665.587 266 689.304 266 712L266 848C266 890.464 262.534 927.509 294.09 960.996C318.934 987.361 355.64 1001.29 390 1009.87C469.063 1029.63 559.412 1028.42 639 1012.4C678.561 1004.44 722.397 989.179 747.764 956C763.985 934.783 763 911.277 763 886L763 792L514 792L514 757L808 757C863.709 757 917.726 762.082 962 720.911C998.912 686.586 1019.1 632.52 1023.83 583C1026.24 557.801 1024 531.321 1024 506C1024 462.556 1024.15 422.144 1012 380C1001.71 344.296 983.462 308.423 954 284.808C908.787 248.566 849.163 258 795 258z"/>
<path style="fill:#2881a3; stroke:none;" d="M139 266L140 267L139 266M122 270L123 271L122 270z"/>
<path style="fill:#0101ff; stroke:none;" d="M112 273L113 274L112 273z"/>
<path style="fill:#2881a3; stroke:none;" d="M107 275L108 276L107 275M89 284L90 285L89 284z"/>
<path style="fill:#0101ff; stroke:none;" d="M72 296L73 297L72 296M64 303L65 304L64 303z"/>
<path style="fill:#2881a3; stroke:none;" d="M63 304L64 305L63 304z"/>
<path style="fill:#0101ff; stroke:none;" d="M62 305L63 306L62 305M61 306L62 307L61 306M60 307L61 308L60 307M59 308L60 309L59 308z"/>
<path style="fill:#2881a3; stroke:none;" d="M41 331L42 332L41 331M37 337L38 338L37 337M31 348L32 349L31 348M30 350L31 351L30 350M28 354L29 355L28 354z"/>
<path style="fill:#0101ff; stroke:none;" d="M19 375L20 376L19 375z"/>
<path style="fill:#2881a3; stroke:none;" d="M17 381L18 382L17 381M15 387L16 388L15 387z"/>
<path style="fill:#0101ff; stroke:none;" d="M10 405L11 406L10 405M752 418L753 419L752 418M6 424L7 425L6 424z"/>
<path style="fill:#2881a3; stroke:none;" d="M741 439L742 440L741 439M2 452L3 453L2 452z"/>
<path style="fill:#0101ff; stroke:none;" d="M730 453L731 454L730 453z"/>
<path style="fill:#2881a3; stroke:none;" d="M729 454L730 455L729 454z"/>
<path style="fill:#0101ff; stroke:none;" d="M728 455L729 456L728 455M727 456L728 457L727 456M726 457L727 458L726 457M710 470L711 471L710 470M702 475L703 476L702 475z"/>
<path style="fill:#2881a3; stroke:none;" d="M688 482L689 483L688 482z"/>
<path style="fill:#0101ff; stroke:none;" d="M675 487L676 488L675 487M672 488L673 489L672 488M665 490L666 491L665 490z"/>
<path style="fill:#2881a3; stroke:none;" d="M638 495L639 496L638 495M355 497L356 498L355 497M332 501L333 502L332 501M328 502L329 503L328 502z"/>
<path style="fill:#0101ff; stroke:none;" d="M316 506L317 507L316 506z"/>
<path style="fill:#2881a3; stroke:none;" d="M278 529L279 530L278 529z"/>
<path style="fill:#0101ff; stroke:none;" d="M0 546L1 547L0 546z"/>
<path style="fill:#2881a3; stroke:none;" d="M261 548L262 549L261 548M2 571L3 572L2 571z"/>
<path style="fill:#0101ff; stroke:none;" d="M247 573L248 574L247 573M3 580L4 581L3 580M243 583L244 584L243 583z"/>
<path style="fill:#2881a3; stroke:none;" d="M240 592L241 593L240 592M5 594L6 595L5 594M7 606L8 607L7 606M8 611L9 612L8 611M233 632L234 633L233 632z"/>
<path style="fill:#0101ff; stroke:none;" d="M13 633L14 634L13 633z"/>
<path style="fill:#2881a3; stroke:none;" d="M15 640L16 641L15 640M24 666L25 667L24 666M37 693L38 694L37 693M40 698L41 699L40 698M57 721L58 722L57 721z"/>
<path style="fill:#0101ff; stroke:none;" d="M75 738L76 739L75 738M93 750L94 751L93 750z"/>
<path style="fill:#2881a3; stroke:none;" d="M95 751L96 752L95 751M99 753L100 754L99 753M111 758L112 759L111 758z"/>
<path style="fill:#010101; stroke:none;" d="M646 855.518C589.857 867.424 608.281 954.215 664 942.331C720.027 930.381 701.776 843.69 646 855.518z"/>
</svg>
