<?xml version="1.0" standalone="yes"?>
<svg xmlns="http://www.w3.org/2000/svg" width="1184" height="1026">
<path style="fill:#41b983; stroke:none;" d="M0 0L17.5509 32L51.1281 90L163.576 285L440.427 765L537.427 933L591 1026L593 1026L736.576 777L1009.43 304L1128.28 98L1165.42 34L1184 0L1016 0L968 0L948.39 0.603394L940.579 12L923.85 41L860.397 151L678.576 466L619.719 568L593 616L591 616L565.421 570L509.421 473L325.85 155L260.011 41L243.281 12L235.61 0.603394L216 0L168 0L0 0z"/>
<path style="fill:#35495f; stroke:none;" d="M237 0L264.15 48L319.576 144L502.424 461L558.424 558L591 615L593 615L618.576 570L664.15 491L856.85 157L914.011 58L947 0L788 0L746 0L728.339 1.02771L717.719 18L692.938 61L631.775 167L592 236L494.654 67L468 21L455.61 1.02771L439 0L396 0L237 0z"/>
<path style="fill:#4ab386; stroke:none;" d="M237 1L238 2L237 1M946 1L947 2L946 1z"/>
<path style="fill:#4ab386; stroke:none;" d="M238 3L239 4L238 3M945 3L946 4L945 3M239 5L240 6L239 5M944 5L945 6L944 5M1181 5L1182 6L1181 5M459 6L460 7L459 6M724 6L725 7L724 6M943 6L944 7L943 6M3 7L4 8L3 7M240 7L241 8L240 7z"/>
<path style="fill:#01ffff; stroke:none;" d="M1180 7L1181 8L1180 7z"/>
<path style="fill:#4ab386; stroke:none;" d="M241 8L242 9L241 8M942 8L943 9L942 8M242 10L243 11L242 10M941 10L942 11L941 10M721 11L722 12L721 11M6 12L7 13L6 12M243 12L244 13L243 12M940 12L941 13L940 12M1177 12L1178 13L1177 12M463 13L464 14L463 13M720 13L721 14L720 13M939 13L940 14L939 13z"/>
<path style="fill:#01ffff; stroke:none;" d="M7 14L8 15L7 14z"/>
<path style="fill:#4ab386; stroke:none;" d="M244 14L245 15L244 14M245 15L246 16L245 15M464 15L465 16L464 15M938 15L939 16L938 15M246 17L247 18L246 17M937 17L938 18L937 17M466 18L467 19L466 18M717 18L718 19L717 18M10 19L11 20L10 19M247 19L248 20L247 19M936 19L937 20L936 19M1173 19L1174 20L1173 19M716 20L717 21L716 20M935 20L936 21L935 20M249 22L250 23L249 22M468 22L469 23L468 22M934 22L935 23L934 22M250 24L251 25L250 24M933 24L934 25L933 24M470 25L471 26L470 25M713 25L714 26L713 25M251 26L252 27L251 26M932 26L933 27L932 26z"/>
<path style="fill:#01ffff; stroke:none;" d="M1169 26L1170 27L1169 26z"/>
<path style="fill:#4ab386; stroke:none;" d="M252 27L253 28L252 27M931 27L932 28L931 27M253 29L254 30L253 29M930 29L931 30L930 29M17 31L18 32L17 31M254 31L255 32L254 31M929 31L930 32L929 31M474 32L475 33L474 32M709 32L710 33L709 32M928 32L929 33L928 32M18 33L19 34L18 33M255 33L256 34L255 33M256 34L257 35L256 34M708 34L709 35L708 34M927 34L928 35L927 34M257 36L258 37L257 36M926 36L927 37L926 36M706 37L707 38L706 37M21 38L22 39L21 38M258 38L259 39L258 38M925 38L926 39L925 38M478 39L479 40L478 39M924 39L925 40L924 39z"/>
<path style="fill:#01ffff; stroke:none;" d="M22 40L23 41L22 40z"/>
<path style="fill:#4ab386; stroke:none;" d="M259 40L260 41L259 40M260 41L261 42L260 41M704 41L705 42L704 41M923 41L924 42L923 41M261 43L262 44L261 43M922 43L923 44L922 43M481 44L482 45L481 44M702 44L703 45L702 44M25 45L26 46L25 45M262 45L263 46L262 45M921 45L922 46L921 45M1158 45L1159 46L1158 45M263 46L264 47L263 46M701 46L702 47L701 46M920 46L921 47L920 46M264 48L265 49L264 48M483 48L484 49L483 48M919 48L920 49L919 48M265 50L266 51L265 50M918 50L919 51L918 50M485 51L486 52L485 51M698 51L699 52L698 51M266 52L267 53L266 52M917 52L918 53L917 52z"/>
<path style="fill:#01ffff; stroke:none;" d="M1154 52L1155 53L1154 52z"/>
<path style="fill:#4ab386; stroke:none;" d="M267 53L268 54L267 53M916 53L917 54L916 53M268 55L269 56L268 55M915 55L916 56L915 55M695 56L696 57L695 56M269 57L270 58L269 57M914 57L915 58L914 57M1151 57L1152 58L1151 57M489 58L490 59L489 58M694 58L695 59L694 58M913 58L914 59L913 58M33 59L34 60L33 59M270 59L271 60L270 59M271 60L272 61L271 60M693 60L694 61L693 60M912 60L913 61L912 60M272 62L273 63L272 62M911 62L912 63L911 62M691 63L692 64L691 63M36 64L37 65L36 64M273 64L274 65L273 64M910 64L911 65L910 64M493 65L494 66L493 65M909 65L910 66L909 65M275 67L276 68L275 67M908 67L909 68L908 67M276 69L277 70L276 69M907 69L908 70L907 69M496 70L497 71L496 70M687 70L688 71L687 70M40 71L41 72L40 71M277 71L278 72L277 71M906 71L907 72L906 71M1143 71L1144 72L1143 71M278 72L279 73L278 72M686 72L687 73L686 72M905 72L906 73L905 72M279 74L280 75L279 74M904 74L905 75L904 74M280 76L281 77L280 76M903 76L904 77L903 76M500 77L501 78L500 77M683 77L684 78L683 77M44 78L45 79L44 78M281 78L282 79L281 78M902 78L903 79L902 78z"/>
<path style="fill:#01ffff; stroke:none;" d="M1139 78L1140 79L1139 78z"/>
<path style="fill:#4ab386; stroke:none;" d="M282 79L283 80L282 79M501 79L502 80L501 79M901 79L902 80L901 79M283 81L284 82L283 81M900 81L901 82L900 81M680 82L681 83L680 82M284 83L285 84L284 83M899 83L900 84L899 83M1136 83L1137 84L1136 83M504 84L505 85L504 84M679 84L680 85L679 84M898 84L899 85L898 84M48 85L49 86L48 85M285 85L286 86L285 85M286 86L287 87L286 86M678 86L679 87L678 86M897 86L898 87L897 86M50 88L51 89L50 88M287 88L288 89L287 88M896 88L897 89L896 88M676 89L677 90L676 89M51 90L52 91L51 90M288 90L289 91L288 90M895 90L896 91L895 90M508 91L509 92L508 91M894 91L895 92L894 91M290 93L291 94L290 93M893 93L894 94L893 93M291 95L292 96L291 95M892 95L893 96L892 95M1129 95L1130 96L1129 95M511 96L512 97L511 96M672 96L673 97L672 96M55 97L56 98L55 97M292 97L293 98L292 97M891 97L892 98L891 97M1128 97L1129 98L1128 97M293 98L294 99L293 98M512 98L513 99L512 98M671 98L672 99L671 98M890 98L891 99L890 98M294 100L295 101L294 100M889 100L890 101L889 100M295 102L296 103L295 102M888 102L889 103L888 102M1125 102L1126 103L1125 102M515 103L516 104L515 103M668 103L669 104L668 103M59 104L60 105L59 104M296 104L297 105L296 104M887 104L888 105L887 104z"/>
<path style="fill:#01ffff; stroke:none;" d="M1124 104L1125 105L1124 104z"/>
<path style="fill:#4ab386; stroke:none;" d="M297 105L298 106L297 105M516 105L517 106L516 105M886 105L887 106L886 105M298 107L299 108L298 107M885 107L886 108L885 107M665 108L666 109L665 108M299 109L300 110L299 109M884 109L885 110L884 109M1121 109L1122 110L1121 109M519 110L520 111L519 110M883 110L884 111L883 110z"/>
<path style="fill:#01ffff; stroke:none;" d="M63 111L64 112L63 111z"/>
<path style="fill:#4ab386; stroke:none;" d="M300 111L301 112L300 111M301 112L302 113L301 112M882 112L883 113L882 112M65 114L66 115L65 114M302 114L303 115L302 114M881 114L882 115L881 114M522 115L523 116L522 115M661 115L662 116L661 115M303 116L304 117L303 116M880 116L881 117L880 116M879 117L880 118L879 117M305 119L306 120L305 119M878 119L879 120L878 119M306 121L307 122L306 121M877 121L878 122L877 121M1114 121L1115 122L1114 121M526 122L527 123L526 122M657 122L658 123L657 122M307 123L308 124L307 123M876 123L877 124L876 123M1113 123L1114 124L1113 123M308 124L309 125L308 124M875 124L876 125L875 124M309 126L310 127L309 126M874 126L875 127L874 126M73 128L74 129L73 128M310 128L311 129L310 128M873 128L874 129L873 128M1110 128L1111 129L1110 128M530 129L531 130L530 129M653 129L654 130L653 129M872 129L873 130L872 129M74 130L75 131L74 130M311 130L312 131L311 130z"/>
<path style="fill:#01ffff; stroke:none;" d="M1109 130L1110 131L1109 130z"/>
<path style="fill:#4ab386; stroke:none;" d="M312 131L313 132L312 131M871 131L872 132L871 131M313 133L314 134L313 133M870 133L871 134L870 133M650 134L651 135L650 134M77 135L78 136L77 135M314 135L315 136L314 135M869 135L870 136L869 135M1106 135L1107 136L1106 135M534 136L535 137L534 136M649 136L650 137L649 136M868 136L869 137L868 136z"/>
<path style="fill:#01ffff; stroke:none;" d="M78 137L79 138L78 137z"/>
<path style="fill:#4ab386; stroke:none;" d="M315 137L316 138L315 137M316 138L317 139L316 138M535 138L536 139L535 138M867 138L868 139L867 138M317 140L318 141L317 140M866 140L867 141L866 140M537 141L538 142L537 141M646 141L647 142L646 141M81 142L82 143L81 142M318 142L319 143L318 142M865 142L866 143L865 142M1102 142L1103 143L1102 142M319 143L320 144L319 143M645 143L646 144L645 143M864 143L865 144L864 143M320 145L321 146L320 145M539 145L540 146L539 145M863 145L864 146L863 145M321 147L322 148L321 147M862 147L863 148L862 147M541 148L542 149L541 148M642 148L643 149L642 148M322 149L323 150L322 149M861 149L862 150L861 149z"/>
<path style="fill:#01ffff; stroke:none;" d="M1098 149L1099 150L1098 149z"/>
<path style="fill:#4ab386; stroke:none;" d="M323 150L324 151L323 150M860 150L861 151L860 150M324 152L325 153L324 152M859 152L860 153L859 152M325 154L326 155L325 154M858 154L859 155L858 154M545 155L546 156L545 155M638 155L639 156L638 155M857 155L858 156L857 155M89 156L90 157L89 156M326 156L327 157L326 156M327 157L328 158L327 157M637 157L638 158L637 157M856 157L857 158L856 157M328 159L329 160L328 159M855 159L856 160L855 159M635 160L636 161L635 160M92 161L93 162L92 161M329 161L330 162L329 161M854 161L855 162L854 161M549 162L550 163L549 162M853 162L854 163L853 162z"/>
<path style="fill:#01ffff; stroke:none;" d="M93 163L94 164L93 163z"/>
<path style="fill:#4ab386; stroke:none;" d="M331 164L332 165L331 164M633 164L634 165L633 164M852 164L853 165L852 164M332 166L333 167L332 166M851 166L852 167L851 166M552 167L553 168L552 167M631 167L632 168L631 167M96 168L97 169L96 168M333 168L334 169L333 168M850 168L851 169L850 168M1087 168L1088 169L1087 168M334 169L335 170L334 169M630 169L631 170L630 169M849 169L850 170L849 169M335 171L336 172L335 171M848 171L849 172L848 171M336 173L337 174L336 173M847 173L848 174L847 173M556 174L557 175L556 174M627 174L628 175L627 174M337 175L338 176L337 175M846 175L847 176L846 175z"/>
<path style="fill:#01ffff; stroke:none;" d="M1083 175L1084 176L1083 175z"/>
<path style="fill:#4ab386; stroke:none;" d="M338 176L339 177L338 176M557 176L558 177L557 176M845 176L846 177L845 176M339 178L340 179L339 178M844 178L845 179L844 178M624 179L625 180L624 179M340 180L341 181L340 180M843 180L844 181L843 180M1080 180L1081 181L1080 180M560 181L561 182L560 181M623 181L624 182L623 181M842 181L843 182L842 181M104 182L105 183L104 182M341 182L342 183L341 182M342 183L343 184L342 183M622 183L623 184L622 183M841 183L842 184L841 183M343 185L344 186L343 185M840 185L841 186L840 185M620 186L621 187L620 186M107 187L108 188L107 187M344 187L345 188L344 187M839 187L840 188L839 187M564 188L565 189L564 188M838 188L839 189L838 188M346 190L347 191L346 190M837 190L838 191L837 190M347 192L348 193L347 192M836 192L837 193L836 192M567 193L568 194L567 193M616 193L617 194L616 193M111 194L112 195L111 194M348 194L349 195L348 194M835 194L836 195L835 194M1072 194L1073 195L1072 194M349 195L350 196L349 195M615 195L616 196L615 195M834 195L835 196L834 195M350 197L351 198L350 197M833 197L834 198L833 197M351 199L352 200L351 199M832 199L833 200L832 199M571 200L572 201L571 200M612 200L613 201L612 200M115 201L116 202L115 201M352 201L353 202L352 201M831 201L832 202L831 201z"/>
<path style="fill:#01ffff; stroke:none;" d="M1068 201L1069 202L1068 201z"/>
<path style="fill:#4ab386; stroke:none;" d="M353 202L354 203L353 202M572 202L573 203L572 202M830 202L831 203L830 202M354 204L355 205L354 204M829 204L830 205L829 204M609 205L610 206L609 205M355 206L356 207L355 206M828 206L829 207L828 206M1065 206L1066 207L1065 206M575 207L576 208L575 207M608 207L609 208L608 207M827 207L828 208L827 207M119 208L120 209L119 208M356 208L357 209L356 208M357 209L358 210L357 209M607 209L608 210L607 209M826 209L827 210L826 209M121 211L122 212L121 211M358 211L359 212L358 211M825 211L826 212L825 211M605 212L606 213L605 212M122 213L123 214L122 213M359 213L360 214L359 213M824 213L825 214L824 213M579 214L580 215L579 214M823 214L824 215L823 214M361 216L362 217L361 216M822 216L823 217L822 216M362 218L363 219L362 218M821 218L822 219L821 218M1058 218L1059 219L1058 218M582 219L583 220L582 219M601 219L602 220L601 219M126 220L127 221L126 220M363 220L364 221L363 220M820 220L821 221L820 220M1057 220L1058 221L1057 220M364 221L365 222L364 221M583 221L584 222L583 221M600 221L601 222L600 221M819 221L820 222L819 221M365 223L366 224L365 223M818 223L819 224L818 223M366 225L367 226L366 225M817 225L818 226L817 225M1054 225L1055 226L1054 225M586 226L587 227L586 226M597 226L598 227L597 226M130 227L131 228L130 227M367 227L368 228L367 227M816 227L817 228L816 227z"/>
<path style="fill:#01ffff; stroke:none;" d="M1053 227L1054 228L1053 227z"/>
<path style="fill:#4ab386; stroke:none;" d="M368 228L369 229L368 228M587 228L588 229L587 228M815 228L816 229L815 228M369 230L370 231L369 230M814 230L815 231L814 230M594 231L595 232L594 231M370 232L371 233L370 232M813 232L814 233L813 232M1050 232L1051 233L1050 232M590 233L591 234L590 233M812 233L813 234L812 233z"/>
<path style="fill:#01ffff; stroke:none;" d="M134 234L135 235L134 234z"/>
<path style="fill:#4ab386; stroke:none;" d="M371 234L372 235L371 234M372 235L373 236L372 235M591 235L592 236L591 235M811 235L812 236L811 235M136 237L137 238L136 237M373 237L374 238L373 237M810 237L811 238L810 237M374 239L375 240L374 239M809 239L810 240L809 239M375 240L376 241L375 240M808 240L809 241L808 240M376 242L377 243L376 242M807 242L808 243L807 242M377 244L378 245L377 244M806 244L807 245L806 244M1043 244L1044 245L1043 244M378 246L379 247L378 246M805 246L806 247L805 246M1042 246L1043 247L1042 246M379 247L380 248L379 247M804 247L805 248L804 247M380 249L381 250L380 249M803 249L804 250L803 249M144 251L145 252L144 251M381 251L382 252L381 251M802 251L803 252L802 251M1039 251L1040 252L1039 251M145 253L146 254L145 253M382 253L383 254L382 253z"/>
<path style="fill:#01ffff; stroke:none;" d="M1038 253L1039 254L1038 253z"/>
<path style="fill:#4ab386; stroke:none;" d="M383 254L384 255L383 254M800 254L801 255L800 254M384 256L385 257L384 256M799 256L800 257L799 256M148 258L149 259L148 258M385 258L386 259L385 258M798 258L799 259L798 258M797 259L798 260L797 259z"/>
<path style="fill:#01ffff; stroke:none;" d="M149 260L150 261L149 260z"/>
<path style="fill:#4ab386; stroke:none;" d="M386 260L387 261L386 260M387 261L388 262L387 261M796 261L797 262L796 261M388 263L389 264L388 263M795 263L796 264L795 263M152 265L153 266L152 265M389 265L390 266L389 265M794 265L795 266L794 265M1031 265L1032 266L1031 265M390 266L391 267L390 266M793 266L794 267L793 266M391 268L392 269L391 268M792 268L793 269L792 268M392 270L393 271L392 270M791 270L792 271L791 270M393 272L394 273L393 272M790 272L791 273L790 272z"/>
<path style="fill:#01ffff; stroke:none;" d="M1027 272L1028 273L1027 272z"/>
<path style="fill:#4ab386; stroke:none;" d="M394 273L395 274L394 273M789 273L790 274L789 273M395 275L396 276L395 275M788 275L789 276L788 275M396 277L397 278L396 277M787 277L788 278L787 277M786 278L787 279L786 278M160 279L161 280L160 279M397 279L398 280L397 279M398 280L399 281L398 280M785 280L786 281L785 280M399 282L400 283L399 282M784 282L785 283L784 282M163 284L164 285L163 284M400 284L401 285L400 284M783 284L784 285L783 284M782 285L783 286L782 285z"/>
<path style="fill:#01ffff; stroke:none;" d="M164 286L165 287L164 286z"/>
<path style="fill:#4ab386; stroke:none;" d="M402 287L403 288L402 287M781 287L782 288L781 287M403 289L404 290L403 289M780 289L781 290L780 289M167 291L168 292L167 291M404 291L405 292L404 291M779 291L780 292L779 291M1016 291L1017 292L1016 291M405 292L406 293L405 292M778 292L779 293L778 292M406 294L407 295L406 294M777 294L778 295L777 294M407 296L408 297L407 296M776 296L777 297L776 296M171 298L172 299L171 298M408 298L409 299L408 298M775 298L776 299L775 298z"/>
<path style="fill:#01ffff; stroke:none;" d="M1012 298L1013 299L1012 298z"/>
<path style="fill:#4ab386; stroke:none;" d="M409 299L410 300L409 299M774 299L775 300L774 299M410 301L411 302L410 301M773 301L774 302L773 301M411 303L412 304L411 303M772 303L773 304L772 303M1009 303L1010 304L1009 303M771 304L772 305L771 304M175 305L176 306L175 305M412 305L413 306L412 305M413 306L414 307L413 306M770 306L771 307L770 306M414 308L415 309L414 308M769 308L770 309L769 308M178 310L179 311L178 310M415 310L416 311L415 310M768 310L769 311L768 310M767 311L768 312L767 311M417 313L418 314L417 313M766 313L767 314L766 313M418 315L419 316L418 315M765 315L766 316L765 315M182 317L183 318L182 317M419 317L420 318L419 317M764 317L765 318L764 317M1001 317L1002 318L1001 317M420 318L421 319L420 318M763 318L764 319L763 318M421 320L422 321L421 320M762 320L763 321L762 320M422 322L423 323L422 322M761 322L762 323L761 322M186 324L187 325L186 324M423 324L424 325L423 324M760 324L761 325L760 324z"/>
<path style="fill:#01ffff; stroke:none;" d="M997 324L998 325L997 324z"/>
<path style="fill:#4ab386; stroke:none;" d="M424 325L425 326L424 325M759 325L760 326L759 325M425 327L426 328L425 327M758 327L759 328L758 327M426 329L427 330L426 329M757 329L758 330L757 329M994 329L995 330L994 329M756 330L757 331L756 330M190 331L191 332L190 331M427 331L428 332L427 331M428 332L429 333L428 332M755 332L756 333L755 332M192 334L193 335L192 334M429 334L430 335L429 334M754 334L755 335L754 334M193 336L194 337L193 336M430 336L431 337L430 336M753 336L754 337L753 336M752 337L753 338L752 337M432 339L433 340L432 339M751 339L752 340L751 339M433 341L434 342L433 341M750 341L751 342L750 341M987 341L988 342L987 341M434 343L435 344L434 343M749 343L750 344L749 343M986 343L987 344L986 343M435 344L436 345L435 344M748 344L749 345L748 344M436 346L437 347L436 346M747 346L748 347L747 346M437 348L438 349L437 348M746 348L747 349L746 348M983 348L984 349L983 348M201 350L202 351L201 350M438 350L439 351L438 350M745 350L746 351L745 350z"/>
<path style="fill:#01ffff; stroke:none;" d="M982 350L983 351L982 350z"/>
<path style="fill:#4ab386; stroke:none;" d="M439 351L440 352L439 351M744 351L745 352L744 351M440 353L441 354L440 353M743 353L744 354L743 353M441 355L442 356L441 355M742 355L743 356L742 355M979 355L980 356L979 355M741 356L742 357L741 356z"/>
<path style="fill:#01ffff; stroke:none;" d="M205 357L206 358L205 357z"/>
<path style="fill:#4ab386; stroke:none;" d="M442 357L443 358L442 357M443 358L444 359L443 358M740 358L741 359L740 358M207 360L208 361L207 360M444 360L445 361L444 360M739 360L740 361L739 360M208 362L209 363L208 362M445 362L446 363L445 362M738 362L739 363L738 362M737 363L738 364L737 363M447 365L448 366L447 365M736 365L737 366L736 365M448 367L449 368L448 367M735 367L736 368L735 367M972 367L973 368L972 367M449 369L450 370L449 369M734 369L735 370L734 369M971 369L972 370L971 369M450 370L451 371L450 370M733 370L734 371L733 370M451 372L452 373L451 372M732 372L733 373L732 372M215 374L216 375L215 374M452 374L453 375L452 374M731 374L732 375L731 374M730 375L731 376L730 375M216 376L217 377L216 376M453 376L454 377L453 376M454 377L455 378L454 377M729 377L730 378L729 377M455 379L456 380L455 379M728 379L729 380L728 379M219 381L220 382L219 381M456 381L457 382L456 381M727 381L728 382L727 381M726 382L727 383L726 382z"/>
<path style="fill:#01ffff; stroke:none;" d="M220 383L221 384L220 383z"/>
<path style="fill:#4ab386; stroke:none;" d="M458 384L459 385L458 384M725 384L726 385L725 384M459 386L460 387L459 386M724 386L725 387L724 386M223 388L224 389L223 388M460 388L461 389L460 388M723 388L724 389L723 388M960 388L961 389L960 388M461 389L462 390L461 389M722 389L723 390L722 389M462 391L463 392L462 391M721 391L722 392L721 391M463 393L464 394L463 393M720 393L721 394L720 393M464 395L465 396L464 395M719 395L720 396L719 395z"/>
<path style="fill:#01ffff; stroke:none;" d="M956 395L957 396L956 395z"/>
<path style="fill:#4ab386; stroke:none;" d="M465 396L466 397L465 396M718 396L719 397L718 396M466 398L467 399L466 398M717 398L718 399L717 398M467 400L468 401L467 400M716 400L717 401L716 400M715 401L716 402L715 401M231 402L232 403L231 402M468 402L469 403L468 402M469 403L470 404L469 403M714 403L715 404L714 403M470 405L471 406L470 405M713 405L714 406L713 405M234 407L235 408L234 407M471 407L472 408L471 407M712 407L713 408L712 407M711 408L712 409L711 408z"/>
<path style="fill:#01ffff; stroke:none;" d="M235 409L236 410L235 409z"/>
<path style="fill:#4ab386; stroke:none;" d="M473 410L474 411L473 410M710 410L711 411L710 410M474 412L475 413L474 412M709 412L710 413L709 412M238 414L239 415L238 414M475 414L476 415L475 414M708 414L709 415L708 414M945 414L946 415L945 414M476 415L477 416L476 415M707 415L708 416L707 415M477 417L478 418L477 417M706 417L707 418L706 417M478 419L479 420L478 419M705 419L706 420L705 419M242 421L243 422L242 421M479 421L480 422L479 421M704 421L705 422L704 421z"/>
<path style="fill:#01ffff; stroke:none;" d="M941 421L942 422L941 421z"/>
<path style="fill:#4ab386; stroke:none;" d="M480 422L481 423L480 422M703 422L704 423L703 422M481 424L482 425L481 424M702 424L703 425L702 424M482 426L483 427L482 426M701 426L702 427L701 426M938 426L939 427L938 426M700 427L701 428L700 427M246 428L247 429L246 428M483 428L484 429L483 428M484 429L485 430L484 429M699 429L700 430L699 429M485 431L486 432L485 431M698 431L699 432L698 431M249 433L250 434L249 433M486 433L487 434L486 433M697 433L698 434L697 433M696 434L697 435L696 434M488 436L489 437L488 436M695 436L696 437L695 436M489 438L490 439L489 438M694 438L695 439L694 438M253 440L254 441L253 440M490 440L491 441L490 440M693 440L694 441L693 440M930 440L931 441L930 440M491 441L492 442L491 441M692 441L693 442L692 441M492 443L493 444L492 443M691 443L692 444L691 443M493 445L494 446L493 445M690 445L691 446L690 445M257 447L258 448L257 447M494 447L495 448L494 447M689 447L690 448L689 447z"/>
<path style="fill:#01ffff; stroke:none;" d="M926 447L927 448L926 447z"/>
<path style="fill:#4ab386; stroke:none;" d="M495 448L496 449L495 448M688 448L689 449L688 448M496 450L497 451L496 450M687 450L688 451L687 450M497 452L498 453L497 452M686 452L687 453L686 452M923 452L924 453L923 452M685 453L686 454L685 453z"/>
<path style="fill:#01ffff; stroke:none;" d="M261 454L262 455L261 454z"/>
<path style="fill:#4ab386; stroke:none;" d="M498 454L499 455L498 454M499 455L500 456L499 455M684 455L685 456L684 455M263 457L264 458L263 457M500 457L501 458L500 457M683 457L684 458L683 457M501 459L502 460L501 459M682 459L683 460L682 459M681 460L682 461L681 460M503 462L504 463L503 462M680 462L681 463L680 462M504 464L505 465L504 464M679 464L680 465L679 464M916 464L917 465L916 464M505 466L506 467L505 466M678 466L679 467L678 466M915 466L916 467L915 466M506 467L507 468L506 467M677 467L678 468L677 467M507 469L508 470L507 469M676 469L677 470L676 469M508 471L509 472L508 471M675 471L676 472L675 471M912 471L913 472L912 471M674 472L675 473L674 472M272 473L273 474L272 473M509 473L510 474L509 473z"/>
<path style="fill:#01ffff; stroke:none;" d="M911 473L912 474L911 473z"/>
<path style="fill:#4ab386; stroke:none;" d="M510 474L511 475L510 474M673 474L674 475L673 474M511 476L512 477L511 476M672 476L673 477L672 476M512 478L513 479L512 478M671 478L672 479L671 478M908 478L909 479L908 478M670 479L671 480L670 479z"/>
<path style="fill:#01ffff; stroke:none;" d="M276 480L277 481L276 480z"/>
<path style="fill:#4ab386; stroke:none;" d="M513 480L514 481L513 480M514 481L515 482L514 481M669 481L670 482L669 481M515 483L516 484L515 483M668 483L669 484L668 483M279 485L280 486L279 485M516 485L517 486L516 485M667 485L668 486L667 485M517 486L518 487L517 486M666 486L667 487L666 486M518 488L519 489L518 488M665 488L666 489L665 488M519 490L520 491L519 490M664 490L665 491L664 490M901 490L902 491L901 490M520 492L521 493L520 492M663 492L664 493L663 492M900 492L901 493L900 492M521 493L522 494L521 493M662 493L663 494L662 493M522 495L523 496L522 495M661 495L662 496L661 495M286 497L287 498L286 497M523 497L524 498L523 497M660 497L661 498L660 497M659 498L660 499L659 498M287 499L288 500L287 499M524 499L525 500L524 499M525 500L526 501L525 500M658 500L659 501L658 500M526 502L527 503L526 502M657 502L658 503L657 502M290 504L291 505L290 504M527 504L528 505L527 504M656 504L657 505L656 504M655 505L656 506L655 505z"/>
<path style="fill:#01ffff; stroke:none;" d="M291 506L292 507L291 506z"/>
<path style="fill:#4ab386; stroke:none;" d="M529 507L530 508L529 507M654 507L655 508L654 507M530 509L531 510L530 509M653 509L654 510L653 509M294 511L295 512L294 511M531 511L532 512L531 511M652 511L653 512L652 511M889 511L890 512L889 511M532 512L533 513L532 512M651 512L652 513L651 512M533 514L534 515L533 514M650 514L651 515L650 514M534 516L535 517L534 516M649 516L650 517L649 516M535 518L536 519L535 518M648 518L649 519L648 518z"/>
<path style="fill:#01ffff; stroke:none;" d="M885 518L886 519L885 518z"/>
<path style="fill:#4ab386; stroke:none;" d="M536 519L537 520L536 519M647 519L648 520L647 519M537 521L538 522L537 521M646 521L647 522L646 521M538 523L539 524L538 523M645 523L646 524L645 523M644 524L645 525L644 524M302 525L303 526L302 525M539 525L540 526L539 525M540 526L541 527L540 526M643 526L644 527L643 526M541 528L542 529L541 528M642 528L643 529L642 528M305 530L306 531L305 530M542 530L543 531L542 530M641 530L642 531L641 530M640 531L641 532L640 531z"/>
<path style="fill:#01ffff; stroke:none;" d="M306 532L307 533L306 532z"/>
<path style="fill:#4ab386; stroke:none;" d="M544 533L545 534L544 533M639 533L640 534L639 533M545 535L546 536L545 535M638 535L639 536L638 535M309 537L310 538L309 537M546 537L547 538L546 537M637 537L638 538L637 537M874 537L875 538L874 537M547 538L548 539L547 538M636 538L637 539L636 538M548 540L549 541L548 540M635 540L636 541L635 540M549 542L550 543L549 542M634 542L635 543L634 542M313 544L314 545L313 544M550 544L551 545L550 544M633 544L634 545L633 544z"/>
<path style="fill:#01ffff; stroke:none;" d="M870 544L871 545L870 544z"/>
<path style="fill:#4ab386; stroke:none;" d="M551 545L552 546L551 545M632 545L633 546L632 545M552 547L553 548L552 547M631 547L632 548L631 547M553 549L554 550L553 549M630 549L631 550L630 549M867 549L868 550L867 549M629 550L630 551L629 550M317 551L318 552L317 551M554 551L555 552L554 551M555 552L556 553L555 552M628 552L629 553L628 552M556 554L557 555L556 554M627 554L628 555L627 554M320 556L321 557L320 556M557 556L558 557L557 556M626 556L627 557L626 556M625 557L626 558L625 557M559 559L560 560L559 559M624 559L625 560L624 559M560 561L561 562L560 561M623 561L624 562L623 561M324 563L325 564L324 563M561 563L562 564L561 563M622 563L623 564L622 563M859 563L860 564L859 563M562 564L563 565L562 564M621 564L622 565L621 564M563 566L564 567L563 566M620 566L621 567L620 566M564 568L565 569L564 568M619 568L620 569L619 568M856 568L857 569L856 568M328 570L329 571L328 570M565 570L566 571L565 570M618 570L619 571L618 570z"/>
<path style="fill:#01ffff; stroke:none;" d="M855 570L856 571L855 570z"/>
<path style="fill:#4ab386; stroke:none;" d="M566 571L567 572L566 571M617 571L618 572L617 571M567 573L568 574L567 573M616 573L617 574L616 573M568 575L569 576L568 575M615 575L616 576L615 575M852 575L853 576L852 575M614 576L615 577L614 576z"/>
<path style="fill:#01ffff; stroke:none;" d="M332 577L333 578L332 577z"/>
<path style="fill:#4ab386; stroke:none;" d="M569 577L570 578L569 577M570 578L571 579L570 578M613 578L614 579L613 578M334 580L335 581L334 580M571 580L572 581L571 580M612 580L613 581L612 580M572 582L573 583L572 582M611 582L612 583L611 582M573 583L574 584L573 583M610 583L611 584L610 583M574 585L575 586L574 585M609 585L610 586L609 585M575 587L576 588L575 587M608 587L609 588L608 587M845 587L846 588L845 587M576 589L577 590L576 589M607 589L608 590L607 589M844 589L845 590L844 589M577 590L578 591L577 590M606 590L607 591L606 590M578 592L579 593L578 592M605 592L606 593L605 592M579 594L580 595L579 594M604 594L605 595L604 594M841 594L842 595L841 594M343 596L344 597L343 596M580 596L581 597L580 596z"/>
<path style="fill:#01ffff; stroke:none;" d="M840 596L841 597L840 596z"/>
<path style="fill:#4ab386; stroke:none;" d="M581 597L582 598L581 597M602 597L603 598L602 597M582 599L583 600L582 599M601 599L602 600L601 599M346 601L347 602L346 601M583 601L584 602L583 601M600 601L601 602L600 601M837 601L838 602L837 601M599 602L600 603L599 602z"/>
<path style="fill:#01ffff; stroke:none;" d="M347 603L348 604L347 603z"/>
<path style="fill:#4ab386; stroke:none;" d="M584 603L585 604L584 603M585 604L586 605L585 604M598 604L599 605L598 604M586 606L587 607L586 606M597 606L598 607L597 606M350 608L351 609L350 608M587 608L588 609L587 608M596 608L597 609L596 608M588 609L589 610L588 609M595 609L596 610L595 609M589 611L590 612L589 611M594 611L595 612L594 611M590 613L591 614L590 613M593 613L594 614L593 613M591.667 615.333L592.333 615.667L591.667 615.333z"/>
<path style="fill:#01ffff; stroke:none;" d="M829 615L830 616L829 615z"/>
<path style="fill:#4ab386; stroke:none;" d="M358 622L359 623L358 622M361 627L362 628L361 627z"/>
<path style="fill:#01ffff; stroke:none;" d="M362 629L363 630L362 629z"/>
<path style="fill:#4ab386; stroke:none;" d="M365 634L366 635L365 634M818 634L819 635L818 634z"/>
<path style="fill:#01ffff; stroke:none;" d="M814 641L815 642L814 641z"/>
<path style="fill:#4ab386; stroke:none;" d="M373 648L374 649L373 648M376 653L377 654L376 653M380 660L381 661L380 660M803 660L804 661L803 660M384 667L385 668L384 667z"/>
<path style="fill:#01ffff; stroke:none;" d="M799 667L800 668L799 667z"/>
<path style="fill:#4ab386; stroke:none;" d="M796 672L797 673L796 672M388 674L389 675L388 674M390 677L391 678L390 677M391 679L392 680L391 679M789 684L790 685L789 684M395 686L396 687L395 686M788 686L789 687L788 686M785 691L786 692L785 691M399 693L400 694L399 693z"/>
<path style="fill:#01ffff; stroke:none;" d="M784 693L785 694L784 693z"/>
<path style="fill:#4ab386; stroke:none;" d="M781 698L782 699L781 698z"/>
<path style="fill:#01ffff; stroke:none;" d="M403 700L404 701L403 700z"/>
<path style="fill:#4ab386; stroke:none;" d="M405 703L406 704L405 703M774 710L775 711L774 710M773 712L774 713L773 712M413 717L414 718L413 717M770 717L771 718L770 717M414 719L415 720L414 719z"/>
<path style="fill:#01ffff; stroke:none;" d="M769 719L770 720L769 719z"/>
<path style="fill:#4ab386; stroke:none;" d="M417 724L418 725L417 724M766 724L767 725L766 724z"/>
<path style="fill:#01ffff; stroke:none;" d="M418 726L419 727L418 726z"/>
<path style="fill:#4ab386; stroke:none;" d="M421 731L422 732L421 731M762 731L763 732L762 731z"/>
<path style="fill:#01ffff; stroke:none;" d="M758 738L759 739L758 738z"/>
<path style="fill:#4ab386; stroke:none;" d="M429 745L430 746L429 745M432 750L433 751L432 750z"/>
<path style="fill:#01ffff; stroke:none;" d="M433 752L434 753L433 752z"/>
<path style="fill:#4ab386; stroke:none;" d="M436 757L437 758L436 757M747 757L748 758L747 757z"/>
<path style="fill:#01ffff; stroke:none;" d="M743 764L744 765L743 764z"/>
<path style="fill:#4ab386; stroke:none;" d="M444 771L445 772L444 771M447 776L448 777L447 776M451 783L452 784L451 783M732 783L733 784L732 783M455 790L456 791L455 790z"/>
<path style="fill:#01ffff; stroke:none;" d="M728 790L729 791L728 790z"/>
<path style="fill:#4ab386; stroke:none;" d="M725 795L726 796L725 795M459 797L460 798L459 797M461 800L462 801L461 800M462 802L463 803L462 802M718 807L719 808L718 807M466 809L467 810L466 809M717 809L718 810L717 809M714 814L715 815L714 814M470 816L471 817L470 816z"/>
<path style="fill:#01ffff; stroke:none;" d="M713 816L714 817L713 816z"/>
<path style="fill:#4ab386; stroke:none;" d="M710 821L711 822L710 821z"/>
<path style="fill:#01ffff; stroke:none;" d="M474 823L475 824L474 823z"/>
<path style="fill:#4ab386; stroke:none;" d="M476 826L477 827L476 826M703 833L704 834L703 833M702 835L703 836L702 835M484 840L485 841L484 840M699 840L700 841L699 840M485 842L486 843L485 842z"/>
<path style="fill:#01ffff; stroke:none;" d="M698 842L699 843L698 842z"/>
<path style="fill:#4ab386; stroke:none;" d="M488 847L489 848L488 847M695 847L696 848L695 847z"/>
<path style="fill:#01ffff; stroke:none;" d="M489 849L490 850L489 849z"/>
<path style="fill:#4ab386; stroke:none;" d="M492 854L493 855L492 854M691 854L692 855L691 854z"/>
<path style="fill:#01ffff; stroke:none;" d="M687 861L688 862L687 861z"/>
<path style="fill:#4ab386; stroke:none;" d="M500 868L501 869L500 868M503 873L504 874L503 873z"/>
<path style="fill:#01ffff; stroke:none;" d="M504 875L505 876L504 875z"/>
<path style="fill:#4ab386; stroke:none;" d="M507 880L508 881L507 880M676 880L677 881L676 880M511 887L512 888L511 887z"/>
<path style="fill:#01ffff; stroke:none;" d="M672 887L673 888L672 887z"/>
<path style="fill:#4ab386; stroke:none;" d="M669 892L670 893L669 892M515 894L516 895L515 894M518 899L519 900L518 899M522 906L523 907L522 906M661 906L662 907L661 906M526 913L527 914L526 913z"/>
<path style="fill:#01ffff; stroke:none;" d="M657 913L658 914L657 913z"/>
<path style="fill:#4ab386; stroke:none;" d="M654 918L655 919L654 918M530 920L531 921L530 920M532 923L533 924L532 923M533 925L534 926L533 925M647 930L648 931L647 930M646 932L647 933L646 932M643 937L644 938L643 937M541 939L542 940L541 939z"/>
<path style="fill:#01ffff; stroke:none;" d="M642 939L643 940L642 939z"/>
<path style="fill:#4ab386; stroke:none;" d="M639 944L640 945L639 944z"/>
<path style="fill:#01ffff; stroke:none;" d="M545 946L546 947L545 946z"/>
<path style="fill:#4ab386; stroke:none;" d="M548 951L549 952L548 951M632 956L633 957L632 956M631 958L632 959L631 958M555 963L556 964L555 963M628 963L629 964L628 963M556 965L557 966L556 965z"/>
<path style="fill:#01ffff; stroke:none;" d="M627 965L628 966L627 965z"/>
<path style="fill:#4ab386; stroke:none;" d="M559 970L560 971L559 970z"/>
<path style="fill:#01ffff; stroke:none;" d="M560 972L561 973L560 972z"/>
<path style="fill:#4ab386; stroke:none;" d="M563 977L564 978L563 977M620 977L621 978L620 977z"/>
<path style="fill:#01ffff; stroke:none;" d="M616 984L617 985L616 984z"/>
<path style="fill:#4ab386; stroke:none;" d="M571 991L572 992L571 991M574 996L575 997L574 996z"/>
<path style="fill:#01ffff; stroke:none;" d="M575 998L576 999L575 998z"/>
<path style="fill:#4ab386; stroke:none;" d="M578 1003L579 1004L578 1003M605 1003L606 1004L605 1003M582 1010L583 1011L582 1010z"/>
<path style="fill:#01ffff; stroke:none;" d="M601 1010L602 1011L601 1010z"/>
<path style="fill:#4ab386; stroke:none;" d="M598 1015L599 1016L598 1015M586 1017L587 1018L586 1017M589 1022L590 1023L589 1022z"/>
</svg>
